%TF.GenerationSoftware,KiCad,Pcbnew,(6.0.2)*%
%TF.CreationDate,2022-02-24T00:22:58+01:00*%
%TF.ProjectId,mini-pcie-breakout,6d696e69-2d70-4636-9965-2d627265616b,rev?*%
%TF.SameCoordinates,Original*%
%TF.FileFunction,Legend,Top*%
%TF.FilePolarity,Positive*%
%FSLAX46Y46*%
G04 Gerber Fmt 4.6, Leading zero omitted, Abs format (unit mm)*
G04 Created by KiCad (PCBNEW (6.0.2)) date 2022-02-24 00:22:58*
%MOMM*%
%LPD*%
G01*
G04 APERTURE LIST*
%ADD10C,0.150000*%
%ADD11C,0.200000*%
%ADD12C,0.120000*%
G04 APERTURE END LIST*
D10*
X55430952Y-86152380D02*
X55430952Y-86866666D01*
X55383333Y-87009523D01*
X55288095Y-87104761D01*
X55145238Y-87152380D01*
X55050000Y-87152380D01*
X56383333Y-87152380D02*
X55907142Y-87152380D01*
X55907142Y-86152380D01*
X57288095Y-87057142D02*
X57240476Y-87104761D01*
X57097619Y-87152380D01*
X57002380Y-87152380D01*
X56859523Y-87104761D01*
X56764285Y-87009523D01*
X56716666Y-86914285D01*
X56669047Y-86723809D01*
X56669047Y-86580952D01*
X56716666Y-86390476D01*
X56764285Y-86295238D01*
X56859523Y-86200000D01*
X57002380Y-86152380D01*
X57097619Y-86152380D01*
X57240476Y-86200000D01*
X57288095Y-86247619D01*
X58002380Y-86152380D02*
X58002380Y-86866666D01*
X57954761Y-87009523D01*
X57859523Y-87104761D01*
X57716666Y-87152380D01*
X57621428Y-87152380D01*
X58954761Y-87152380D02*
X58478571Y-87152380D01*
X58478571Y-86152380D01*
X59859523Y-87057142D02*
X59811904Y-87104761D01*
X59669047Y-87152380D01*
X59573809Y-87152380D01*
X59430952Y-87104761D01*
X59335714Y-87009523D01*
X59288095Y-86914285D01*
X59240476Y-86723809D01*
X59240476Y-86580952D01*
X59288095Y-86390476D01*
X59335714Y-86295238D01*
X59430952Y-86200000D01*
X59573809Y-86152380D01*
X59669047Y-86152380D01*
X59811904Y-86200000D01*
X59859523Y-86247619D01*
X60573809Y-86152380D02*
X60573809Y-86866666D01*
X60526190Y-87009523D01*
X60430952Y-87104761D01*
X60288095Y-87152380D01*
X60192857Y-87152380D01*
X61526190Y-87152380D02*
X61050000Y-87152380D01*
X61050000Y-86152380D01*
X62430952Y-87057142D02*
X62383333Y-87104761D01*
X62240476Y-87152380D01*
X62145238Y-87152380D01*
X62002380Y-87104761D01*
X61907142Y-87009523D01*
X61859523Y-86914285D01*
X61811904Y-86723809D01*
X61811904Y-86580952D01*
X61859523Y-86390476D01*
X61907142Y-86295238D01*
X62002380Y-86200000D01*
X62145238Y-86152380D01*
X62240476Y-86152380D01*
X62383333Y-86200000D01*
X62430952Y-86247619D01*
X63145238Y-86152380D02*
X63145238Y-86866666D01*
X63097619Y-87009523D01*
X63002380Y-87104761D01*
X62859523Y-87152380D01*
X62764285Y-87152380D01*
X64097619Y-87152380D02*
X63621428Y-87152380D01*
X63621428Y-86152380D01*
X65002380Y-87057142D02*
X64954761Y-87104761D01*
X64811904Y-87152380D01*
X64716666Y-87152380D01*
X64573809Y-87104761D01*
X64478571Y-87009523D01*
X64430952Y-86914285D01*
X64383333Y-86723809D01*
X64383333Y-86580952D01*
X64430952Y-86390476D01*
X64478571Y-86295238D01*
X64573809Y-86200000D01*
X64716666Y-86152380D01*
X64811904Y-86152380D01*
X64954761Y-86200000D01*
X65002380Y-86247619D01*
D11*
X58113571Y-74662857D02*
X57113571Y-74662857D01*
X57256428Y-74662857D02*
X57185000Y-74591428D01*
X57113571Y-74448571D01*
X57113571Y-74234285D01*
X57185000Y-74091428D01*
X57327857Y-74020000D01*
X58113571Y-74020000D01*
X57327857Y-74020000D02*
X57185000Y-73948571D01*
X57113571Y-73805714D01*
X57113571Y-73591428D01*
X57185000Y-73448571D01*
X57327857Y-73377142D01*
X58113571Y-73377142D01*
X58113571Y-72662857D02*
X57113571Y-72662857D01*
X56613571Y-72662857D02*
X56685000Y-72734285D01*
X56756428Y-72662857D01*
X56685000Y-72591428D01*
X56613571Y-72662857D01*
X56756428Y-72662857D01*
X57113571Y-71948571D02*
X58113571Y-71948571D01*
X57256428Y-71948571D02*
X57185000Y-71877142D01*
X57113571Y-71734285D01*
X57113571Y-71520000D01*
X57185000Y-71377142D01*
X57327857Y-71305714D01*
X58113571Y-71305714D01*
X58113571Y-70591428D02*
X57113571Y-70591428D01*
X56613571Y-70591428D02*
X56685000Y-70662857D01*
X56756428Y-70591428D01*
X56685000Y-70520000D01*
X56613571Y-70591428D01*
X56756428Y-70591428D01*
X58113571Y-69877142D02*
X56613571Y-69877142D01*
X56613571Y-69305714D01*
X56685000Y-69162857D01*
X56756428Y-69091428D01*
X56899285Y-69020000D01*
X57113571Y-69020000D01*
X57256428Y-69091428D01*
X57327857Y-69162857D01*
X57399285Y-69305714D01*
X57399285Y-69877142D01*
X57970714Y-67520000D02*
X58042142Y-67591428D01*
X58113571Y-67805714D01*
X58113571Y-67948571D01*
X58042142Y-68162857D01*
X57899285Y-68305714D01*
X57756428Y-68377142D01*
X57470714Y-68448571D01*
X57256428Y-68448571D01*
X56970714Y-68377142D01*
X56827857Y-68305714D01*
X56685000Y-68162857D01*
X56613571Y-67948571D01*
X56613571Y-67805714D01*
X56685000Y-67591428D01*
X56756428Y-67520000D01*
X58113571Y-66877142D02*
X56613571Y-66877142D01*
X58042142Y-65591428D02*
X58113571Y-65734285D01*
X58113571Y-66020000D01*
X58042142Y-66162857D01*
X57899285Y-66234285D01*
X57327857Y-66234285D01*
X57185000Y-66162857D01*
X57113571Y-66020000D01*
X57113571Y-65734285D01*
X57185000Y-65591428D01*
X57327857Y-65520000D01*
X57470714Y-65520000D01*
X57613571Y-66234285D01*
X58113571Y-63734285D02*
X56613571Y-63734285D01*
X57185000Y-63734285D02*
X57113571Y-63591428D01*
X57113571Y-63305714D01*
X57185000Y-63162857D01*
X57256428Y-63091428D01*
X57399285Y-63020000D01*
X57827857Y-63020000D01*
X57970714Y-63091428D01*
X58042142Y-63162857D01*
X58113571Y-63305714D01*
X58113571Y-63591428D01*
X58042142Y-63734285D01*
X58113571Y-62377142D02*
X57113571Y-62377142D01*
X57399285Y-62377142D02*
X57256428Y-62305714D01*
X57185000Y-62234285D01*
X57113571Y-62091428D01*
X57113571Y-61948571D01*
X58042142Y-60877142D02*
X58113571Y-61020000D01*
X58113571Y-61305714D01*
X58042142Y-61448571D01*
X57899285Y-61520000D01*
X57327857Y-61520000D01*
X57185000Y-61448571D01*
X57113571Y-61305714D01*
X57113571Y-61020000D01*
X57185000Y-60877142D01*
X57327857Y-60805714D01*
X57470714Y-60805714D01*
X57613571Y-61520000D01*
X58113571Y-59520000D02*
X57327857Y-59520000D01*
X57185000Y-59591428D01*
X57113571Y-59734285D01*
X57113571Y-60020000D01*
X57185000Y-60162857D01*
X58042142Y-59520000D02*
X58113571Y-59662857D01*
X58113571Y-60020000D01*
X58042142Y-60162857D01*
X57899285Y-60234285D01*
X57756428Y-60234285D01*
X57613571Y-60162857D01*
X57542142Y-60020000D01*
X57542142Y-59662857D01*
X57470714Y-59520000D01*
X58113571Y-58805714D02*
X56613571Y-58805714D01*
X57542142Y-58662857D02*
X58113571Y-58234285D01*
X57113571Y-58234285D02*
X57685000Y-58805714D01*
X58113571Y-57377142D02*
X58042142Y-57520000D01*
X57970714Y-57591428D01*
X57827857Y-57662857D01*
X57399285Y-57662857D01*
X57256428Y-57591428D01*
X57185000Y-57520000D01*
X57113571Y-57377142D01*
X57113571Y-57162857D01*
X57185000Y-57020000D01*
X57256428Y-56948571D01*
X57399285Y-56877142D01*
X57827857Y-56877142D01*
X57970714Y-56948571D01*
X58042142Y-57020000D01*
X58113571Y-57162857D01*
X58113571Y-57377142D01*
X57113571Y-55591428D02*
X58113571Y-55591428D01*
X57113571Y-56234285D02*
X57899285Y-56234285D01*
X58042142Y-56162857D01*
X58113571Y-56020000D01*
X58113571Y-55805714D01*
X58042142Y-55662857D01*
X57970714Y-55591428D01*
X57113571Y-55091428D02*
X57113571Y-54520000D01*
X56613571Y-54877142D02*
X57899285Y-54877142D01*
X58042142Y-54805714D01*
X58113571Y-54662857D01*
X58113571Y-54520000D01*
X60528571Y-73805714D02*
X59814285Y-74305714D01*
X60528571Y-74662857D02*
X59028571Y-74662857D01*
X59028571Y-74091428D01*
X59100000Y-73948571D01*
X59171428Y-73877142D01*
X59314285Y-73805714D01*
X59528571Y-73805714D01*
X59671428Y-73877142D01*
X59742857Y-73948571D01*
X59814285Y-74091428D01*
X59814285Y-74662857D01*
X60457142Y-72591428D02*
X60528571Y-72734285D01*
X60528571Y-73020000D01*
X60457142Y-73162857D01*
X60314285Y-73234285D01*
X59742857Y-73234285D01*
X59600000Y-73162857D01*
X59528571Y-73020000D01*
X59528571Y-72734285D01*
X59600000Y-72591428D01*
X59742857Y-72520000D01*
X59885714Y-72520000D01*
X60028571Y-73234285D01*
X59528571Y-72020000D02*
X60528571Y-71662857D01*
X59528571Y-71305714D01*
X60528571Y-68805714D02*
X60528571Y-69662857D01*
X60528571Y-69234285D02*
X59028571Y-69234285D01*
X59242857Y-69377142D01*
X59385714Y-69520000D01*
X59457142Y-69662857D01*
X60385714Y-68162857D02*
X60457142Y-68091428D01*
X60528571Y-68162857D01*
X60457142Y-68234285D01*
X60385714Y-68162857D01*
X60528571Y-68162857D01*
X59028571Y-67162857D02*
X59028571Y-67020000D01*
X59100000Y-66877142D01*
X59171428Y-66805714D01*
X59314285Y-66734285D01*
X59600000Y-66662857D01*
X59957142Y-66662857D01*
X60242857Y-66734285D01*
X60385714Y-66805714D01*
X60457142Y-66877142D01*
X60528571Y-67020000D01*
X60528571Y-67162857D01*
X60457142Y-67305714D01*
X60385714Y-67377142D01*
X60242857Y-67448571D01*
X59957142Y-67520000D01*
X59600000Y-67520000D01*
X59314285Y-67448571D01*
X59171428Y-67377142D01*
X59100000Y-67305714D01*
X59028571Y-67162857D01*
X59171428Y-64948571D02*
X59100000Y-64877142D01*
X59028571Y-64734285D01*
X59028571Y-64377142D01*
X59100000Y-64234285D01*
X59171428Y-64162857D01*
X59314285Y-64091428D01*
X59457142Y-64091428D01*
X59671428Y-64162857D01*
X60528571Y-65020000D01*
X60528571Y-64091428D01*
X59028571Y-63162857D02*
X59028571Y-63020000D01*
X59100000Y-62877142D01*
X59171428Y-62805714D01*
X59314285Y-62734285D01*
X59600000Y-62662857D01*
X59957142Y-62662857D01*
X60242857Y-62734285D01*
X60385714Y-62805714D01*
X60457142Y-62877142D01*
X60528571Y-63020000D01*
X60528571Y-63162857D01*
X60457142Y-63305714D01*
X60385714Y-63377142D01*
X60242857Y-63448571D01*
X59957142Y-63520000D01*
X59600000Y-63520000D01*
X59314285Y-63448571D01*
X59171428Y-63377142D01*
X59100000Y-63305714D01*
X59028571Y-63162857D01*
X59171428Y-62091428D02*
X59100000Y-62020000D01*
X59028571Y-61877142D01*
X59028571Y-61520000D01*
X59100000Y-61377142D01*
X59171428Y-61305714D01*
X59314285Y-61234285D01*
X59457142Y-61234285D01*
X59671428Y-61305714D01*
X60528571Y-62162857D01*
X60528571Y-61234285D01*
X59171428Y-60662857D02*
X59100000Y-60591428D01*
X59028571Y-60448571D01*
X59028571Y-60091428D01*
X59100000Y-59948571D01*
X59171428Y-59877142D01*
X59314285Y-59805714D01*
X59457142Y-59805714D01*
X59671428Y-59877142D01*
X60528571Y-60734285D01*
X60528571Y-59805714D01*
X62943571Y-74662857D02*
X61443571Y-74662857D01*
X61443571Y-74305714D01*
X61515000Y-74091428D01*
X61657857Y-73948571D01*
X61800714Y-73877142D01*
X62086428Y-73805714D01*
X62300714Y-73805714D01*
X62586428Y-73877142D01*
X62729285Y-73948571D01*
X62872142Y-74091428D01*
X62943571Y-74305714D01*
X62943571Y-74662857D01*
X62872142Y-72591428D02*
X62943571Y-72734285D01*
X62943571Y-73020000D01*
X62872142Y-73162857D01*
X62729285Y-73234285D01*
X62157857Y-73234285D01*
X62015000Y-73162857D01*
X61943571Y-73020000D01*
X61943571Y-72734285D01*
X62015000Y-72591428D01*
X62157857Y-72520000D01*
X62300714Y-72520000D01*
X62443571Y-73234285D01*
X62872142Y-71948571D02*
X62943571Y-71805714D01*
X62943571Y-71520000D01*
X62872142Y-71377142D01*
X62729285Y-71305714D01*
X62657857Y-71305714D01*
X62515000Y-71377142D01*
X62443571Y-71520000D01*
X62443571Y-71734285D01*
X62372142Y-71877142D01*
X62229285Y-71948571D01*
X62157857Y-71948571D01*
X62015000Y-71877142D01*
X61943571Y-71734285D01*
X61943571Y-71520000D01*
X62015000Y-71377142D01*
X62943571Y-70662857D02*
X61943571Y-70662857D01*
X61443571Y-70662857D02*
X61515000Y-70734285D01*
X61586428Y-70662857D01*
X61515000Y-70591428D01*
X61443571Y-70662857D01*
X61586428Y-70662857D01*
X61943571Y-69305714D02*
X63157857Y-69305714D01*
X63300714Y-69377142D01*
X63372142Y-69448571D01*
X63443571Y-69591428D01*
X63443571Y-69805714D01*
X63372142Y-69948571D01*
X62872142Y-69305714D02*
X62943571Y-69448571D01*
X62943571Y-69734285D01*
X62872142Y-69877142D01*
X62800714Y-69948571D01*
X62657857Y-70020000D01*
X62229285Y-70020000D01*
X62086428Y-69948571D01*
X62015000Y-69877142D01*
X61943571Y-69734285D01*
X61943571Y-69448571D01*
X62015000Y-69305714D01*
X61943571Y-68591428D02*
X62943571Y-68591428D01*
X62086428Y-68591428D02*
X62015000Y-68520000D01*
X61943571Y-68377142D01*
X61943571Y-68162857D01*
X62015000Y-68020000D01*
X62157857Y-67948571D01*
X62943571Y-67948571D01*
X62872142Y-66662857D02*
X62943571Y-66805714D01*
X62943571Y-67091428D01*
X62872142Y-67234285D01*
X62729285Y-67305714D01*
X62157857Y-67305714D01*
X62015000Y-67234285D01*
X61943571Y-67091428D01*
X61943571Y-66805714D01*
X62015000Y-66662857D01*
X62157857Y-66591428D01*
X62300714Y-66591428D01*
X62443571Y-67305714D01*
X62943571Y-65305714D02*
X61443571Y-65305714D01*
X62872142Y-65305714D02*
X62943571Y-65448571D01*
X62943571Y-65734285D01*
X62872142Y-65877142D01*
X62800714Y-65948571D01*
X62657857Y-66020000D01*
X62229285Y-66020000D01*
X62086428Y-65948571D01*
X62015000Y-65877142D01*
X61943571Y-65734285D01*
X61943571Y-65448571D01*
X62015000Y-65305714D01*
X62943571Y-63448571D02*
X61443571Y-63448571D01*
X62015000Y-63448571D02*
X61943571Y-63305714D01*
X61943571Y-63020000D01*
X62015000Y-62877142D01*
X62086428Y-62805714D01*
X62229285Y-62734285D01*
X62657857Y-62734285D01*
X62800714Y-62805714D01*
X62872142Y-62877142D01*
X62943571Y-63020000D01*
X62943571Y-63305714D01*
X62872142Y-63448571D01*
X61943571Y-62234285D02*
X62943571Y-61877142D01*
X61943571Y-61520000D02*
X62943571Y-61877142D01*
X63300714Y-62020000D01*
X63372142Y-62091428D01*
X63443571Y-62234285D01*
X61443571Y-60020000D02*
X61443571Y-59162857D01*
X62943571Y-59591428D02*
X61443571Y-59591428D01*
X62943571Y-58448571D02*
X62872142Y-58591428D01*
X62800714Y-58662857D01*
X62657857Y-58734285D01*
X62229285Y-58734285D01*
X62086428Y-58662857D01*
X62015000Y-58591428D01*
X61943571Y-58448571D01*
X61943571Y-58234285D01*
X62015000Y-58091428D01*
X62086428Y-58020000D01*
X62229285Y-57948571D01*
X62657857Y-57948571D01*
X62800714Y-58020000D01*
X62872142Y-58091428D01*
X62943571Y-58234285D01*
X62943571Y-58448571D01*
X62943571Y-57305714D02*
X61443571Y-57305714D01*
X62015000Y-57305714D02*
X61943571Y-57162857D01*
X61943571Y-56877142D01*
X62015000Y-56734285D01*
X62086428Y-56662857D01*
X62229285Y-56591428D01*
X62657857Y-56591428D01*
X62800714Y-56662857D01*
X62872142Y-56734285D01*
X62943571Y-56877142D01*
X62943571Y-57162857D01*
X62872142Y-57305714D01*
X62943571Y-55948571D02*
X61943571Y-55948571D01*
X61443571Y-55948571D02*
X61515000Y-56020000D01*
X61586428Y-55948571D01*
X61515000Y-55877142D01*
X61443571Y-55948571D01*
X61586428Y-55948571D01*
X62943571Y-54591428D02*
X62157857Y-54591428D01*
X62015000Y-54662857D01*
X61943571Y-54805714D01*
X61943571Y-55091428D01*
X62015000Y-55234285D01*
X62872142Y-54591428D02*
X62943571Y-54734285D01*
X62943571Y-55091428D01*
X62872142Y-55234285D01*
X62729285Y-55305714D01*
X62586428Y-55305714D01*
X62443571Y-55234285D01*
X62372142Y-55091428D01*
X62372142Y-54734285D01*
X62300714Y-54591428D01*
X62872142Y-53948571D02*
X62943571Y-53805714D01*
X62943571Y-53520000D01*
X62872142Y-53377142D01*
X62729285Y-53305714D01*
X62657857Y-53305714D01*
X62515000Y-53377142D01*
X62443571Y-53520000D01*
X62443571Y-53734285D01*
X62372142Y-53877142D01*
X62229285Y-53948571D01*
X62157857Y-53948571D01*
X62015000Y-53877142D01*
X61943571Y-53734285D01*
X61943571Y-53520000D01*
X62015000Y-53377142D01*
X62872142Y-51591428D02*
X62943571Y-51377142D01*
X62943571Y-51020000D01*
X62872142Y-50877142D01*
X62800714Y-50805714D01*
X62657857Y-50734285D01*
X62515000Y-50734285D01*
X62372142Y-50805714D01*
X62300714Y-50877142D01*
X62229285Y-51020000D01*
X62157857Y-51305714D01*
X62086428Y-51448571D01*
X62015000Y-51520000D01*
X61872142Y-51591428D01*
X61729285Y-51591428D01*
X61586428Y-51520000D01*
X61515000Y-51448571D01*
X61443571Y-51305714D01*
X61443571Y-50948571D01*
X61515000Y-50734285D01*
X62872142Y-49448571D02*
X62943571Y-49591428D01*
X62943571Y-49877142D01*
X62872142Y-50020000D01*
X62800714Y-50091428D01*
X62657857Y-50162857D01*
X62229285Y-50162857D01*
X62086428Y-50091428D01*
X62015000Y-50020000D01*
X61943571Y-49877142D01*
X61943571Y-49591428D01*
X62015000Y-49448571D01*
X62943571Y-48805714D02*
X61443571Y-48805714D01*
X62943571Y-48162857D02*
X62157857Y-48162857D01*
X62015000Y-48234285D01*
X61943571Y-48377142D01*
X61943571Y-48591428D01*
X62015000Y-48734285D01*
X62086428Y-48805714D01*
X62943571Y-47448571D02*
X61943571Y-47448571D01*
X62229285Y-47448571D02*
X62086428Y-47377142D01*
X62015000Y-47305714D01*
X61943571Y-47162857D01*
X61943571Y-47020000D01*
X62943571Y-45877142D02*
X62157857Y-45877142D01*
X62015000Y-45948571D01*
X61943571Y-46091428D01*
X61943571Y-46377142D01*
X62015000Y-46520000D01*
X62872142Y-45877142D02*
X62943571Y-46020000D01*
X62943571Y-46377142D01*
X62872142Y-46520000D01*
X62729285Y-46591428D01*
X62586428Y-46591428D01*
X62443571Y-46520000D01*
X62372142Y-46377142D01*
X62372142Y-46020000D01*
X62300714Y-45877142D01*
X62943571Y-45162857D02*
X61943571Y-45162857D01*
X62086428Y-45162857D02*
X62015000Y-45091428D01*
X61943571Y-44948571D01*
X61943571Y-44734285D01*
X62015000Y-44591428D01*
X62157857Y-44520000D01*
X62943571Y-44520000D01*
X62157857Y-44520000D02*
X62015000Y-44448571D01*
X61943571Y-44305714D01*
X61943571Y-44091428D01*
X62015000Y-43948571D01*
X62157857Y-43877142D01*
X62943571Y-43877142D01*
X62943571Y-43162857D02*
X61943571Y-43162857D01*
X62086428Y-43162857D02*
X62015000Y-43091428D01*
X61943571Y-42948571D01*
X61943571Y-42734285D01*
X62015000Y-42591428D01*
X62157857Y-42520000D01*
X62943571Y-42520000D01*
X62157857Y-42520000D02*
X62015000Y-42448571D01*
X61943571Y-42305714D01*
X61943571Y-42091428D01*
X62015000Y-41948571D01*
X62157857Y-41877142D01*
X62943571Y-41877142D01*
D10*
X66559523Y-94452380D02*
X67178571Y-94452380D01*
X66845238Y-94833333D01*
X66988095Y-94833333D01*
X67083333Y-94880952D01*
X67130952Y-94928571D01*
X67178571Y-95023809D01*
X67178571Y-95261904D01*
X67130952Y-95357142D01*
X67083333Y-95404761D01*
X66988095Y-95452380D01*
X66702380Y-95452380D01*
X66607142Y-95404761D01*
X66559523Y-95357142D01*
X67511904Y-94785714D02*
X67750000Y-95452380D01*
X67988095Y-94785714D01*
X68273809Y-94452380D02*
X68892857Y-94452380D01*
X68559523Y-94833333D01*
X68702380Y-94833333D01*
X68797619Y-94880952D01*
X68845238Y-94928571D01*
X68892857Y-95023809D01*
X68892857Y-95261904D01*
X68845238Y-95357142D01*
X68797619Y-95404761D01*
X68702380Y-95452380D01*
X68416666Y-95452380D01*
X68321428Y-95404761D01*
X68273809Y-95357142D01*
X55988095Y-94500000D02*
X55892857Y-94452380D01*
X55750000Y-94452380D01*
X55607142Y-94500000D01*
X55511904Y-94595238D01*
X55464285Y-94690476D01*
X55416666Y-94880952D01*
X55416666Y-95023809D01*
X55464285Y-95214285D01*
X55511904Y-95309523D01*
X55607142Y-95404761D01*
X55750000Y-95452380D01*
X55845238Y-95452380D01*
X55988095Y-95404761D01*
X56035714Y-95357142D01*
X56035714Y-95023809D01*
X55845238Y-95023809D01*
X56464285Y-95452380D02*
X56464285Y-94452380D01*
X57035714Y-95452380D01*
X57035714Y-94452380D01*
X57511904Y-95452380D02*
X57511904Y-94452380D01*
X57750000Y-94452380D01*
X57892857Y-94500000D01*
X57988095Y-94595238D01*
X58035714Y-94690476D01*
X58083333Y-94880952D01*
X58083333Y-95023809D01*
X58035714Y-95214285D01*
X57988095Y-95309523D01*
X57892857Y-95404761D01*
X57750000Y-95452380D01*
X57511904Y-95452380D01*
X63081010Y-94452380D02*
X63652438Y-94452380D01*
X63366724Y-95452380D02*
X63366724Y-94452380D01*
X63890534Y-94452380D02*
X64557200Y-95452380D01*
X64557200Y-94452380D02*
X63890534Y-95452380D01*
X60483333Y-95459465D02*
X60150000Y-94983275D01*
X59911904Y-95459465D02*
X59911904Y-94459465D01*
X60292857Y-94459465D01*
X60388095Y-94507085D01*
X60435714Y-94554704D01*
X60483333Y-94649942D01*
X60483333Y-94792799D01*
X60435714Y-94888037D01*
X60388095Y-94935656D01*
X60292857Y-94983275D01*
X59911904Y-94983275D01*
X60816666Y-94459465D02*
X61483333Y-95459465D01*
X61483333Y-94459465D02*
X60816666Y-95459465D01*
X52054761Y-95357142D02*
X52007142Y-95404761D01*
X51864285Y-95452380D01*
X51769047Y-95452380D01*
X51626190Y-95404761D01*
X51530952Y-95309523D01*
X51483333Y-95214285D01*
X51435714Y-95023809D01*
X51435714Y-94880952D01*
X51483333Y-94690476D01*
X51530952Y-94595238D01*
X51626190Y-94500000D01*
X51769047Y-94452380D01*
X51864285Y-94452380D01*
X52007142Y-94500000D01*
X52054761Y-94547619D01*
X52959523Y-95452380D02*
X52483333Y-95452380D01*
X52483333Y-94452380D01*
X53292857Y-95452380D02*
X53292857Y-94452380D01*
X53864285Y-95452380D02*
X53435714Y-94880952D01*
X53864285Y-94452380D02*
X53292857Y-95023809D01*
%TO.C,H10*%
X76823809Y-31285714D02*
X77204761Y-31285714D01*
X76966666Y-30952380D02*
X76966666Y-31809523D01*
X77014285Y-31904761D01*
X77109523Y-31952380D01*
X77204761Y-31952380D01*
X77680952Y-31952380D02*
X77585714Y-31904761D01*
X77538095Y-31857142D01*
X77490476Y-31761904D01*
X77490476Y-31476190D01*
X77538095Y-31380952D01*
X77585714Y-31333333D01*
X77680952Y-31285714D01*
X77823809Y-31285714D01*
X77919047Y-31333333D01*
X77966666Y-31380952D01*
X78014285Y-31476190D01*
X78014285Y-31761904D01*
X77966666Y-31857142D01*
X77919047Y-31904761D01*
X77823809Y-31952380D01*
X77680952Y-31952380D01*
X78585714Y-31952380D02*
X78490476Y-31904761D01*
X78442857Y-31857142D01*
X78395238Y-31761904D01*
X78395238Y-31476190D01*
X78442857Y-31380952D01*
X78490476Y-31333333D01*
X78585714Y-31285714D01*
X78728571Y-31285714D01*
X78823809Y-31333333D01*
X78871428Y-31380952D01*
X78919047Y-31476190D01*
X78919047Y-31761904D01*
X78871428Y-31857142D01*
X78823809Y-31904761D01*
X78728571Y-31952380D01*
X78585714Y-31952380D01*
X79490476Y-31952380D02*
X79395238Y-31904761D01*
X79347619Y-31809523D01*
X79347619Y-30952380D01*
X79871428Y-31952380D02*
X79871428Y-31285714D01*
X79871428Y-30952380D02*
X79823809Y-31000000D01*
X79871428Y-31047619D01*
X79919047Y-31000000D01*
X79871428Y-30952380D01*
X79871428Y-31047619D01*
X80347619Y-31285714D02*
X80347619Y-31952380D01*
X80347619Y-31380952D02*
X80395238Y-31333333D01*
X80490476Y-31285714D01*
X80633333Y-31285714D01*
X80728571Y-31333333D01*
X80776190Y-31428571D01*
X80776190Y-31952380D01*
X81680952Y-31285714D02*
X81680952Y-32095238D01*
X81633333Y-32190476D01*
X81585714Y-32238095D01*
X81490476Y-32285714D01*
X81347619Y-32285714D01*
X81252380Y-32238095D01*
X81680952Y-31904761D02*
X81585714Y-31952380D01*
X81395238Y-31952380D01*
X81300000Y-31904761D01*
X81252380Y-31857142D01*
X81204761Y-31761904D01*
X81204761Y-31476190D01*
X81252380Y-31380952D01*
X81300000Y-31333333D01*
X81395238Y-31285714D01*
X81585714Y-31285714D01*
X81680952Y-31333333D01*
X82919047Y-31952380D02*
X82919047Y-30952380D01*
X83347619Y-31952380D02*
X83347619Y-31428571D01*
X83300000Y-31333333D01*
X83204761Y-31285714D01*
X83061904Y-31285714D01*
X82966666Y-31333333D01*
X82919047Y-31380952D01*
X83966666Y-31952380D02*
X83871428Y-31904761D01*
X83823809Y-31857142D01*
X83776190Y-31761904D01*
X83776190Y-31476190D01*
X83823809Y-31380952D01*
X83871428Y-31333333D01*
X83966666Y-31285714D01*
X84109523Y-31285714D01*
X84204761Y-31333333D01*
X84252380Y-31380952D01*
X84300000Y-31476190D01*
X84300000Y-31761904D01*
X84252380Y-31857142D01*
X84204761Y-31904761D01*
X84109523Y-31952380D01*
X83966666Y-31952380D01*
X84871428Y-31952380D02*
X84776190Y-31904761D01*
X84728571Y-31809523D01*
X84728571Y-30952380D01*
X85633333Y-31904761D02*
X85538095Y-31952380D01*
X85347619Y-31952380D01*
X85252380Y-31904761D01*
X85204761Y-31809523D01*
X85204761Y-31428571D01*
X85252380Y-31333333D01*
X85347619Y-31285714D01*
X85538095Y-31285714D01*
X85633333Y-31333333D01*
X85680952Y-31428571D01*
X85680952Y-31523809D01*
X85204761Y-31619047D01*
%TO.C,H9*%
X34123809Y-86435714D02*
X34504761Y-86435714D01*
X34266666Y-86102380D02*
X34266666Y-86959523D01*
X34314285Y-87054761D01*
X34409523Y-87102380D01*
X34504761Y-87102380D01*
X34980952Y-87102380D02*
X34885714Y-87054761D01*
X34838095Y-87007142D01*
X34790476Y-86911904D01*
X34790476Y-86626190D01*
X34838095Y-86530952D01*
X34885714Y-86483333D01*
X34980952Y-86435714D01*
X35123809Y-86435714D01*
X35219047Y-86483333D01*
X35266666Y-86530952D01*
X35314285Y-86626190D01*
X35314285Y-86911904D01*
X35266666Y-87007142D01*
X35219047Y-87054761D01*
X35123809Y-87102380D01*
X34980952Y-87102380D01*
X35885714Y-87102380D02*
X35790476Y-87054761D01*
X35742857Y-87007142D01*
X35695238Y-86911904D01*
X35695238Y-86626190D01*
X35742857Y-86530952D01*
X35790476Y-86483333D01*
X35885714Y-86435714D01*
X36028571Y-86435714D01*
X36123809Y-86483333D01*
X36171428Y-86530952D01*
X36219047Y-86626190D01*
X36219047Y-86911904D01*
X36171428Y-87007142D01*
X36123809Y-87054761D01*
X36028571Y-87102380D01*
X35885714Y-87102380D01*
X36790476Y-87102380D02*
X36695238Y-87054761D01*
X36647619Y-86959523D01*
X36647619Y-86102380D01*
X37171428Y-87102380D02*
X37171428Y-86435714D01*
X37171428Y-86102380D02*
X37123809Y-86150000D01*
X37171428Y-86197619D01*
X37219047Y-86150000D01*
X37171428Y-86102380D01*
X37171428Y-86197619D01*
X37647619Y-86435714D02*
X37647619Y-87102380D01*
X37647619Y-86530952D02*
X37695238Y-86483333D01*
X37790476Y-86435714D01*
X37933333Y-86435714D01*
X38028571Y-86483333D01*
X38076190Y-86578571D01*
X38076190Y-87102380D01*
X38980952Y-86435714D02*
X38980952Y-87245238D01*
X38933333Y-87340476D01*
X38885714Y-87388095D01*
X38790476Y-87435714D01*
X38647619Y-87435714D01*
X38552380Y-87388095D01*
X38980952Y-87054761D02*
X38885714Y-87102380D01*
X38695238Y-87102380D01*
X38600000Y-87054761D01*
X38552380Y-87007142D01*
X38504761Y-86911904D01*
X38504761Y-86626190D01*
X38552380Y-86530952D01*
X38600000Y-86483333D01*
X38695238Y-86435714D01*
X38885714Y-86435714D01*
X38980952Y-86483333D01*
X40219047Y-87102380D02*
X40219047Y-86102380D01*
X40647619Y-87102380D02*
X40647619Y-86578571D01*
X40600000Y-86483333D01*
X40504761Y-86435714D01*
X40361904Y-86435714D01*
X40266666Y-86483333D01*
X40219047Y-86530952D01*
X41266666Y-87102380D02*
X41171428Y-87054761D01*
X41123809Y-87007142D01*
X41076190Y-86911904D01*
X41076190Y-86626190D01*
X41123809Y-86530952D01*
X41171428Y-86483333D01*
X41266666Y-86435714D01*
X41409523Y-86435714D01*
X41504761Y-86483333D01*
X41552380Y-86530952D01*
X41600000Y-86626190D01*
X41600000Y-86911904D01*
X41552380Y-87007142D01*
X41504761Y-87054761D01*
X41409523Y-87102380D01*
X41266666Y-87102380D01*
X42171428Y-87102380D02*
X42076190Y-87054761D01*
X42028571Y-86959523D01*
X42028571Y-86102380D01*
X42933333Y-87054761D02*
X42838095Y-87102380D01*
X42647619Y-87102380D01*
X42552380Y-87054761D01*
X42504761Y-86959523D01*
X42504761Y-86578571D01*
X42552380Y-86483333D01*
X42647619Y-86435714D01*
X42838095Y-86435714D01*
X42933333Y-86483333D01*
X42980952Y-86578571D01*
X42980952Y-86673809D01*
X42504761Y-86769047D01*
D12*
%TO.C,R1*%
X55156359Y-80330000D02*
X55463641Y-80330000D01*
X55156359Y-81090000D02*
X55463641Y-81090000D01*
%TO.C,C10*%
X57042164Y-81060000D02*
X57257836Y-81060000D01*
X57042164Y-80340000D02*
X57257836Y-80340000D01*
%TO.C,C9*%
X56762163Y-34860000D02*
X56977835Y-34860000D01*
X56762163Y-34140000D02*
X56977835Y-34140000D01*
%TO.C,C8*%
X65610000Y-31662164D02*
X65610000Y-31877836D01*
X64890000Y-31662164D02*
X64890000Y-31877836D01*
%TO.C,TP2*%
X57950000Y-99200000D02*
X55550000Y-99200000D01*
X55550000Y-99200000D02*
X55550000Y-96800000D01*
X55550000Y-96800000D02*
X57950000Y-96800000D01*
X57950000Y-96800000D02*
X57950000Y-99200000D01*
%TO.C,TP1*%
X68950000Y-99200000D02*
X66550000Y-99200000D01*
X66550000Y-99200000D02*
X66550000Y-96800000D01*
X66550000Y-96800000D02*
X68950000Y-96800000D01*
X68950000Y-96800000D02*
X68950000Y-99200000D01*
%TO.C,J1*%
X72050000Y-91400000D02*
X73250000Y-91400000D01*
X75250000Y-88300000D02*
X75250000Y-82000000D01*
X54850000Y-82000000D02*
X57650000Y-82000000D01*
X54450000Y-91400000D02*
X57250000Y-91400000D01*
X44850000Y-82000000D02*
X44850000Y-88300000D01*
X46850000Y-91400000D02*
X47650000Y-91400000D01*
X48050000Y-82000000D02*
X44850000Y-82000000D01*
X72450000Y-82000000D02*
X75250000Y-82000000D01*
%TO.C,U1*%
X64100000Y-35110000D02*
X58090000Y-35110000D01*
X61850000Y-28290000D02*
X58090000Y-28290000D01*
X58090000Y-28290000D02*
X58090000Y-29550000D01*
X58090000Y-35110000D02*
X58090000Y-33850000D01*
%TO.C,C7*%
X50507836Y-80340000D02*
X50292164Y-80340000D01*
X50507836Y-81060000D02*
X50292164Y-81060000D01*
%TO.C,C6*%
X62457836Y-80340000D02*
X62242164Y-80340000D01*
X62457836Y-81060000D02*
X62242164Y-81060000D01*
%TO.C,C5*%
X48442164Y-81060000D02*
X48657836Y-81060000D01*
X48442164Y-80340000D02*
X48657836Y-80340000D01*
%TO.C,C4*%
X67342164Y-93510000D02*
X67557836Y-93510000D01*
X67342164Y-92790000D02*
X67557836Y-92790000D01*
%TO.C,C3*%
X72057836Y-81060000D02*
X71842164Y-81060000D01*
X72057836Y-80340000D02*
X71842164Y-80340000D01*
%TO.C,C2*%
X70042164Y-81060000D02*
X70257836Y-81060000D01*
X70042164Y-80340000D02*
X70257836Y-80340000D01*
%TO.C,C1*%
X60442164Y-81060000D02*
X60657836Y-81060000D01*
X60442164Y-80340000D02*
X60657836Y-80340000D01*
%TD*%
M02*
