%TF.GenerationSoftware,KiCad,Pcbnew,(6.0.2)*%
%TF.CreationDate,2022-02-24T00:22:57+01:00*%
%TF.ProjectId,mini-pcie-breakout,6d696e69-2d70-4636-9965-2d627265616b,rev?*%
%TF.SameCoordinates,Original*%
%TF.FileFunction,Copper,L2,Inr*%
%TF.FilePolarity,Positive*%
%FSLAX46Y46*%
G04 Gerber Fmt 4.6, Leading zero omitted, Abs format (unit mm)*
G04 Created by KiCad (PCBNEW (6.0.2)) date 2022-02-24 00:22:57*
%MOMM*%
%LPD*%
G01*
G04 APERTURE LIST*
%TA.AperFunction,ComponentPad*%
%ADD10C,6.500000*%
%TD*%
%TA.AperFunction,ViaPad*%
%ADD11C,0.450000*%
%TD*%
G04 APERTURE END LIST*
D10*
%TO.N,GND*%
%TO.C,H4*%
X48000000Y-62800000D03*
%TD*%
%TO.N,GND*%
%TO.C,H3*%
X72100000Y-62800000D03*
%TD*%
%TO.N,GND*%
%TO.C,H2*%
X47950000Y-38650000D03*
%TD*%
%TO.N,GND*%
%TO.C,H1*%
X72150000Y-38650000D03*
%TD*%
D11*
%TO.N,GND*%
X58300000Y-80650000D03*
%TO.N,+3V3*%
X54150000Y-80700000D03*
%TO.N,+1V5*%
X56099999Y-31700000D03*
X57599999Y-31700000D03*
X56100000Y-32650000D03*
X57600000Y-32650000D03*
X56100000Y-30750000D03*
X57600000Y-30750000D03*
X56100000Y-33350000D03*
X57600000Y-33350000D03*
X57600000Y-30050000D03*
X56100000Y-30050000D03*
%TO.N,+3V3*%
X63150000Y-29400000D03*
X63900000Y-29900000D03*
X62400000Y-28900000D03*
%TO.N,GND*%
X63150000Y-34000000D03*
X63900000Y-34500000D03*
X62400000Y-33500000D03*
X46950000Y-90200000D03*
X45400000Y-92200000D03*
X45400000Y-88200000D03*
X74700000Y-92200000D03*
X73150000Y-90200000D03*
X74700000Y-88200000D03*
X53850000Y-89400000D03*
X51450000Y-89400000D03*
%TO.N,+3V3*%
X72400000Y-79950000D03*
%TO.N,GND*%
X71500000Y-79950000D03*
X70600000Y-79950000D03*
%TO.N,+1V5*%
X69700000Y-79950000D03*
X62800000Y-79950000D03*
%TO.N,GND*%
X61900000Y-79950000D03*
X61000000Y-79950000D03*
%TO.N,+3V3*%
X60100000Y-79950000D03*
%TO.N,GND*%
X49900000Y-79950000D03*
X49050000Y-79950000D03*
%TO.N,+1V5*%
X50900000Y-79950000D03*
%TO.N,+3V3*%
X48050000Y-79950000D03*
X66650000Y-93750000D03*
X67250000Y-93750000D03*
%TO.N,GND*%
X49450000Y-84000000D03*
X58250000Y-84000000D03*
X71050000Y-84000000D03*
X67050000Y-84000000D03*
X64650000Y-84000000D03*
X61450000Y-84000000D03*
X68250000Y-89400000D03*
X65850000Y-89400000D03*
X65050000Y-89400000D03*
X62650000Y-89400000D03*
X61850000Y-89400000D03*
X59450000Y-89400000D03*
%TO.N,+3V3*%
X68400000Y-96200000D03*
X67100000Y-96200000D03*
X67750000Y-96200000D03*
X67450000Y-96700000D03*
X68100000Y-96700000D03*
%TO.N,GND*%
X56450000Y-96750000D03*
X57100000Y-96750000D03*
X57400000Y-96250000D03*
X56100000Y-96250000D03*
X56750000Y-96250000D03*
%TD*%
%TA.AperFunction,Conductor*%
%TO.N,GND*%
G36*
X61637450Y-29020002D02*
G01*
X61683943Y-29073658D01*
X61688887Y-29086229D01*
X61729932Y-29209615D01*
X61733581Y-29215640D01*
X61803160Y-29330527D01*
X61815179Y-29350373D01*
X61820070Y-29355438D01*
X61820071Y-29355439D01*
X61886561Y-29424291D01*
X61929491Y-29468747D01*
X62067189Y-29558854D01*
X62221428Y-29616215D01*
X62228409Y-29617146D01*
X62228411Y-29617147D01*
X62383185Y-29637798D01*
X62448062Y-29666634D01*
X62479312Y-29707751D01*
X62479932Y-29709615D01*
X62483579Y-29715636D01*
X62483579Y-29715637D01*
X62500433Y-29743465D01*
X62565179Y-29850373D01*
X62679491Y-29968747D01*
X62817189Y-30058854D01*
X62971428Y-30116215D01*
X62978409Y-30117146D01*
X62978411Y-30117147D01*
X63133185Y-30137798D01*
X63198062Y-30166634D01*
X63229312Y-30207751D01*
X63229932Y-30209615D01*
X63233579Y-30215636D01*
X63233579Y-30215637D01*
X63244439Y-30233568D01*
X63315179Y-30350373D01*
X63429491Y-30468747D01*
X63567189Y-30558854D01*
X63721428Y-30616215D01*
X63728409Y-30617146D01*
X63728411Y-30617147D01*
X63877561Y-30637048D01*
X63877565Y-30637048D01*
X63884542Y-30637979D01*
X63891553Y-30637341D01*
X63891557Y-30637341D01*
X64041403Y-30623704D01*
X64041404Y-30623704D01*
X64048424Y-30623065D01*
X64139523Y-30593465D01*
X64198230Y-30574390D01*
X64198233Y-30574389D01*
X64204929Y-30572213D01*
X64346279Y-30487951D01*
X64465449Y-30374468D01*
X64469350Y-30368597D01*
X64552614Y-30243275D01*
X64552615Y-30243273D01*
X64556515Y-30237403D01*
X64614951Y-30083568D01*
X64637853Y-29920610D01*
X64638141Y-29900000D01*
X64619798Y-29736466D01*
X64615835Y-29725084D01*
X64568583Y-29589396D01*
X64565680Y-29581060D01*
X64478476Y-29441505D01*
X64371444Y-29333723D01*
X64367486Y-29329737D01*
X64367482Y-29329734D01*
X64362522Y-29324739D01*
X64226109Y-29238168D01*
X64226108Y-29238167D01*
X64223580Y-29236563D01*
X64223862Y-29236119D01*
X64174836Y-29191407D01*
X64156570Y-29122801D01*
X64178295Y-29055210D01*
X64233114Y-29010094D01*
X64282529Y-29000000D01*
X69874000Y-29000000D01*
X69942121Y-29020002D01*
X69988614Y-29073658D01*
X70000000Y-29126000D01*
X70000000Y-31047461D01*
X69979998Y-31115582D01*
X69926342Y-31162075D01*
X69856068Y-31172179D01*
X69791488Y-31142685D01*
X69759299Y-31099612D01*
X69743855Y-31065644D01*
X69694426Y-30956931D01*
X69574695Y-30788142D01*
X69570372Y-30784004D01*
X69570368Y-30783999D01*
X69429538Y-30649184D01*
X69425208Y-30645039D01*
X69382011Y-30617147D01*
X69256394Y-30536037D01*
X69256391Y-30536036D01*
X69251357Y-30532785D01*
X69059416Y-30455430D01*
X69053535Y-30454282D01*
X69053530Y-30454280D01*
X68860756Y-30416634D01*
X68860753Y-30416634D01*
X68856310Y-30415766D01*
X68850871Y-30415500D01*
X68698296Y-30415500D01*
X68543993Y-30430222D01*
X68538239Y-30431910D01*
X68351173Y-30486789D01*
X68351171Y-30486790D01*
X68345420Y-30488477D01*
X68340087Y-30491223D01*
X68340086Y-30491224D01*
X68166775Y-30580484D01*
X68166772Y-30580486D01*
X68161444Y-30583230D01*
X67998706Y-30711063D01*
X67863076Y-30867363D01*
X67759448Y-31046490D01*
X67691562Y-31241981D01*
X67690702Y-31247914D01*
X67690701Y-31247917D01*
X67662729Y-31440841D01*
X67661868Y-31446781D01*
X67671436Y-31653502D01*
X67672840Y-31659327D01*
X67672840Y-31659328D01*
X67717939Y-31846459D01*
X67719921Y-31854685D01*
X67722403Y-31860143D01*
X67722404Y-31860147D01*
X67745973Y-31911984D01*
X67805574Y-32043069D01*
X67881690Y-32150373D01*
X67910868Y-32191505D01*
X67925305Y-32211858D01*
X67929628Y-32215996D01*
X67929632Y-32216001D01*
X68070462Y-32350816D01*
X68074792Y-32354961D01*
X68079827Y-32358212D01*
X68243606Y-32463963D01*
X68243609Y-32463964D01*
X68248643Y-32467215D01*
X68254206Y-32469457D01*
X68313777Y-32493465D01*
X68440584Y-32544570D01*
X68446465Y-32545718D01*
X68446470Y-32545720D01*
X68639244Y-32583366D01*
X68639247Y-32583366D01*
X68643690Y-32584234D01*
X68649129Y-32584500D01*
X68801704Y-32584500D01*
X68956007Y-32569778D01*
X68961761Y-32568090D01*
X69148827Y-32513211D01*
X69148829Y-32513210D01*
X69154580Y-32511523D01*
X69203232Y-32486466D01*
X69333225Y-32419516D01*
X69333228Y-32419514D01*
X69338556Y-32416770D01*
X69501294Y-32288937D01*
X69636924Y-32132637D01*
X69740552Y-31953510D01*
X69742520Y-31947842D01*
X69742523Y-31947836D01*
X69754973Y-31911984D01*
X69796214Y-31854195D01*
X69862153Y-31827876D01*
X69931852Y-31841384D01*
X69983184Y-31890431D01*
X70000000Y-31953318D01*
X70000000Y-34500000D01*
X75374000Y-34500000D01*
X75442121Y-34520002D01*
X75488614Y-34573658D01*
X75500000Y-34626000D01*
X75500000Y-36479594D01*
X75479998Y-36547715D01*
X75426342Y-36594208D01*
X75356068Y-36604312D01*
X75291488Y-36574818D01*
X75267029Y-36546177D01*
X75241522Y-36505197D01*
X75237894Y-36499978D01*
X75008966Y-36203779D01*
X75004805Y-36198924D01*
X74995599Y-36189223D01*
X74981863Y-36181248D01*
X74980905Y-36181292D01*
X74972957Y-36186254D01*
X72522020Y-38637190D01*
X72514408Y-38651131D01*
X72514539Y-38652966D01*
X72518790Y-38659580D01*
X74971150Y-41111939D01*
X74985094Y-41119553D01*
X74986286Y-41119468D01*
X74992277Y-41115536D01*
X75222803Y-40821535D01*
X75226487Y-40816312D01*
X75267497Y-40751440D01*
X75320804Y-40704548D01*
X75391001Y-40693920D01*
X75455800Y-40722931D01*
X75494628Y-40782369D01*
X75500000Y-40818768D01*
X75500000Y-60709922D01*
X75479998Y-60778043D01*
X75426342Y-60824536D01*
X75356068Y-60834640D01*
X75291488Y-60805146D01*
X75267030Y-60776505D01*
X75191531Y-60655211D01*
X75187894Y-60649978D01*
X74958966Y-60353779D01*
X74954805Y-60348924D01*
X74945599Y-60339223D01*
X74931863Y-60331248D01*
X74930905Y-60331292D01*
X74922957Y-60336254D01*
X72472020Y-62787190D01*
X72464408Y-62801131D01*
X72464539Y-62802966D01*
X72468790Y-62809580D01*
X74921150Y-65261939D01*
X74935094Y-65269553D01*
X74936286Y-65269468D01*
X74942277Y-65265536D01*
X75172803Y-64971535D01*
X75176487Y-64966312D01*
X75267497Y-64822348D01*
X75320804Y-64775456D01*
X75391001Y-64764828D01*
X75455800Y-64793839D01*
X75494628Y-64853277D01*
X75500000Y-64889676D01*
X75500000Y-92874000D01*
X75479998Y-92942121D01*
X75426342Y-92988614D01*
X75374000Y-93000000D01*
X70000000Y-93000000D01*
X70000000Y-98374000D01*
X69979998Y-98442121D01*
X69926342Y-98488614D01*
X69874000Y-98500000D01*
X50126000Y-98500000D01*
X50057879Y-98479998D01*
X50011386Y-98426342D01*
X50000000Y-98374000D01*
X50000000Y-96189694D01*
X66361931Y-96189694D01*
X66377989Y-96353468D01*
X66429932Y-96509615D01*
X66515179Y-96650373D01*
X66629491Y-96768747D01*
X66635384Y-96772603D01*
X66682657Y-96803538D01*
X66728705Y-96857576D01*
X66733221Y-96869198D01*
X66770441Y-96981085D01*
X66779932Y-97009615D01*
X66865179Y-97150373D01*
X66979491Y-97268747D01*
X67117189Y-97358854D01*
X67271428Y-97416215D01*
X67278409Y-97417146D01*
X67278411Y-97417147D01*
X67427561Y-97437048D01*
X67427565Y-97437048D01*
X67434542Y-97437979D01*
X67441553Y-97437341D01*
X67441557Y-97437341D01*
X67591403Y-97423704D01*
X67591404Y-97423704D01*
X67598424Y-97423065D01*
X67738913Y-97377417D01*
X67809879Y-97375389D01*
X67821765Y-97379151D01*
X67921428Y-97416215D01*
X67928409Y-97417146D01*
X67928411Y-97417147D01*
X68077561Y-97437048D01*
X68077565Y-97437048D01*
X68084542Y-97437979D01*
X68091553Y-97437341D01*
X68091557Y-97437341D01*
X68241403Y-97423704D01*
X68241404Y-97423704D01*
X68248424Y-97423065D01*
X68277062Y-97413760D01*
X68398230Y-97374390D01*
X68398233Y-97374389D01*
X68404929Y-97372213D01*
X68546279Y-97287951D01*
X68665449Y-97174468D01*
X68681458Y-97150373D01*
X68752614Y-97043275D01*
X68752615Y-97043273D01*
X68756515Y-97037403D01*
X68814951Y-96883568D01*
X68815931Y-96876597D01*
X68815932Y-96876592D01*
X68819518Y-96851072D01*
X68848806Y-96786398D01*
X68857400Y-96777361D01*
X68960346Y-96679327D01*
X68965449Y-96674468D01*
X68981458Y-96650373D01*
X69052614Y-96543275D01*
X69052615Y-96543273D01*
X69056515Y-96537403D01*
X69114951Y-96383568D01*
X69137853Y-96220610D01*
X69138141Y-96200000D01*
X69119798Y-96036466D01*
X69113998Y-96019809D01*
X69067998Y-95887717D01*
X69065680Y-95881060D01*
X68978476Y-95741505D01*
X68920499Y-95683122D01*
X68867486Y-95629737D01*
X68867482Y-95629734D01*
X68862522Y-95624739D01*
X68723580Y-95536563D01*
X68674447Y-95519068D01*
X68575189Y-95483723D01*
X68575187Y-95483722D01*
X68568555Y-95481361D01*
X68561569Y-95480528D01*
X68561565Y-95480527D01*
X68447071Y-95466875D01*
X68405153Y-95461877D01*
X68398150Y-95462613D01*
X68398149Y-95462613D01*
X68354935Y-95467155D01*
X68241495Y-95479078D01*
X68234824Y-95481349D01*
X68114653Y-95522258D01*
X68043721Y-95525276D01*
X68031781Y-95521679D01*
X67925190Y-95483723D01*
X67925185Y-95483722D01*
X67918555Y-95481361D01*
X67911569Y-95480528D01*
X67911565Y-95480527D01*
X67797071Y-95466875D01*
X67755153Y-95461877D01*
X67748150Y-95462613D01*
X67748149Y-95462613D01*
X67704935Y-95467155D01*
X67591495Y-95479078D01*
X67584824Y-95481349D01*
X67464653Y-95522258D01*
X67393721Y-95525276D01*
X67381781Y-95521679D01*
X67275190Y-95483723D01*
X67275185Y-95483722D01*
X67268555Y-95481361D01*
X67261569Y-95480528D01*
X67261565Y-95480527D01*
X67147071Y-95466875D01*
X67105153Y-95461877D01*
X67098150Y-95462613D01*
X67098149Y-95462613D01*
X67054935Y-95467155D01*
X66941495Y-95479078D01*
X66934827Y-95481348D01*
X66792382Y-95529840D01*
X66792379Y-95529841D01*
X66785715Y-95532110D01*
X66645555Y-95618337D01*
X66527982Y-95733473D01*
X66438838Y-95871797D01*
X66436427Y-95878420D01*
X66436426Y-95878423D01*
X66384966Y-96019809D01*
X66384965Y-96019814D01*
X66382556Y-96026432D01*
X66361931Y-96189694D01*
X50000000Y-96189694D01*
X50000000Y-93739694D01*
X65911931Y-93739694D01*
X65927989Y-93903468D01*
X65979932Y-94059615D01*
X66065179Y-94200373D01*
X66179491Y-94318747D01*
X66317189Y-94408854D01*
X66471428Y-94466215D01*
X66478409Y-94467146D01*
X66478411Y-94467147D01*
X66627561Y-94487048D01*
X66627565Y-94487048D01*
X66634542Y-94487979D01*
X66641553Y-94487341D01*
X66641557Y-94487341D01*
X66791406Y-94473704D01*
X66791409Y-94473703D01*
X66798424Y-94473065D01*
X66912229Y-94436087D01*
X66983196Y-94434059D01*
X66995083Y-94437822D01*
X67071428Y-94466215D01*
X67078413Y-94467147D01*
X67227561Y-94487048D01*
X67227565Y-94487048D01*
X67234542Y-94487979D01*
X67241553Y-94487341D01*
X67241557Y-94487341D01*
X67391403Y-94473704D01*
X67391404Y-94473704D01*
X67398424Y-94473065D01*
X67512230Y-94436087D01*
X67548230Y-94424390D01*
X67548233Y-94424389D01*
X67554929Y-94422213D01*
X67696279Y-94337951D01*
X67815449Y-94224468D01*
X67831458Y-94200373D01*
X67902614Y-94093275D01*
X67902615Y-94093273D01*
X67906515Y-94087403D01*
X67964951Y-93933568D01*
X67987853Y-93770610D01*
X67988141Y-93750000D01*
X67969798Y-93586466D01*
X67963998Y-93569809D01*
X67917998Y-93437717D01*
X67915680Y-93431060D01*
X67828476Y-93291505D01*
X67770499Y-93233122D01*
X67717486Y-93179737D01*
X67717482Y-93179734D01*
X67712522Y-93174739D01*
X67573580Y-93086563D01*
X67524447Y-93069068D01*
X67425189Y-93033723D01*
X67425187Y-93033722D01*
X67418555Y-93031361D01*
X67411569Y-93030528D01*
X67411565Y-93030527D01*
X67297071Y-93016875D01*
X67255153Y-93011877D01*
X67248150Y-93012613D01*
X67248149Y-93012613D01*
X67098503Y-93028341D01*
X67098499Y-93028342D01*
X67091495Y-93029078D01*
X67084824Y-93031349D01*
X66990216Y-93063556D01*
X66919284Y-93066574D01*
X66907345Y-93062977D01*
X66825193Y-93033724D01*
X66825188Y-93033723D01*
X66818555Y-93031361D01*
X66811569Y-93030528D01*
X66811565Y-93030527D01*
X66697071Y-93016875D01*
X66655153Y-93011877D01*
X66648150Y-93012613D01*
X66648149Y-93012613D01*
X66604935Y-93017155D01*
X66491495Y-93029078D01*
X66484827Y-93031348D01*
X66342382Y-93079840D01*
X66342379Y-93079841D01*
X66335715Y-93082110D01*
X66195555Y-93168337D01*
X66077982Y-93283473D01*
X65988838Y-93421797D01*
X65986427Y-93428420D01*
X65986426Y-93428423D01*
X65934966Y-93569809D01*
X65934965Y-93569814D01*
X65932556Y-93576432D01*
X65911931Y-93739694D01*
X50000000Y-93739694D01*
X50000000Y-93000000D01*
X44626000Y-93000000D01*
X44557879Y-92979998D01*
X44511386Y-92926342D01*
X44500000Y-92874000D01*
X44500000Y-86700000D01*
X46236502Y-86700000D01*
X46256457Y-86928087D01*
X46257881Y-86933400D01*
X46257881Y-86933402D01*
X46307235Y-87117590D01*
X46315716Y-87149243D01*
X46318039Y-87154224D01*
X46318039Y-87154225D01*
X46410151Y-87351762D01*
X46410154Y-87351767D01*
X46412477Y-87356749D01*
X46543802Y-87544300D01*
X46705700Y-87706198D01*
X46710208Y-87709355D01*
X46710211Y-87709357D01*
X46779966Y-87758200D01*
X46893251Y-87837523D01*
X46898233Y-87839846D01*
X46898238Y-87839849D01*
X47095775Y-87931961D01*
X47100757Y-87934284D01*
X47106065Y-87935706D01*
X47106067Y-87935707D01*
X47316598Y-87992119D01*
X47316600Y-87992119D01*
X47321913Y-87993543D01*
X47421480Y-88002254D01*
X47490149Y-88008262D01*
X47490156Y-88008262D01*
X47492873Y-88008500D01*
X47607127Y-88008500D01*
X47609844Y-88008262D01*
X47609851Y-88008262D01*
X47678520Y-88002254D01*
X47778087Y-87993543D01*
X47783400Y-87992119D01*
X47783402Y-87992119D01*
X47993933Y-87935707D01*
X47993935Y-87935706D01*
X47999243Y-87934284D01*
X48004225Y-87931961D01*
X48201762Y-87839849D01*
X48201767Y-87839846D01*
X48206749Y-87837523D01*
X48320034Y-87758200D01*
X48389789Y-87709357D01*
X48389792Y-87709355D01*
X48394300Y-87706198D01*
X48556198Y-87544300D01*
X48687523Y-87356749D01*
X48689846Y-87351767D01*
X48689849Y-87351762D01*
X48781961Y-87154225D01*
X48781961Y-87154224D01*
X48784284Y-87149243D01*
X48792766Y-87117590D01*
X48830172Y-86977987D01*
X48867124Y-86917364D01*
X48930984Y-86886343D01*
X49001479Y-86894771D01*
X49056226Y-86939974D01*
X49074371Y-86981075D01*
X49078654Y-86998846D01*
X49078657Y-86998854D01*
X49080062Y-87004685D01*
X49165715Y-87193069D01*
X49285446Y-87361858D01*
X49289769Y-87365996D01*
X49289773Y-87366001D01*
X49382445Y-87454715D01*
X49434933Y-87504961D01*
X49439968Y-87508212D01*
X49603747Y-87613963D01*
X49603750Y-87613964D01*
X49608784Y-87617215D01*
X49800725Y-87694570D01*
X49806606Y-87695718D01*
X49806611Y-87695720D01*
X49999385Y-87733366D01*
X49999388Y-87733366D01*
X50003831Y-87734234D01*
X50009270Y-87734500D01*
X50161845Y-87734500D01*
X50316148Y-87719778D01*
X50375722Y-87702301D01*
X50508968Y-87663211D01*
X50508970Y-87663210D01*
X50514721Y-87661523D01*
X50596398Y-87619457D01*
X50693366Y-87569516D01*
X50693369Y-87569514D01*
X50698697Y-87566770D01*
X50861435Y-87438937D01*
X50997065Y-87282637D01*
X51100693Y-87103510D01*
X51168579Y-86908019D01*
X51198273Y-86703219D01*
X51197780Y-86692575D01*
X71486404Y-86692575D01*
X71487913Y-86709159D01*
X71504039Y-86886343D01*
X71505218Y-86899303D01*
X71506956Y-86905209D01*
X71506957Y-86905213D01*
X71537841Y-87010147D01*
X71563827Y-87098440D01*
X71659999Y-87282400D01*
X71790071Y-87444177D01*
X71794788Y-87448135D01*
X71794790Y-87448137D01*
X71866385Y-87508212D01*
X71949089Y-87577609D01*
X71954481Y-87580573D01*
X71954485Y-87580576D01*
X72096731Y-87658776D01*
X72130995Y-87677613D01*
X72328861Y-87740379D01*
X72334978Y-87741065D01*
X72334982Y-87741066D01*
X72411598Y-87749659D01*
X72490413Y-87758500D01*
X72602237Y-87758500D01*
X72605293Y-87758200D01*
X72605300Y-87758200D01*
X72750466Y-87743966D01*
X72750469Y-87743965D01*
X72756592Y-87743365D01*
X72925638Y-87692328D01*
X72949407Y-87685152D01*
X72949410Y-87685151D01*
X72955315Y-87683368D01*
X72962635Y-87679476D01*
X73133153Y-87588809D01*
X73133155Y-87588808D01*
X73138599Y-87585913D01*
X73237856Y-87504961D01*
X73294689Y-87458610D01*
X73294692Y-87458607D01*
X73299464Y-87454715D01*
X73431783Y-87294770D01*
X73435876Y-87287201D01*
X73527584Y-87117590D01*
X73527586Y-87117585D01*
X73530514Y-87112170D01*
X73591898Y-86913871D01*
X73593429Y-86899303D01*
X73612952Y-86713554D01*
X73612952Y-86713552D01*
X73613596Y-86707425D01*
X73605777Y-86621515D01*
X73595341Y-86506836D01*
X73595340Y-86506833D01*
X73594782Y-86500697D01*
X73592298Y-86492255D01*
X73537912Y-86307469D01*
X73536173Y-86301560D01*
X73440001Y-86117600D01*
X73309929Y-85955823D01*
X73297371Y-85945285D01*
X73155629Y-85826350D01*
X73150911Y-85822391D01*
X73145519Y-85819427D01*
X73145515Y-85819424D01*
X72974402Y-85725354D01*
X72969005Y-85722387D01*
X72771139Y-85659621D01*
X72765022Y-85658935D01*
X72765018Y-85658934D01*
X72688402Y-85650341D01*
X72609587Y-85641500D01*
X72497763Y-85641500D01*
X72494707Y-85641800D01*
X72494700Y-85641800D01*
X72349534Y-85656034D01*
X72349531Y-85656035D01*
X72343408Y-85656635D01*
X72230766Y-85690643D01*
X72150593Y-85714848D01*
X72150590Y-85714849D01*
X72144685Y-85716632D01*
X72139240Y-85719527D01*
X72139238Y-85719528D01*
X71966847Y-85811191D01*
X71966845Y-85811192D01*
X71961401Y-85814087D01*
X71946365Y-85826350D01*
X71805311Y-85941390D01*
X71805308Y-85941393D01*
X71800536Y-85945285D01*
X71668217Y-86105230D01*
X71665288Y-86110647D01*
X71665286Y-86110650D01*
X71572416Y-86282410D01*
X71572414Y-86282415D01*
X71569486Y-86287830D01*
X71508102Y-86486129D01*
X71507458Y-86492254D01*
X71507458Y-86492255D01*
X71505926Y-86506836D01*
X71486404Y-86692575D01*
X51197780Y-86692575D01*
X51188705Y-86496498D01*
X51140220Y-86295315D01*
X51134353Y-86282410D01*
X51057047Y-86112386D01*
X51054567Y-86106931D01*
X50934836Y-85938142D01*
X50930513Y-85934004D01*
X50930509Y-85933999D01*
X50789679Y-85799184D01*
X50785349Y-85795039D01*
X50672831Y-85722387D01*
X50616535Y-85686037D01*
X50616532Y-85686036D01*
X50611498Y-85682785D01*
X50419557Y-85605430D01*
X50413676Y-85604282D01*
X50413671Y-85604280D01*
X50220897Y-85566634D01*
X50220894Y-85566634D01*
X50216451Y-85565766D01*
X50211012Y-85565500D01*
X50058437Y-85565500D01*
X49904134Y-85580222D01*
X49898380Y-85581910D01*
X49711314Y-85636789D01*
X49711312Y-85636790D01*
X49705561Y-85638477D01*
X49700228Y-85641223D01*
X49700227Y-85641224D01*
X49526916Y-85730484D01*
X49526913Y-85730486D01*
X49521585Y-85733230D01*
X49358847Y-85861063D01*
X49223217Y-86017363D01*
X49119589Y-86196490D01*
X49087871Y-86287830D01*
X49056682Y-86377644D01*
X49015440Y-86435434D01*
X48949502Y-86461753D01*
X48879802Y-86448245D01*
X48828470Y-86399199D01*
X48815948Y-86368923D01*
X48785710Y-86256075D01*
X48785706Y-86256064D01*
X48784284Y-86250757D01*
X48756556Y-86191294D01*
X48689849Y-86048238D01*
X48689846Y-86048233D01*
X48687523Y-86043251D01*
X48563126Y-85865594D01*
X48559357Y-85860211D01*
X48559355Y-85860208D01*
X48556198Y-85855700D01*
X48394300Y-85693802D01*
X48389792Y-85690645D01*
X48389789Y-85690643D01*
X48268092Y-85605430D01*
X48206749Y-85562477D01*
X48201767Y-85560154D01*
X48201762Y-85560151D01*
X48004225Y-85468039D01*
X48004224Y-85468039D01*
X47999243Y-85465716D01*
X47993935Y-85464294D01*
X47993933Y-85464293D01*
X47783402Y-85407881D01*
X47783400Y-85407881D01*
X47778087Y-85406457D01*
X47678520Y-85397746D01*
X47609851Y-85391738D01*
X47609844Y-85391738D01*
X47607127Y-85391500D01*
X47492873Y-85391500D01*
X47490156Y-85391738D01*
X47490149Y-85391738D01*
X47421480Y-85397746D01*
X47321913Y-85406457D01*
X47316600Y-85407881D01*
X47316598Y-85407881D01*
X47106067Y-85464293D01*
X47106065Y-85464294D01*
X47100757Y-85465716D01*
X47095776Y-85468039D01*
X47095775Y-85468039D01*
X46898238Y-85560151D01*
X46898233Y-85560154D01*
X46893251Y-85562477D01*
X46831908Y-85605430D01*
X46710211Y-85690643D01*
X46710208Y-85690645D01*
X46705700Y-85693802D01*
X46543802Y-85855700D01*
X46540645Y-85860208D01*
X46540643Y-85860211D01*
X46536874Y-85865594D01*
X46412477Y-86043251D01*
X46410154Y-86048233D01*
X46410151Y-86048238D01*
X46343444Y-86191294D01*
X46315716Y-86250757D01*
X46314294Y-86256065D01*
X46314293Y-86256067D01*
X46262799Y-86448245D01*
X46256457Y-86471913D01*
X46236502Y-86700000D01*
X44500000Y-86700000D01*
X44500000Y-80689694D01*
X53411931Y-80689694D01*
X53427989Y-80853468D01*
X53479932Y-81009615D01*
X53565179Y-81150373D01*
X53679491Y-81268747D01*
X53817189Y-81358854D01*
X53971428Y-81416215D01*
X53978409Y-81417146D01*
X53978411Y-81417147D01*
X54127561Y-81437048D01*
X54127565Y-81437048D01*
X54134542Y-81437979D01*
X54141553Y-81437341D01*
X54141557Y-81437341D01*
X54291403Y-81423704D01*
X54291404Y-81423704D01*
X54298424Y-81423065D01*
X54327062Y-81413760D01*
X54448230Y-81374390D01*
X54448233Y-81374389D01*
X54454929Y-81372213D01*
X54596279Y-81287951D01*
X54715449Y-81174468D01*
X54731458Y-81150373D01*
X54802614Y-81043275D01*
X54802615Y-81043273D01*
X54806515Y-81037403D01*
X54864951Y-80883568D01*
X54887853Y-80720610D01*
X54888141Y-80700000D01*
X54869798Y-80536466D01*
X54863998Y-80519809D01*
X54828752Y-80418597D01*
X54815680Y-80381060D01*
X54753039Y-80280813D01*
X54732209Y-80247479D01*
X54728476Y-80241505D01*
X54621290Y-80133568D01*
X54617486Y-80129737D01*
X54617482Y-80129734D01*
X54612522Y-80124739D01*
X54473580Y-80036563D01*
X54424447Y-80019068D01*
X54325189Y-79983723D01*
X54325187Y-79983722D01*
X54318555Y-79981361D01*
X54311569Y-79980528D01*
X54311565Y-79980527D01*
X54195173Y-79966649D01*
X54155153Y-79961877D01*
X54148150Y-79962613D01*
X54148149Y-79962613D01*
X54109750Y-79966649D01*
X53991495Y-79979078D01*
X53984827Y-79981348D01*
X53842382Y-80029840D01*
X53842379Y-80029841D01*
X53835715Y-80032110D01*
X53695555Y-80118337D01*
X53577982Y-80233473D01*
X53488838Y-80371797D01*
X53486427Y-80378420D01*
X53486426Y-80378423D01*
X53434966Y-80519809D01*
X53434965Y-80519814D01*
X53432556Y-80526432D01*
X53411931Y-80689694D01*
X44500000Y-80689694D01*
X44500000Y-79939694D01*
X47311931Y-79939694D01*
X47327989Y-80103468D01*
X47379932Y-80259615D01*
X47383581Y-80265640D01*
X47453483Y-80381060D01*
X47465179Y-80400373D01*
X47579491Y-80518747D01*
X47717189Y-80608854D01*
X47871428Y-80666215D01*
X47878409Y-80667146D01*
X47878411Y-80667147D01*
X48027561Y-80687048D01*
X48027565Y-80687048D01*
X48034542Y-80687979D01*
X48041553Y-80687341D01*
X48041557Y-80687341D01*
X48191403Y-80673704D01*
X48191404Y-80673704D01*
X48198424Y-80673065D01*
X48227062Y-80663760D01*
X48348230Y-80624390D01*
X48348233Y-80624389D01*
X48354929Y-80622213D01*
X48496279Y-80537951D01*
X48615449Y-80424468D01*
X48631458Y-80400373D01*
X48702614Y-80293275D01*
X48702615Y-80293273D01*
X48706515Y-80287403D01*
X48764951Y-80133568D01*
X48778691Y-80035801D01*
X48787302Y-79974534D01*
X48787303Y-79974527D01*
X48787853Y-79970610D01*
X48788141Y-79950000D01*
X48786985Y-79939694D01*
X50161931Y-79939694D01*
X50177989Y-80103468D01*
X50229932Y-80259615D01*
X50233581Y-80265640D01*
X50303483Y-80381060D01*
X50315179Y-80400373D01*
X50429491Y-80518747D01*
X50567189Y-80608854D01*
X50721428Y-80666215D01*
X50728409Y-80667146D01*
X50728411Y-80667147D01*
X50877561Y-80687048D01*
X50877565Y-80687048D01*
X50884542Y-80687979D01*
X50891553Y-80687341D01*
X50891557Y-80687341D01*
X51041403Y-80673704D01*
X51041404Y-80673704D01*
X51048424Y-80673065D01*
X51077062Y-80663760D01*
X51198230Y-80624390D01*
X51198233Y-80624389D01*
X51204929Y-80622213D01*
X51346279Y-80537951D01*
X51465449Y-80424468D01*
X51481458Y-80400373D01*
X51552614Y-80293275D01*
X51552615Y-80293273D01*
X51556515Y-80287403D01*
X51614951Y-80133568D01*
X51628691Y-80035801D01*
X51637302Y-79974534D01*
X51637303Y-79974527D01*
X51637853Y-79970610D01*
X51638141Y-79950000D01*
X51636985Y-79939694D01*
X59361931Y-79939694D01*
X59377989Y-80103468D01*
X59429932Y-80259615D01*
X59433581Y-80265640D01*
X59503483Y-80381060D01*
X59515179Y-80400373D01*
X59629491Y-80518747D01*
X59767189Y-80608854D01*
X59921428Y-80666215D01*
X59928409Y-80667146D01*
X59928411Y-80667147D01*
X60077561Y-80687048D01*
X60077565Y-80687048D01*
X60084542Y-80687979D01*
X60091553Y-80687341D01*
X60091557Y-80687341D01*
X60241403Y-80673704D01*
X60241404Y-80673704D01*
X60248424Y-80673065D01*
X60277062Y-80663760D01*
X60398230Y-80624390D01*
X60398233Y-80624389D01*
X60404929Y-80622213D01*
X60546279Y-80537951D01*
X60665449Y-80424468D01*
X60681458Y-80400373D01*
X60752614Y-80293275D01*
X60752615Y-80293273D01*
X60756515Y-80287403D01*
X60814951Y-80133568D01*
X60828691Y-80035801D01*
X60837302Y-79974534D01*
X60837303Y-79974527D01*
X60837853Y-79970610D01*
X60838141Y-79950000D01*
X60836985Y-79939694D01*
X62061931Y-79939694D01*
X62077989Y-80103468D01*
X62129932Y-80259615D01*
X62133581Y-80265640D01*
X62203483Y-80381060D01*
X62215179Y-80400373D01*
X62329491Y-80518747D01*
X62467189Y-80608854D01*
X62621428Y-80666215D01*
X62628409Y-80667146D01*
X62628411Y-80667147D01*
X62777561Y-80687048D01*
X62777565Y-80687048D01*
X62784542Y-80687979D01*
X62791553Y-80687341D01*
X62791557Y-80687341D01*
X62941403Y-80673704D01*
X62941404Y-80673704D01*
X62948424Y-80673065D01*
X62977062Y-80663760D01*
X63098230Y-80624390D01*
X63098233Y-80624389D01*
X63104929Y-80622213D01*
X63246279Y-80537951D01*
X63365449Y-80424468D01*
X63381458Y-80400373D01*
X63452614Y-80293275D01*
X63452615Y-80293273D01*
X63456515Y-80287403D01*
X63514951Y-80133568D01*
X63528691Y-80035801D01*
X63537302Y-79974534D01*
X63537303Y-79974527D01*
X63537853Y-79970610D01*
X63538141Y-79950000D01*
X63536985Y-79939694D01*
X68961931Y-79939694D01*
X68977989Y-80103468D01*
X69029932Y-80259615D01*
X69033581Y-80265640D01*
X69103483Y-80381060D01*
X69115179Y-80400373D01*
X69229491Y-80518747D01*
X69367189Y-80608854D01*
X69521428Y-80666215D01*
X69528409Y-80667146D01*
X69528411Y-80667147D01*
X69677561Y-80687048D01*
X69677565Y-80687048D01*
X69684542Y-80687979D01*
X69691553Y-80687341D01*
X69691557Y-80687341D01*
X69841403Y-80673704D01*
X69841404Y-80673704D01*
X69848424Y-80673065D01*
X69877062Y-80663760D01*
X69998230Y-80624390D01*
X69998233Y-80624389D01*
X70004929Y-80622213D01*
X70146279Y-80537951D01*
X70265449Y-80424468D01*
X70281458Y-80400373D01*
X70352614Y-80293275D01*
X70352615Y-80293273D01*
X70356515Y-80287403D01*
X70414951Y-80133568D01*
X70428691Y-80035801D01*
X70437302Y-79974534D01*
X70437303Y-79974527D01*
X70437853Y-79970610D01*
X70438141Y-79950000D01*
X70436985Y-79939694D01*
X71661931Y-79939694D01*
X71677989Y-80103468D01*
X71729932Y-80259615D01*
X71733581Y-80265640D01*
X71803483Y-80381060D01*
X71815179Y-80400373D01*
X71929491Y-80518747D01*
X72067189Y-80608854D01*
X72221428Y-80666215D01*
X72228409Y-80667146D01*
X72228411Y-80667147D01*
X72377561Y-80687048D01*
X72377565Y-80687048D01*
X72384542Y-80687979D01*
X72391553Y-80687341D01*
X72391557Y-80687341D01*
X72541403Y-80673704D01*
X72541404Y-80673704D01*
X72548424Y-80673065D01*
X72577062Y-80663760D01*
X72698230Y-80624390D01*
X72698233Y-80624389D01*
X72704929Y-80622213D01*
X72846279Y-80537951D01*
X72965449Y-80424468D01*
X72981458Y-80400373D01*
X73052614Y-80293275D01*
X73052615Y-80293273D01*
X73056515Y-80287403D01*
X73114951Y-80133568D01*
X73128691Y-80035801D01*
X73137302Y-79974534D01*
X73137303Y-79974527D01*
X73137853Y-79970610D01*
X73138141Y-79950000D01*
X73119798Y-79786466D01*
X73113998Y-79769809D01*
X73067998Y-79637717D01*
X73065680Y-79631060D01*
X72978476Y-79491505D01*
X72920499Y-79433122D01*
X72867486Y-79379737D01*
X72867482Y-79379734D01*
X72862522Y-79374739D01*
X72723580Y-79286563D01*
X72674447Y-79269068D01*
X72575189Y-79233723D01*
X72575187Y-79233722D01*
X72568555Y-79231361D01*
X72561569Y-79230528D01*
X72561565Y-79230527D01*
X72447071Y-79216875D01*
X72405153Y-79211877D01*
X72398150Y-79212613D01*
X72398149Y-79212613D01*
X72354935Y-79217155D01*
X72241495Y-79229078D01*
X72234827Y-79231348D01*
X72092382Y-79279840D01*
X72092379Y-79279841D01*
X72085715Y-79282110D01*
X71945555Y-79368337D01*
X71827982Y-79483473D01*
X71738838Y-79621797D01*
X71736427Y-79628420D01*
X71736426Y-79628423D01*
X71684966Y-79769809D01*
X71684965Y-79769814D01*
X71682556Y-79776432D01*
X71661931Y-79939694D01*
X70436985Y-79939694D01*
X70419798Y-79786466D01*
X70413998Y-79769809D01*
X70367998Y-79637717D01*
X70365680Y-79631060D01*
X70278476Y-79491505D01*
X70220499Y-79433122D01*
X70167486Y-79379737D01*
X70167482Y-79379734D01*
X70162522Y-79374739D01*
X70023580Y-79286563D01*
X69974447Y-79269068D01*
X69875189Y-79233723D01*
X69875187Y-79233722D01*
X69868555Y-79231361D01*
X69861569Y-79230528D01*
X69861565Y-79230527D01*
X69747071Y-79216875D01*
X69705153Y-79211877D01*
X69698150Y-79212613D01*
X69698149Y-79212613D01*
X69654935Y-79217155D01*
X69541495Y-79229078D01*
X69534827Y-79231348D01*
X69392382Y-79279840D01*
X69392379Y-79279841D01*
X69385715Y-79282110D01*
X69245555Y-79368337D01*
X69127982Y-79483473D01*
X69038838Y-79621797D01*
X69036427Y-79628420D01*
X69036426Y-79628423D01*
X68984966Y-79769809D01*
X68984965Y-79769814D01*
X68982556Y-79776432D01*
X68961931Y-79939694D01*
X63536985Y-79939694D01*
X63519798Y-79786466D01*
X63513998Y-79769809D01*
X63467998Y-79637717D01*
X63465680Y-79631060D01*
X63378476Y-79491505D01*
X63320499Y-79433122D01*
X63267486Y-79379737D01*
X63267482Y-79379734D01*
X63262522Y-79374739D01*
X63123580Y-79286563D01*
X63074447Y-79269068D01*
X62975189Y-79233723D01*
X62975187Y-79233722D01*
X62968555Y-79231361D01*
X62961569Y-79230528D01*
X62961565Y-79230527D01*
X62847071Y-79216875D01*
X62805153Y-79211877D01*
X62798150Y-79212613D01*
X62798149Y-79212613D01*
X62754935Y-79217155D01*
X62641495Y-79229078D01*
X62634827Y-79231348D01*
X62492382Y-79279840D01*
X62492379Y-79279841D01*
X62485715Y-79282110D01*
X62345555Y-79368337D01*
X62227982Y-79483473D01*
X62138838Y-79621797D01*
X62136427Y-79628420D01*
X62136426Y-79628423D01*
X62084966Y-79769809D01*
X62084965Y-79769814D01*
X62082556Y-79776432D01*
X62061931Y-79939694D01*
X60836985Y-79939694D01*
X60819798Y-79786466D01*
X60813998Y-79769809D01*
X60767998Y-79637717D01*
X60765680Y-79631060D01*
X60678476Y-79491505D01*
X60620499Y-79433122D01*
X60567486Y-79379737D01*
X60567482Y-79379734D01*
X60562522Y-79374739D01*
X60423580Y-79286563D01*
X60374447Y-79269068D01*
X60275189Y-79233723D01*
X60275187Y-79233722D01*
X60268555Y-79231361D01*
X60261569Y-79230528D01*
X60261565Y-79230527D01*
X60147071Y-79216875D01*
X60105153Y-79211877D01*
X60098150Y-79212613D01*
X60098149Y-79212613D01*
X60054935Y-79217155D01*
X59941495Y-79229078D01*
X59934827Y-79231348D01*
X59792382Y-79279840D01*
X59792379Y-79279841D01*
X59785715Y-79282110D01*
X59645555Y-79368337D01*
X59527982Y-79483473D01*
X59438838Y-79621797D01*
X59436427Y-79628420D01*
X59436426Y-79628423D01*
X59384966Y-79769809D01*
X59384965Y-79769814D01*
X59382556Y-79776432D01*
X59361931Y-79939694D01*
X51636985Y-79939694D01*
X51619798Y-79786466D01*
X51613998Y-79769809D01*
X51567998Y-79637717D01*
X51565680Y-79631060D01*
X51478476Y-79491505D01*
X51420499Y-79433122D01*
X51367486Y-79379737D01*
X51367482Y-79379734D01*
X51362522Y-79374739D01*
X51223580Y-79286563D01*
X51174447Y-79269068D01*
X51075189Y-79233723D01*
X51075187Y-79233722D01*
X51068555Y-79231361D01*
X51061569Y-79230528D01*
X51061565Y-79230527D01*
X50947071Y-79216875D01*
X50905153Y-79211877D01*
X50898150Y-79212613D01*
X50898149Y-79212613D01*
X50854935Y-79217155D01*
X50741495Y-79229078D01*
X50734827Y-79231348D01*
X50592382Y-79279840D01*
X50592379Y-79279841D01*
X50585715Y-79282110D01*
X50445555Y-79368337D01*
X50327982Y-79483473D01*
X50238838Y-79621797D01*
X50236427Y-79628420D01*
X50236426Y-79628423D01*
X50184966Y-79769809D01*
X50184965Y-79769814D01*
X50182556Y-79776432D01*
X50161931Y-79939694D01*
X48786985Y-79939694D01*
X48769798Y-79786466D01*
X48763998Y-79769809D01*
X48717998Y-79637717D01*
X48715680Y-79631060D01*
X48628476Y-79491505D01*
X48570499Y-79433122D01*
X48517486Y-79379737D01*
X48517482Y-79379734D01*
X48512522Y-79374739D01*
X48373580Y-79286563D01*
X48324447Y-79269068D01*
X48225189Y-79233723D01*
X48225187Y-79233722D01*
X48218555Y-79231361D01*
X48211569Y-79230528D01*
X48211565Y-79230527D01*
X48097071Y-79216875D01*
X48055153Y-79211877D01*
X48048150Y-79212613D01*
X48048149Y-79212613D01*
X48004935Y-79217155D01*
X47891495Y-79229078D01*
X47884827Y-79231348D01*
X47742382Y-79279840D01*
X47742379Y-79279841D01*
X47735715Y-79282110D01*
X47595555Y-79368337D01*
X47477982Y-79483473D01*
X47388838Y-79621797D01*
X47386427Y-79628420D01*
X47386426Y-79628423D01*
X47334966Y-79769809D01*
X47334965Y-79769814D01*
X47332556Y-79776432D01*
X47311931Y-79939694D01*
X44500000Y-79939694D01*
X44500000Y-65631709D01*
X45533701Y-65631709D01*
X45540312Y-65641228D01*
X45680965Y-65763067D01*
X45685973Y-65766980D01*
X45992275Y-65982252D01*
X45997652Y-65985638D01*
X46324138Y-66168854D01*
X46329831Y-66171680D01*
X46673153Y-66320960D01*
X46679127Y-66323205D01*
X47035757Y-66437021D01*
X47041925Y-66438650D01*
X47408245Y-66515846D01*
X47414529Y-66516841D01*
X47786784Y-66556624D01*
X47793146Y-66556980D01*
X48167509Y-66558939D01*
X48173859Y-66558651D01*
X48546502Y-66522771D01*
X48552827Y-66521836D01*
X48919921Y-66448483D01*
X48926094Y-66446921D01*
X49283922Y-66336840D01*
X49289898Y-66334665D01*
X49634757Y-66188990D01*
X49640499Y-66186214D01*
X49968882Y-66006430D01*
X49974293Y-66003101D01*
X50282827Y-65791051D01*
X50287880Y-65787188D01*
X50458094Y-65642836D01*
X50465413Y-65631709D01*
X69633701Y-65631709D01*
X69640312Y-65641228D01*
X69780965Y-65763067D01*
X69785973Y-65766980D01*
X70092275Y-65982252D01*
X70097652Y-65985638D01*
X70424138Y-66168854D01*
X70429831Y-66171680D01*
X70773153Y-66320960D01*
X70779127Y-66323205D01*
X71135757Y-66437021D01*
X71141925Y-66438650D01*
X71508245Y-66515846D01*
X71514529Y-66516841D01*
X71886784Y-66556624D01*
X71893146Y-66556980D01*
X72267509Y-66558939D01*
X72273859Y-66558651D01*
X72646502Y-66522771D01*
X72652827Y-66521836D01*
X73019921Y-66448483D01*
X73026094Y-66446921D01*
X73383922Y-66336840D01*
X73389898Y-66334665D01*
X73734757Y-66188990D01*
X73740499Y-66186214D01*
X74068882Y-66006430D01*
X74074293Y-66003101D01*
X74382827Y-65791051D01*
X74387880Y-65787188D01*
X74558094Y-65642836D01*
X74566529Y-65630013D01*
X74560476Y-65619687D01*
X72112810Y-63172020D01*
X72098869Y-63164408D01*
X72097034Y-63164539D01*
X72090420Y-63168790D01*
X69641159Y-65618052D01*
X69633701Y-65631709D01*
X50465413Y-65631709D01*
X50466529Y-65630013D01*
X50460476Y-65619687D01*
X48012810Y-63172020D01*
X47998869Y-63164408D01*
X47997034Y-63164539D01*
X47990420Y-63168790D01*
X45541159Y-65618052D01*
X45533701Y-65631709D01*
X44500000Y-65631709D01*
X44500000Y-64728504D01*
X44520002Y-64660383D01*
X44573658Y-64613890D01*
X44643932Y-64603786D01*
X44708512Y-64633280D01*
X44733202Y-64662295D01*
X44900997Y-64933978D01*
X44904617Y-64939227D01*
X45132520Y-65236236D01*
X45136652Y-65241090D01*
X45154816Y-65260365D01*
X45168525Y-65268387D01*
X45169365Y-65268352D01*
X45177489Y-65263300D01*
X47627980Y-62812810D01*
X47634357Y-62801131D01*
X48364408Y-62801131D01*
X48364539Y-62802966D01*
X48368790Y-62809580D01*
X50821150Y-65261939D01*
X50835094Y-65269553D01*
X50836286Y-65269468D01*
X50842277Y-65265536D01*
X51072803Y-64971535D01*
X51076487Y-64966312D01*
X51276520Y-64649890D01*
X51279654Y-64644330D01*
X51446697Y-64309293D01*
X51449242Y-64303467D01*
X51581577Y-63953254D01*
X51583520Y-63947202D01*
X51679782Y-63585421D01*
X51681108Y-63579186D01*
X51740316Y-63209534D01*
X51741005Y-63203197D01*
X51762640Y-62827964D01*
X51762744Y-62824568D01*
X51762824Y-62801696D01*
X51762745Y-62798316D01*
X51762326Y-62790046D01*
X68337343Y-62790046D01*
X68354977Y-63163996D01*
X68355600Y-63170347D01*
X68410936Y-63540603D01*
X68412192Y-63546835D01*
X68504663Y-63909612D01*
X68506545Y-63915690D01*
X68635203Y-64267266D01*
X68637689Y-64273121D01*
X68801214Y-64609889D01*
X68804280Y-64615466D01*
X69001002Y-64933986D01*
X69004617Y-64939227D01*
X69232520Y-65236236D01*
X69236652Y-65241090D01*
X69254816Y-65260365D01*
X69268525Y-65268387D01*
X69269365Y-65268352D01*
X69277489Y-65263300D01*
X71727980Y-62812810D01*
X71735592Y-62798869D01*
X71735461Y-62797034D01*
X71731210Y-62790420D01*
X69279283Y-60338494D01*
X69265339Y-60330880D01*
X69264265Y-60330956D01*
X69256613Y-60335997D01*
X69253761Y-60338982D01*
X69249599Y-60343803D01*
X69019629Y-60639212D01*
X69015971Y-60644437D01*
X68817040Y-60961562D01*
X68813929Y-60967128D01*
X68648058Y-61302742D01*
X68645530Y-61308582D01*
X68514424Y-61659244D01*
X68512496Y-61665320D01*
X68417496Y-62027437D01*
X68416195Y-62033665D01*
X68358275Y-62403536D01*
X68357611Y-62409848D01*
X68337365Y-62783690D01*
X68337343Y-62790046D01*
X51762326Y-62790046D01*
X51743728Y-62422915D01*
X51743085Y-62416595D01*
X51686459Y-62046538D01*
X51685176Y-62040289D01*
X51591441Y-61677840D01*
X51589539Y-61671772D01*
X51459659Y-61320661D01*
X51457141Y-61314789D01*
X51292456Y-60978624D01*
X51289351Y-60973022D01*
X51091531Y-60655211D01*
X51087894Y-60649978D01*
X50858966Y-60353779D01*
X50854805Y-60348924D01*
X50845599Y-60339223D01*
X50831863Y-60331248D01*
X50830905Y-60331292D01*
X50822957Y-60336254D01*
X48372020Y-62787190D01*
X48364408Y-62801131D01*
X47634357Y-62801131D01*
X47635592Y-62798869D01*
X47635461Y-62797034D01*
X47631210Y-62790420D01*
X45179283Y-60338494D01*
X45165339Y-60330880D01*
X45164265Y-60330956D01*
X45156613Y-60335997D01*
X45153761Y-60338982D01*
X45149599Y-60343803D01*
X44919629Y-60639212D01*
X44915971Y-60644437D01*
X44732737Y-60936538D01*
X44679594Y-60983616D01*
X44609435Y-60994488D01*
X44544535Y-60965704D01*
X44505500Y-60906402D01*
X44500000Y-60869582D01*
X44500000Y-59970144D01*
X45533555Y-59970144D01*
X45539563Y-59980352D01*
X47987190Y-62427980D01*
X48001131Y-62435592D01*
X48002966Y-62435461D01*
X48009580Y-62431210D01*
X50458894Y-59981895D01*
X50465311Y-59970144D01*
X69633555Y-59970144D01*
X69639563Y-59980352D01*
X72087190Y-62427980D01*
X72101131Y-62435592D01*
X72102966Y-62435461D01*
X72109580Y-62431210D01*
X74558894Y-59981895D01*
X74566319Y-59968299D01*
X74559618Y-59958686D01*
X74408680Y-59828858D01*
X74403651Y-59824958D01*
X74096609Y-59610762D01*
X74091211Y-59607389D01*
X73764096Y-59425319D01*
X73758386Y-59422509D01*
X73414551Y-59274430D01*
X73408569Y-59272206D01*
X73051545Y-59159637D01*
X73045363Y-59158027D01*
X72678785Y-59082112D01*
X72672491Y-59081138D01*
X72300087Y-59042653D01*
X72293755Y-59042321D01*
X71919364Y-59041668D01*
X71913024Y-59041978D01*
X71540497Y-59079161D01*
X71534204Y-59080113D01*
X71167347Y-59154750D01*
X71161174Y-59156335D01*
X70803750Y-59267661D01*
X70797762Y-59269864D01*
X70453422Y-59416738D01*
X70447691Y-59419533D01*
X70119949Y-59600456D01*
X70114529Y-59603817D01*
X69806751Y-59816932D01*
X69801704Y-59820819D01*
X69641983Y-59957234D01*
X69633555Y-59970144D01*
X50465311Y-59970144D01*
X50466319Y-59968299D01*
X50459618Y-59958686D01*
X50308680Y-59828858D01*
X50303651Y-59824958D01*
X49996609Y-59610762D01*
X49991211Y-59607389D01*
X49664096Y-59425319D01*
X49658386Y-59422509D01*
X49314551Y-59274430D01*
X49308569Y-59272206D01*
X48951545Y-59159637D01*
X48945363Y-59158027D01*
X48578785Y-59082112D01*
X48572491Y-59081138D01*
X48200087Y-59042653D01*
X48193755Y-59042321D01*
X47819364Y-59041668D01*
X47813024Y-59041978D01*
X47440497Y-59079161D01*
X47434204Y-59080113D01*
X47067347Y-59154750D01*
X47061174Y-59156335D01*
X46703750Y-59267661D01*
X46697762Y-59269864D01*
X46353422Y-59416738D01*
X46347691Y-59419533D01*
X46019949Y-59600456D01*
X46014529Y-59603817D01*
X45706751Y-59816932D01*
X45701704Y-59820819D01*
X45541983Y-59957234D01*
X45533555Y-59970144D01*
X44500000Y-59970144D01*
X44500000Y-41481709D01*
X45483701Y-41481709D01*
X45490312Y-41491228D01*
X45630965Y-41613067D01*
X45635973Y-41616980D01*
X45942275Y-41832252D01*
X45947652Y-41835638D01*
X46274138Y-42018854D01*
X46279831Y-42021680D01*
X46623153Y-42170960D01*
X46629127Y-42173205D01*
X46985757Y-42287021D01*
X46991925Y-42288650D01*
X47358245Y-42365846D01*
X47364529Y-42366841D01*
X47736784Y-42406624D01*
X47743146Y-42406980D01*
X48117509Y-42408939D01*
X48123859Y-42408651D01*
X48496502Y-42372771D01*
X48502827Y-42371836D01*
X48869921Y-42298483D01*
X48876094Y-42296921D01*
X49233922Y-42186840D01*
X49239898Y-42184665D01*
X49584757Y-42038990D01*
X49590499Y-42036214D01*
X49918882Y-41856430D01*
X49924293Y-41853101D01*
X50232827Y-41641051D01*
X50237880Y-41637188D01*
X50408094Y-41492836D01*
X50415413Y-41481709D01*
X69683701Y-41481709D01*
X69690312Y-41491228D01*
X69830965Y-41613067D01*
X69835973Y-41616980D01*
X70142275Y-41832252D01*
X70147652Y-41835638D01*
X70474138Y-42018854D01*
X70479831Y-42021680D01*
X70823153Y-42170960D01*
X70829127Y-42173205D01*
X71185757Y-42287021D01*
X71191925Y-42288650D01*
X71558245Y-42365846D01*
X71564529Y-42366841D01*
X71936784Y-42406624D01*
X71943146Y-42406980D01*
X72317509Y-42408939D01*
X72323859Y-42408651D01*
X72696502Y-42372771D01*
X72702827Y-42371836D01*
X73069921Y-42298483D01*
X73076094Y-42296921D01*
X73433922Y-42186840D01*
X73439898Y-42184665D01*
X73784757Y-42038990D01*
X73790499Y-42036214D01*
X74118882Y-41856430D01*
X74124293Y-41853101D01*
X74432827Y-41641051D01*
X74437880Y-41637188D01*
X74608094Y-41492836D01*
X74616529Y-41480013D01*
X74610476Y-41469687D01*
X72162810Y-39022020D01*
X72148869Y-39014408D01*
X72147034Y-39014539D01*
X72140420Y-39018790D01*
X69691159Y-41468052D01*
X69683701Y-41481709D01*
X50415413Y-41481709D01*
X50416529Y-41480013D01*
X50410476Y-41469687D01*
X47962810Y-39022020D01*
X47948869Y-39014408D01*
X47947034Y-39014539D01*
X47940420Y-39018790D01*
X45491159Y-41468052D01*
X45483701Y-41481709D01*
X44500000Y-41481709D01*
X44500000Y-40659461D01*
X44520002Y-40591340D01*
X44573658Y-40544847D01*
X44643932Y-40534743D01*
X44708512Y-40564237D01*
X44733202Y-40593252D01*
X44850997Y-40783978D01*
X44854617Y-40789227D01*
X45082520Y-41086236D01*
X45086652Y-41091090D01*
X45104816Y-41110365D01*
X45118525Y-41118387D01*
X45119365Y-41118352D01*
X45127489Y-41113300D01*
X47577980Y-38662810D01*
X47584357Y-38651131D01*
X48314408Y-38651131D01*
X48314539Y-38652966D01*
X48318790Y-38659580D01*
X50771150Y-41111939D01*
X50785094Y-41119553D01*
X50786286Y-41119468D01*
X50792277Y-41115536D01*
X51022803Y-40821535D01*
X51026487Y-40816312D01*
X51226520Y-40499890D01*
X51229654Y-40494330D01*
X51396697Y-40159293D01*
X51399242Y-40153467D01*
X51531577Y-39803254D01*
X51533520Y-39797202D01*
X51629782Y-39435421D01*
X51631108Y-39429186D01*
X51690316Y-39059534D01*
X51691005Y-39053197D01*
X51712640Y-38677964D01*
X51712744Y-38674568D01*
X51712824Y-38651696D01*
X51712745Y-38648316D01*
X51712326Y-38640046D01*
X68387343Y-38640046D01*
X68404977Y-39013996D01*
X68405600Y-39020347D01*
X68460936Y-39390603D01*
X68462192Y-39396835D01*
X68554663Y-39759612D01*
X68556545Y-39765690D01*
X68685203Y-40117266D01*
X68687689Y-40123121D01*
X68851214Y-40459889D01*
X68854280Y-40465466D01*
X69051002Y-40783986D01*
X69054617Y-40789227D01*
X69282520Y-41086236D01*
X69286652Y-41091090D01*
X69304816Y-41110365D01*
X69318525Y-41118387D01*
X69319365Y-41118352D01*
X69327489Y-41113300D01*
X71777980Y-38662810D01*
X71785592Y-38648869D01*
X71785461Y-38647034D01*
X71781210Y-38640420D01*
X69329283Y-36188494D01*
X69315339Y-36180880D01*
X69314265Y-36180956D01*
X69306613Y-36185997D01*
X69303761Y-36188982D01*
X69299599Y-36193803D01*
X69069629Y-36489212D01*
X69065971Y-36494437D01*
X68867040Y-36811562D01*
X68863929Y-36817128D01*
X68698058Y-37152742D01*
X68695530Y-37158582D01*
X68564424Y-37509244D01*
X68562496Y-37515320D01*
X68467496Y-37877437D01*
X68466195Y-37883665D01*
X68408275Y-38253536D01*
X68407611Y-38259848D01*
X68387365Y-38633690D01*
X68387343Y-38640046D01*
X51712326Y-38640046D01*
X51693728Y-38272915D01*
X51693085Y-38266595D01*
X51636459Y-37896538D01*
X51635176Y-37890289D01*
X51541441Y-37527840D01*
X51539539Y-37521772D01*
X51409659Y-37170661D01*
X51407141Y-37164789D01*
X51242456Y-36828624D01*
X51239351Y-36823022D01*
X51041531Y-36505211D01*
X51037894Y-36499978D01*
X50808966Y-36203779D01*
X50804805Y-36198924D01*
X50795599Y-36189223D01*
X50781863Y-36181248D01*
X50780905Y-36181292D01*
X50772957Y-36186254D01*
X48322020Y-38637190D01*
X48314408Y-38651131D01*
X47584357Y-38651131D01*
X47585592Y-38648869D01*
X47585461Y-38647034D01*
X47581210Y-38640420D01*
X45129283Y-36188494D01*
X45115339Y-36180880D01*
X45114265Y-36180956D01*
X45106613Y-36185997D01*
X45103761Y-36188982D01*
X45099599Y-36193803D01*
X44869629Y-36489212D01*
X44865971Y-36494437D01*
X44732737Y-36706831D01*
X44679594Y-36753909D01*
X44609435Y-36764781D01*
X44544535Y-36735997D01*
X44505500Y-36676695D01*
X44500000Y-36639875D01*
X44500000Y-35820144D01*
X45483555Y-35820144D01*
X45489563Y-35830352D01*
X47937190Y-38277980D01*
X47951131Y-38285592D01*
X47952966Y-38285461D01*
X47959580Y-38281210D01*
X50408894Y-35831895D01*
X50415311Y-35820144D01*
X69683555Y-35820144D01*
X69689563Y-35830352D01*
X72137190Y-38277980D01*
X72151131Y-38285592D01*
X72152966Y-38285461D01*
X72159580Y-38281210D01*
X74608894Y-35831895D01*
X74616319Y-35818299D01*
X74609618Y-35808686D01*
X74458680Y-35678858D01*
X74453651Y-35674958D01*
X74146609Y-35460762D01*
X74141211Y-35457389D01*
X73814096Y-35275319D01*
X73808386Y-35272509D01*
X73464551Y-35124430D01*
X73458569Y-35122206D01*
X73101545Y-35009637D01*
X73095363Y-35008027D01*
X72728785Y-34932112D01*
X72722491Y-34931138D01*
X72350087Y-34892653D01*
X72343755Y-34892321D01*
X71969364Y-34891668D01*
X71963024Y-34891978D01*
X71590497Y-34929161D01*
X71584204Y-34930113D01*
X71217347Y-35004750D01*
X71211174Y-35006335D01*
X70853750Y-35117661D01*
X70847762Y-35119864D01*
X70503422Y-35266738D01*
X70497691Y-35269533D01*
X70169949Y-35450456D01*
X70164529Y-35453817D01*
X69856751Y-35666932D01*
X69851704Y-35670819D01*
X69691983Y-35807234D01*
X69683555Y-35820144D01*
X50415311Y-35820144D01*
X50416319Y-35818299D01*
X50409618Y-35808686D01*
X50258680Y-35678858D01*
X50253651Y-35674958D01*
X49946609Y-35460762D01*
X49941211Y-35457389D01*
X49614096Y-35275319D01*
X49608386Y-35272509D01*
X49264551Y-35124430D01*
X49258569Y-35122206D01*
X48901545Y-35009637D01*
X48895363Y-35008027D01*
X48528785Y-34932112D01*
X48522491Y-34931138D01*
X48150087Y-34892653D01*
X48143755Y-34892321D01*
X47769364Y-34891668D01*
X47763024Y-34891978D01*
X47390497Y-34929161D01*
X47384204Y-34930113D01*
X47017347Y-35004750D01*
X47011174Y-35006335D01*
X46653750Y-35117661D01*
X46647762Y-35119864D01*
X46303422Y-35266738D01*
X46297691Y-35269533D01*
X45969949Y-35450456D01*
X45964529Y-35453817D01*
X45656751Y-35666932D01*
X45651704Y-35670819D01*
X45491983Y-35807234D01*
X45483555Y-35820144D01*
X44500000Y-35820144D01*
X44500000Y-34626000D01*
X44520002Y-34557879D01*
X44573658Y-34511386D01*
X44626000Y-34500000D01*
X50000000Y-34500000D01*
X50000000Y-31689694D01*
X55361930Y-31689694D01*
X55377988Y-31853468D01*
X55429931Y-32009615D01*
X55433580Y-32015640D01*
X55490929Y-32110334D01*
X55509108Y-32178964D01*
X55489065Y-32243859D01*
X55438838Y-32321797D01*
X55436427Y-32328420D01*
X55436426Y-32328423D01*
X55384966Y-32469809D01*
X55384965Y-32469814D01*
X55382556Y-32476432D01*
X55361931Y-32639694D01*
X55377989Y-32803468D01*
X55380213Y-32810153D01*
X55429932Y-32959615D01*
X55427764Y-32960336D01*
X55436588Y-33019836D01*
X55430193Y-33045550D01*
X55384966Y-33169809D01*
X55384965Y-33169814D01*
X55382556Y-33176432D01*
X55361931Y-33339694D01*
X55377989Y-33503468D01*
X55429932Y-33659615D01*
X55433581Y-33665640D01*
X55511528Y-33794344D01*
X55515179Y-33800373D01*
X55629491Y-33918747D01*
X55767189Y-34008854D01*
X55921428Y-34066215D01*
X55928409Y-34067146D01*
X55928411Y-34067147D01*
X56077561Y-34087048D01*
X56077565Y-34087048D01*
X56084542Y-34087979D01*
X56091553Y-34087341D01*
X56091557Y-34087341D01*
X56241403Y-34073704D01*
X56241404Y-34073704D01*
X56248424Y-34073065D01*
X56277062Y-34063760D01*
X56398230Y-34024390D01*
X56398233Y-34024389D01*
X56404929Y-34022213D01*
X56546279Y-33937951D01*
X56665449Y-33824468D01*
X56746168Y-33702976D01*
X56800524Y-33657307D01*
X56870944Y-33648274D01*
X56935068Y-33678747D01*
X56958890Y-33707432D01*
X57011526Y-33794344D01*
X57011531Y-33794350D01*
X57015179Y-33800373D01*
X57129491Y-33918747D01*
X57267189Y-34008854D01*
X57421428Y-34066215D01*
X57428409Y-34067146D01*
X57428411Y-34067147D01*
X57577561Y-34087048D01*
X57577565Y-34087048D01*
X57584542Y-34087979D01*
X57591553Y-34087341D01*
X57591557Y-34087341D01*
X57741403Y-34073704D01*
X57741404Y-34073704D01*
X57748424Y-34073065D01*
X57777062Y-34063760D01*
X57898230Y-34024390D01*
X57898233Y-34024389D01*
X57904929Y-34022213D01*
X58046279Y-33937951D01*
X58165449Y-33824468D01*
X58181458Y-33800373D01*
X58252614Y-33693275D01*
X58252615Y-33693273D01*
X58256515Y-33687403D01*
X58314951Y-33533568D01*
X58337853Y-33370610D01*
X58338141Y-33350000D01*
X58319798Y-33186466D01*
X58268446Y-33039003D01*
X58264933Y-32968095D01*
X58269650Y-32952825D01*
X58312449Y-32840154D01*
X58314951Y-32833568D01*
X58337853Y-32670610D01*
X58338141Y-32650000D01*
X58319798Y-32486466D01*
X58313998Y-32469809D01*
X58272560Y-32350816D01*
X58265680Y-32331060D01*
X58260488Y-32322750D01*
X58209706Y-32241483D01*
X58190570Y-32173114D01*
X58211612Y-32104986D01*
X58252613Y-32043275D01*
X58252614Y-32043273D01*
X58256514Y-32037403D01*
X58314950Y-31883568D01*
X58337852Y-31720610D01*
X58338140Y-31700000D01*
X58319797Y-31536466D01*
X58313997Y-31519809D01*
X58273084Y-31402325D01*
X58265679Y-31381060D01*
X58209706Y-31291485D01*
X58190570Y-31223116D01*
X58211612Y-31154988D01*
X58252614Y-31093275D01*
X58252615Y-31093273D01*
X58256515Y-31087403D01*
X58314951Y-30933568D01*
X58324892Y-30862832D01*
X58337302Y-30774534D01*
X58337303Y-30774527D01*
X58337853Y-30770610D01*
X58338141Y-30750000D01*
X58319798Y-30586466D01*
X58268446Y-30439003D01*
X58264933Y-30368095D01*
X58269650Y-30352825D01*
X58286301Y-30308990D01*
X58314951Y-30233568D01*
X58328385Y-30137979D01*
X58337302Y-30074534D01*
X58337303Y-30074527D01*
X58337853Y-30070610D01*
X58338017Y-30058854D01*
X58338086Y-30053962D01*
X58338086Y-30053956D01*
X58338141Y-30050000D01*
X58319798Y-29886466D01*
X58313998Y-29869809D01*
X58270000Y-29743465D01*
X58265680Y-29731060D01*
X58203567Y-29631658D01*
X58182209Y-29597479D01*
X58178476Y-29591505D01*
X58120499Y-29533122D01*
X58067486Y-29479737D01*
X58067482Y-29479734D01*
X58062522Y-29474739D01*
X57923580Y-29386563D01*
X57821947Y-29350373D01*
X57775189Y-29333723D01*
X57775187Y-29333722D01*
X57768555Y-29331361D01*
X57761569Y-29330528D01*
X57761565Y-29330527D01*
X57647071Y-29316875D01*
X57605153Y-29311877D01*
X57598150Y-29312613D01*
X57598149Y-29312613D01*
X57554935Y-29317155D01*
X57441495Y-29329078D01*
X57434827Y-29331348D01*
X57292382Y-29379840D01*
X57292379Y-29379841D01*
X57285715Y-29382110D01*
X57145555Y-29468337D01*
X57133914Y-29479737D01*
X57036549Y-29575084D01*
X57027982Y-29583473D01*
X56955537Y-29695886D01*
X56901822Y-29742310D01*
X56831536Y-29752325D01*
X56766992Y-29722749D01*
X56742772Y-29694400D01*
X56682209Y-29597479D01*
X56678476Y-29591505D01*
X56620499Y-29533122D01*
X56567486Y-29479737D01*
X56567482Y-29479734D01*
X56562522Y-29474739D01*
X56423580Y-29386563D01*
X56321947Y-29350373D01*
X56275189Y-29333723D01*
X56275187Y-29333722D01*
X56268555Y-29331361D01*
X56261569Y-29330528D01*
X56261565Y-29330527D01*
X56147071Y-29316875D01*
X56105153Y-29311877D01*
X56098150Y-29312613D01*
X56098149Y-29312613D01*
X56054935Y-29317155D01*
X55941495Y-29329078D01*
X55934827Y-29331348D01*
X55792382Y-29379840D01*
X55792379Y-29379841D01*
X55785715Y-29382110D01*
X55645555Y-29468337D01*
X55633914Y-29479737D01*
X55536549Y-29575084D01*
X55527982Y-29583473D01*
X55438838Y-29721797D01*
X55436427Y-29728420D01*
X55436426Y-29728423D01*
X55384966Y-29869809D01*
X55384965Y-29869814D01*
X55382556Y-29876432D01*
X55361931Y-30039694D01*
X55377989Y-30203468D01*
X55388002Y-30233568D01*
X55429932Y-30359615D01*
X55427764Y-30360336D01*
X55436588Y-30419836D01*
X55430194Y-30445547D01*
X55421750Y-30468747D01*
X55384966Y-30569809D01*
X55384965Y-30569814D01*
X55382556Y-30576432D01*
X55361931Y-30739694D01*
X55377989Y-30903468D01*
X55429932Y-31059615D01*
X55433582Y-31065642D01*
X55433583Y-31065644D01*
X55490929Y-31160334D01*
X55509108Y-31228963D01*
X55489064Y-31293860D01*
X55438837Y-31371797D01*
X55436426Y-31378420D01*
X55436425Y-31378423D01*
X55384965Y-31519809D01*
X55384964Y-31519814D01*
X55382555Y-31526432D01*
X55361930Y-31689694D01*
X50000000Y-31689694D01*
X50000000Y-29126000D01*
X50020002Y-29057879D01*
X50073658Y-29011386D01*
X50126000Y-29000000D01*
X61569329Y-29000000D01*
X61637450Y-29020002D01*
G37*
%TD.AperFunction*%
%TD*%
M02*
