%TF.GenerationSoftware,KiCad,Pcbnew,(6.0.2)*%
%TF.CreationDate,2022-02-24T00:22:58+01:00*%
%TF.ProjectId,mini-pcie-breakout,6d696e69-2d70-4636-9965-2d627265616b,rev?*%
%TF.SameCoordinates,Original*%
%TF.FileFunction,Copper,L4,Bot*%
%TF.FilePolarity,Positive*%
%FSLAX46Y46*%
G04 Gerber Fmt 4.6, Leading zero omitted, Abs format (unit mm)*
G04 Created by KiCad (PCBNEW (6.0.2)) date 2022-02-24 00:22:58*
%MOMM*%
%LPD*%
G01*
G04 APERTURE LIST*
%TA.AperFunction,ComponentPad*%
%ADD10C,6.500000*%
%TD*%
%TA.AperFunction,ViaPad*%
%ADD11C,0.450000*%
%TD*%
G04 APERTURE END LIST*
D10*
%TO.P,H4,1,1*%
%TO.N,GND*%
X48000000Y-62800000D03*
%TD*%
%TO.P,H3,1,1*%
%TO.N,GND*%
X72100000Y-62800000D03*
%TD*%
%TO.P,H2,1,1*%
%TO.N,GND*%
X47950000Y-38650000D03*
%TD*%
%TO.P,H1,1,1*%
%TO.N,GND*%
X72150000Y-38650000D03*
%TD*%
D11*
%TO.N,GND*%
X58300000Y-80650000D03*
%TO.N,+3V3*%
X54150000Y-80700000D03*
%TO.N,+1V5*%
X56099999Y-31700000D03*
X57599999Y-31700000D03*
X56100000Y-32650000D03*
X57600000Y-32650000D03*
X56100000Y-30750000D03*
X57600000Y-30750000D03*
X56100000Y-33350000D03*
X57600000Y-33350000D03*
X57600000Y-30050000D03*
X56100000Y-30050000D03*
%TO.N,+3V3*%
X63150000Y-29400000D03*
X63900000Y-29900000D03*
X62400000Y-28900000D03*
%TO.N,GND*%
X63150000Y-34000000D03*
X63900000Y-34500000D03*
X62400000Y-33500000D03*
X46950000Y-90200000D03*
X45400000Y-92200000D03*
X45400000Y-88200000D03*
X74700000Y-92200000D03*
X73150000Y-90200000D03*
X74700000Y-88200000D03*
X53850000Y-89400000D03*
X51450000Y-89400000D03*
%TO.N,+3V3*%
X72400000Y-79950000D03*
%TO.N,GND*%
X71500000Y-79950000D03*
X70600000Y-79950000D03*
%TO.N,+1V5*%
X69700000Y-79950000D03*
X62800000Y-79950000D03*
%TO.N,GND*%
X61900000Y-79950000D03*
X61000000Y-79950000D03*
%TO.N,+3V3*%
X60100000Y-79950000D03*
%TO.N,GND*%
X49900000Y-79950000D03*
X49050000Y-79950000D03*
%TO.N,+1V5*%
X50900000Y-79950000D03*
%TO.N,+3V3*%
X48050000Y-79950000D03*
X66650000Y-93750000D03*
X67250000Y-93750000D03*
%TO.N,GND*%
X49450000Y-84000000D03*
X58250000Y-84000000D03*
X71050000Y-84000000D03*
X67050000Y-84000000D03*
X64650000Y-84000000D03*
X61450000Y-84000000D03*
X68250000Y-89400000D03*
X65850000Y-89400000D03*
X65050000Y-89400000D03*
X62650000Y-89400000D03*
X61850000Y-89400000D03*
X59450000Y-89400000D03*
%TO.N,+3V3*%
X68400000Y-96200000D03*
X67100000Y-96200000D03*
X67750000Y-96200000D03*
X67450000Y-96700000D03*
X68100000Y-96700000D03*
%TO.N,GND*%
X56450000Y-96750000D03*
X57100000Y-96750000D03*
X57400000Y-96250000D03*
X56100000Y-96250000D03*
X56750000Y-96250000D03*
%TD*%
%TA.AperFunction,Conductor*%
%TO.N,+1V5*%
G36*
X61637450Y-29020002D02*
G01*
X61683943Y-29073658D01*
X61688887Y-29086229D01*
X61729932Y-29209615D01*
X61733581Y-29215640D01*
X61797369Y-29320965D01*
X61815179Y-29350373D01*
X61929491Y-29468747D01*
X62067189Y-29558854D01*
X62221428Y-29616215D01*
X62228409Y-29617146D01*
X62228411Y-29617147D01*
X62383185Y-29637798D01*
X62448062Y-29666634D01*
X62479312Y-29707751D01*
X62479932Y-29709615D01*
X62483579Y-29715636D01*
X62483579Y-29715637D01*
X62500433Y-29743465D01*
X62565179Y-29850373D01*
X62679491Y-29968747D01*
X62817189Y-30058854D01*
X62971428Y-30116215D01*
X62978409Y-30117146D01*
X62978411Y-30117147D01*
X63133185Y-30137798D01*
X63198062Y-30166634D01*
X63229312Y-30207751D01*
X63229932Y-30209615D01*
X63315179Y-30350373D01*
X63429491Y-30468747D01*
X63567189Y-30558854D01*
X63721428Y-30616215D01*
X63728409Y-30617146D01*
X63728411Y-30617147D01*
X63877561Y-30637048D01*
X63877565Y-30637048D01*
X63884542Y-30637979D01*
X63891553Y-30637341D01*
X63891557Y-30637341D01*
X64041403Y-30623704D01*
X64041404Y-30623704D01*
X64048424Y-30623065D01*
X64077062Y-30613760D01*
X64198230Y-30574390D01*
X64198233Y-30574389D01*
X64204929Y-30572213D01*
X64346279Y-30487951D01*
X64465449Y-30374468D01*
X64481458Y-30350373D01*
X64552614Y-30243275D01*
X64552615Y-30243273D01*
X64556515Y-30237403D01*
X64614951Y-30083568D01*
X64637853Y-29920610D01*
X64638141Y-29900000D01*
X64619798Y-29736466D01*
X64565680Y-29581060D01*
X64478476Y-29441505D01*
X64381997Y-29344350D01*
X64367486Y-29329737D01*
X64367482Y-29329734D01*
X64362522Y-29324739D01*
X64226109Y-29238168D01*
X64226108Y-29238167D01*
X64223580Y-29236563D01*
X64223862Y-29236119D01*
X64174836Y-29191407D01*
X64156570Y-29122801D01*
X64178295Y-29055210D01*
X64233114Y-29010094D01*
X64282529Y-29000000D01*
X69874000Y-29000000D01*
X69942121Y-29020002D01*
X69988614Y-29073658D01*
X70000000Y-29126000D01*
X70000000Y-31047461D01*
X69979998Y-31115582D01*
X69926342Y-31162075D01*
X69856068Y-31172179D01*
X69791488Y-31142685D01*
X69759299Y-31099612D01*
X69735146Y-31046490D01*
X69694426Y-30956931D01*
X69574695Y-30788142D01*
X69570372Y-30784004D01*
X69570368Y-30783999D01*
X69429538Y-30649184D01*
X69425208Y-30645039D01*
X69382011Y-30617147D01*
X69256394Y-30536037D01*
X69256391Y-30536036D01*
X69251357Y-30532785D01*
X69059416Y-30455430D01*
X69053535Y-30454282D01*
X69053530Y-30454280D01*
X68860756Y-30416634D01*
X68860753Y-30416634D01*
X68856310Y-30415766D01*
X68850871Y-30415500D01*
X68698296Y-30415500D01*
X68543993Y-30430222D01*
X68538239Y-30431910D01*
X68351173Y-30486789D01*
X68351171Y-30486790D01*
X68345420Y-30488477D01*
X68340087Y-30491223D01*
X68340086Y-30491224D01*
X68166775Y-30580484D01*
X68166772Y-30580486D01*
X68161444Y-30583230D01*
X67998706Y-30711063D01*
X67863076Y-30867363D01*
X67759448Y-31046490D01*
X67691562Y-31241981D01*
X67661868Y-31446781D01*
X67671436Y-31653502D01*
X67672840Y-31659327D01*
X67672840Y-31659328D01*
X67696625Y-31758019D01*
X67719921Y-31854685D01*
X67722403Y-31860143D01*
X67722404Y-31860147D01*
X67745973Y-31911984D01*
X67805574Y-32043069D01*
X67925305Y-32211858D01*
X67929628Y-32215996D01*
X67929632Y-32216001D01*
X68009694Y-32292643D01*
X68074792Y-32354961D01*
X68079827Y-32358212D01*
X68243606Y-32463963D01*
X68243609Y-32463964D01*
X68248643Y-32467215D01*
X68440584Y-32544570D01*
X68446465Y-32545718D01*
X68446470Y-32545720D01*
X68639244Y-32583366D01*
X68639247Y-32583366D01*
X68643690Y-32584234D01*
X68649129Y-32584500D01*
X68801704Y-32584500D01*
X68956007Y-32569778D01*
X68961761Y-32568090D01*
X69148827Y-32513211D01*
X69148829Y-32513210D01*
X69154580Y-32511523D01*
X69236257Y-32469457D01*
X69333225Y-32419516D01*
X69333228Y-32419514D01*
X69338556Y-32416770D01*
X69501294Y-32288937D01*
X69636924Y-32132637D01*
X69740552Y-31953510D01*
X69742520Y-31947842D01*
X69742523Y-31947836D01*
X69754973Y-31911984D01*
X69796214Y-31854195D01*
X69862153Y-31827876D01*
X69931852Y-31841384D01*
X69983184Y-31890431D01*
X70000000Y-31953318D01*
X70000000Y-34500000D01*
X75374000Y-34500000D01*
X75442121Y-34520002D01*
X75488614Y-34573658D01*
X75500000Y-34626000D01*
X75500000Y-36478649D01*
X75479998Y-36546770D01*
X75426342Y-36593263D01*
X75356068Y-36603367D01*
X75291488Y-36573873D01*
X75267031Y-36545235D01*
X75240255Y-36502217D01*
X75007388Y-36200922D01*
X74745266Y-35924702D01*
X74456572Y-35676386D01*
X74144261Y-35458515D01*
X73811532Y-35273321D01*
X73808612Y-35272063D01*
X73808607Y-35272061D01*
X73464726Y-35123962D01*
X73464716Y-35123958D01*
X73461792Y-35122699D01*
X73098620Y-35008191D01*
X72819429Y-34950373D01*
X72728861Y-34931617D01*
X72728858Y-34931617D01*
X72725736Y-34930970D01*
X72447836Y-34902253D01*
X72350113Y-34892154D01*
X72350110Y-34892154D01*
X72346957Y-34891828D01*
X72343790Y-34891822D01*
X72343781Y-34891822D01*
X72156199Y-34891495D01*
X71966162Y-34891163D01*
X71587249Y-34928983D01*
X71584114Y-34929621D01*
X71584113Y-34929621D01*
X71392541Y-34968597D01*
X71214098Y-35004902D01*
X70850529Y-35118141D01*
X70500265Y-35267541D01*
X70497477Y-35269080D01*
X70497475Y-35269081D01*
X70398181Y-35323894D01*
X70166891Y-35451573D01*
X70164270Y-35453388D01*
X70164265Y-35453391D01*
X69856446Y-35666536D01*
X69853822Y-35668353D01*
X69564263Y-35915660D01*
X69301178Y-36190963D01*
X69299221Y-36193476D01*
X69299220Y-36193478D01*
X69077221Y-36478649D01*
X69067261Y-36491443D01*
X68864906Y-36814023D01*
X68696186Y-37155401D01*
X68695072Y-37158382D01*
X68695071Y-37158383D01*
X68691675Y-37167467D01*
X68562829Y-37512082D01*
X68466199Y-37880414D01*
X68465706Y-37883563D01*
X68465704Y-37883572D01*
X68420542Y-38171974D01*
X68407286Y-38256625D01*
X68407115Y-38259791D01*
X68407114Y-38259796D01*
X68406578Y-38269692D01*
X68386693Y-38636864D01*
X68386843Y-38640045D01*
X68387393Y-38651697D01*
X68404631Y-39017237D01*
X68460916Y-39393850D01*
X68461702Y-39396932D01*
X68461702Y-39396934D01*
X68469950Y-39429290D01*
X68554972Y-39762847D01*
X68685836Y-40120450D01*
X68852169Y-40462998D01*
X69052266Y-40786983D01*
X69284080Y-41089089D01*
X69545237Y-41366222D01*
X69833063Y-41615545D01*
X69835673Y-41617380D01*
X69835679Y-41617384D01*
X69869932Y-41641457D01*
X70144611Y-41834504D01*
X70476691Y-42020859D01*
X70479605Y-42022126D01*
X70479609Y-42022128D01*
X70622884Y-42084426D01*
X70825904Y-42172701D01*
X70868744Y-42186373D01*
X71185629Y-42287504D01*
X71185637Y-42287506D01*
X71188673Y-42288475D01*
X71391044Y-42331121D01*
X71558166Y-42366340D01*
X71558171Y-42366341D01*
X71561285Y-42366997D01*
X71939925Y-42407462D01*
X71943112Y-42407479D01*
X71943118Y-42407479D01*
X72115791Y-42408383D01*
X72320716Y-42409456D01*
X72464092Y-42395650D01*
X72696594Y-42373263D01*
X72696599Y-42373262D01*
X72699759Y-42372958D01*
X72702879Y-42372335D01*
X72702883Y-42372334D01*
X73070045Y-42298968D01*
X73070044Y-42298968D01*
X73073173Y-42298343D01*
X73076209Y-42297409D01*
X73076217Y-42297407D01*
X73434090Y-42187310D01*
X73434094Y-42187309D01*
X73437135Y-42186373D01*
X73440070Y-42185133D01*
X73440076Y-42185131D01*
X73595860Y-42119325D01*
X73787918Y-42038197D01*
X74121932Y-41855330D01*
X74435756Y-41639644D01*
X74438195Y-41637576D01*
X74438201Y-41637571D01*
X74723736Y-41395420D01*
X74726177Y-41393350D01*
X74728383Y-41391058D01*
X74728389Y-41391052D01*
X74988014Y-41121260D01*
X74990221Y-41118967D01*
X75225186Y-40819305D01*
X75267498Y-40752374D01*
X75320805Y-40705484D01*
X75391001Y-40694856D01*
X75455800Y-40723867D01*
X75494628Y-40783305D01*
X75500000Y-40819704D01*
X75500000Y-60708976D01*
X75479998Y-60777097D01*
X75426342Y-60823590D01*
X75356068Y-60833694D01*
X75291488Y-60804200D01*
X75267030Y-60775560D01*
X75191941Y-60654926D01*
X75190255Y-60652217D01*
X74957388Y-60350922D01*
X74695266Y-60074702D01*
X74406572Y-59826386D01*
X74094261Y-59608515D01*
X73761532Y-59423321D01*
X73758612Y-59422063D01*
X73758607Y-59422061D01*
X73414726Y-59273962D01*
X73414716Y-59273958D01*
X73411792Y-59272699D01*
X73048620Y-59158191D01*
X72783149Y-59103214D01*
X72678861Y-59081617D01*
X72678858Y-59081617D01*
X72675736Y-59080970D01*
X72397836Y-59052253D01*
X72300113Y-59042154D01*
X72300110Y-59042154D01*
X72296957Y-59041828D01*
X72293790Y-59041822D01*
X72293781Y-59041822D01*
X72106199Y-59041495D01*
X71916162Y-59041163D01*
X71537249Y-59078983D01*
X71534114Y-59079621D01*
X71534113Y-59079621D01*
X71167219Y-59154267D01*
X71164098Y-59154902D01*
X70800529Y-59268141D01*
X70450265Y-59417541D01*
X70447477Y-59419080D01*
X70447475Y-59419081D01*
X70348181Y-59473894D01*
X70116891Y-59601573D01*
X70114270Y-59603388D01*
X70114265Y-59603391D01*
X69806446Y-59816536D01*
X69803822Y-59818353D01*
X69514263Y-60065660D01*
X69251178Y-60340963D01*
X69017261Y-60641443D01*
X68814906Y-60964023D01*
X68646186Y-61305401D01*
X68645072Y-61308382D01*
X68645071Y-61308383D01*
X68641675Y-61317467D01*
X68512829Y-61662082D01*
X68416199Y-62030414D01*
X68415706Y-62033563D01*
X68415704Y-62033572D01*
X68370542Y-62321974D01*
X68357286Y-62406625D01*
X68357115Y-62409791D01*
X68357114Y-62409796D01*
X68356578Y-62419692D01*
X68336693Y-62786864D01*
X68336843Y-62790045D01*
X68337393Y-62801697D01*
X68354631Y-63167237D01*
X68410916Y-63543850D01*
X68411702Y-63546932D01*
X68411702Y-63546934D01*
X68419950Y-63579290D01*
X68504972Y-63912847D01*
X68635836Y-64270450D01*
X68802169Y-64612998D01*
X68914436Y-64794774D01*
X68932044Y-64823283D01*
X69002266Y-64936983D01*
X69234080Y-65239089D01*
X69495237Y-65516222D01*
X69783063Y-65765545D01*
X69785673Y-65767380D01*
X69785679Y-65767384D01*
X69819932Y-65791457D01*
X70094611Y-65984504D01*
X70426691Y-66170859D01*
X70429605Y-66172126D01*
X70429609Y-66172128D01*
X70572884Y-66234426D01*
X70775904Y-66322701D01*
X70818744Y-66336373D01*
X71135629Y-66437504D01*
X71135637Y-66437506D01*
X71138673Y-66438475D01*
X71341044Y-66481121D01*
X71508166Y-66516340D01*
X71508171Y-66516341D01*
X71511285Y-66516997D01*
X71889925Y-66557462D01*
X71893112Y-66557479D01*
X71893118Y-66557479D01*
X72065791Y-66558383D01*
X72270716Y-66559456D01*
X72414092Y-66545650D01*
X72646594Y-66523263D01*
X72646599Y-66523262D01*
X72649759Y-66522958D01*
X72652879Y-66522335D01*
X72652883Y-66522334D01*
X73020045Y-66448968D01*
X73020044Y-66448968D01*
X73023173Y-66448343D01*
X73026209Y-66447409D01*
X73026217Y-66447407D01*
X73384090Y-66337310D01*
X73384094Y-66337309D01*
X73387135Y-66336373D01*
X73390070Y-66335133D01*
X73390076Y-66335131D01*
X73545860Y-66269325D01*
X73737918Y-66188197D01*
X74071932Y-66005330D01*
X74385756Y-65789644D01*
X74388195Y-65787576D01*
X74388201Y-65787571D01*
X74673736Y-65545420D01*
X74676177Y-65543350D01*
X74678383Y-65541058D01*
X74678389Y-65541052D01*
X74938014Y-65271260D01*
X74940221Y-65268967D01*
X75175186Y-64969305D01*
X75267498Y-64823282D01*
X75320804Y-64776391D01*
X75391001Y-64765763D01*
X75455800Y-64794774D01*
X75494628Y-64854212D01*
X75500000Y-64890611D01*
X75500000Y-87660440D01*
X75479998Y-87728561D01*
X75426342Y-87775054D01*
X75356068Y-87785158D01*
X75291488Y-87755664D01*
X75279493Y-87743133D01*
X75278476Y-87741505D01*
X75212082Y-87674646D01*
X75167486Y-87629737D01*
X75167482Y-87629734D01*
X75162522Y-87624739D01*
X75023580Y-87536563D01*
X74943961Y-87508212D01*
X74875189Y-87483723D01*
X74875187Y-87483722D01*
X74868555Y-87481361D01*
X74861569Y-87480528D01*
X74861565Y-87480527D01*
X74747071Y-87466875D01*
X74705153Y-87461877D01*
X74698150Y-87462613D01*
X74698149Y-87462613D01*
X74654935Y-87467155D01*
X74541495Y-87479078D01*
X74534827Y-87481348D01*
X74392382Y-87529840D01*
X74392379Y-87529841D01*
X74385715Y-87532110D01*
X74245555Y-87618337D01*
X74233914Y-87629737D01*
X74143691Y-87718090D01*
X74127982Y-87733473D01*
X74038838Y-87871797D01*
X74036427Y-87878420D01*
X74036426Y-87878423D01*
X73984966Y-88019809D01*
X73984965Y-88019814D01*
X73982556Y-88026432D01*
X73961931Y-88189694D01*
X73977989Y-88353468D01*
X74029932Y-88509615D01*
X74033581Y-88515640D01*
X74093358Y-88614342D01*
X74115179Y-88650373D01*
X74120070Y-88655438D01*
X74120071Y-88655439D01*
X74127571Y-88663205D01*
X74229491Y-88768747D01*
X74367189Y-88858854D01*
X74521428Y-88916215D01*
X74528409Y-88917146D01*
X74528411Y-88917147D01*
X74677561Y-88937048D01*
X74677565Y-88937048D01*
X74684542Y-88937979D01*
X74691553Y-88937341D01*
X74691557Y-88937341D01*
X74841403Y-88923704D01*
X74841404Y-88923704D01*
X74848424Y-88923065D01*
X74877062Y-88913760D01*
X74998230Y-88874390D01*
X74998233Y-88874389D01*
X75004929Y-88872213D01*
X75146279Y-88787951D01*
X75265449Y-88674468D01*
X75269350Y-88668596D01*
X75273874Y-88663205D01*
X75274939Y-88664099D01*
X75323409Y-88623375D01*
X75393829Y-88614342D01*
X75457953Y-88644815D01*
X75495423Y-88705119D01*
X75500000Y-88738772D01*
X75500000Y-91660440D01*
X75479998Y-91728561D01*
X75426342Y-91775054D01*
X75356068Y-91785158D01*
X75291488Y-91755664D01*
X75279493Y-91743133D01*
X75278476Y-91741505D01*
X75197975Y-91660440D01*
X75167486Y-91629737D01*
X75167482Y-91629734D01*
X75162522Y-91624739D01*
X75023580Y-91536563D01*
X74974447Y-91519068D01*
X74875189Y-91483723D01*
X74875187Y-91483722D01*
X74868555Y-91481361D01*
X74861569Y-91480528D01*
X74861565Y-91480527D01*
X74747071Y-91466875D01*
X74705153Y-91461877D01*
X74698150Y-91462613D01*
X74698149Y-91462613D01*
X74654935Y-91467155D01*
X74541495Y-91479078D01*
X74534827Y-91481348D01*
X74392382Y-91529840D01*
X74392379Y-91529841D01*
X74385715Y-91532110D01*
X74245555Y-91618337D01*
X74127982Y-91733473D01*
X74038838Y-91871797D01*
X74036427Y-91878420D01*
X74036426Y-91878423D01*
X73984966Y-92019809D01*
X73984965Y-92019814D01*
X73982556Y-92026432D01*
X73961931Y-92189694D01*
X73977989Y-92353468D01*
X74029932Y-92509615D01*
X74033581Y-92515640D01*
X74093358Y-92614342D01*
X74115179Y-92650373D01*
X74229491Y-92768747D01*
X74235384Y-92772603D01*
X74240595Y-92776914D01*
X74280335Y-92835746D01*
X74281958Y-92906724D01*
X74244950Y-92967313D01*
X74181061Y-92998275D01*
X74160282Y-93000000D01*
X70000000Y-93000000D01*
X70000000Y-98374000D01*
X69979998Y-98442121D01*
X69926342Y-98488614D01*
X69874000Y-98500000D01*
X50126000Y-98500000D01*
X50057879Y-98479998D01*
X50011386Y-98426342D01*
X50000000Y-98374000D01*
X50000000Y-96239694D01*
X55361931Y-96239694D01*
X55377989Y-96403468D01*
X55429932Y-96559615D01*
X55433581Y-96565640D01*
X55495935Y-96668597D01*
X55515179Y-96700373D01*
X55629491Y-96818747D01*
X55635384Y-96822603D01*
X55682657Y-96853538D01*
X55728705Y-96907576D01*
X55733221Y-96919198D01*
X55770351Y-97030813D01*
X55779932Y-97059615D01*
X55783581Y-97065640D01*
X55845935Y-97168597D01*
X55865179Y-97200373D01*
X55979491Y-97318747D01*
X56117189Y-97408854D01*
X56271428Y-97466215D01*
X56278409Y-97467146D01*
X56278411Y-97467147D01*
X56427561Y-97487048D01*
X56427565Y-97487048D01*
X56434542Y-97487979D01*
X56441553Y-97487341D01*
X56441557Y-97487341D01*
X56591403Y-97473704D01*
X56591404Y-97473704D01*
X56598424Y-97473065D01*
X56738913Y-97427417D01*
X56809879Y-97425389D01*
X56821765Y-97429151D01*
X56921428Y-97466215D01*
X56928409Y-97467146D01*
X56928411Y-97467147D01*
X57077561Y-97487048D01*
X57077565Y-97487048D01*
X57084542Y-97487979D01*
X57091553Y-97487341D01*
X57091557Y-97487341D01*
X57241403Y-97473704D01*
X57241404Y-97473704D01*
X57248424Y-97473065D01*
X57356407Y-97437979D01*
X57398230Y-97424390D01*
X57398233Y-97424389D01*
X57404929Y-97422213D01*
X57546279Y-97337951D01*
X57665449Y-97224468D01*
X57681458Y-97200373D01*
X57752614Y-97093275D01*
X57752615Y-97093273D01*
X57756515Y-97087403D01*
X57814951Y-96933568D01*
X57815931Y-96926597D01*
X57815932Y-96926592D01*
X57819518Y-96901072D01*
X57848806Y-96836398D01*
X57857400Y-96827361D01*
X57960346Y-96729327D01*
X57965449Y-96724468D01*
X57981458Y-96700373D01*
X58052614Y-96593275D01*
X58052615Y-96593273D01*
X58056515Y-96587403D01*
X58114951Y-96433568D01*
X58137853Y-96270610D01*
X58138141Y-96250000D01*
X58131377Y-96189694D01*
X66361931Y-96189694D01*
X66377989Y-96353468D01*
X66429932Y-96509615D01*
X66433581Y-96515640D01*
X66477043Y-96587403D01*
X66515179Y-96650373D01*
X66629491Y-96768747D01*
X66635384Y-96772603D01*
X66682657Y-96803538D01*
X66728705Y-96857576D01*
X66733221Y-96869198D01*
X66756825Y-96940154D01*
X66779932Y-97009615D01*
X66783581Y-97015640D01*
X66827043Y-97087403D01*
X66865179Y-97150373D01*
X66979491Y-97268747D01*
X67117189Y-97358854D01*
X67271428Y-97416215D01*
X67278409Y-97417146D01*
X67278411Y-97417147D01*
X67427561Y-97437048D01*
X67427565Y-97437048D01*
X67434542Y-97437979D01*
X67441553Y-97437341D01*
X67441557Y-97437341D01*
X67591403Y-97423704D01*
X67591404Y-97423704D01*
X67598424Y-97423065D01*
X67738913Y-97377417D01*
X67809879Y-97375389D01*
X67821765Y-97379151D01*
X67921428Y-97416215D01*
X67928409Y-97417146D01*
X67928411Y-97417147D01*
X68077561Y-97437048D01*
X68077565Y-97437048D01*
X68084542Y-97437979D01*
X68091553Y-97437341D01*
X68091557Y-97437341D01*
X68241403Y-97423704D01*
X68241404Y-97423704D01*
X68248424Y-97423065D01*
X68292161Y-97408854D01*
X68398230Y-97374390D01*
X68398233Y-97374389D01*
X68404929Y-97372213D01*
X68546279Y-97287951D01*
X68665449Y-97174468D01*
X68681458Y-97150373D01*
X68752614Y-97043275D01*
X68752615Y-97043273D01*
X68756515Y-97037403D01*
X68814951Y-96883568D01*
X68815931Y-96876597D01*
X68815932Y-96876592D01*
X68819518Y-96851072D01*
X68848806Y-96786398D01*
X68857400Y-96777361D01*
X68912943Y-96724468D01*
X68965449Y-96674468D01*
X68981458Y-96650373D01*
X69052614Y-96543275D01*
X69052615Y-96543273D01*
X69056515Y-96537403D01*
X69114951Y-96383568D01*
X69133723Y-96250000D01*
X69137302Y-96224534D01*
X69137303Y-96224527D01*
X69137853Y-96220610D01*
X69138141Y-96200000D01*
X69119798Y-96036466D01*
X69113998Y-96019809D01*
X69083092Y-95931060D01*
X69065680Y-95881060D01*
X69006597Y-95786507D01*
X68982209Y-95747479D01*
X68978476Y-95741505D01*
X68905817Y-95668337D01*
X68867486Y-95629737D01*
X68867482Y-95629734D01*
X68862522Y-95624739D01*
X68723580Y-95536563D01*
X68654254Y-95511877D01*
X68575189Y-95483723D01*
X68575187Y-95483722D01*
X68568555Y-95481361D01*
X68561569Y-95480528D01*
X68561565Y-95480527D01*
X68447071Y-95466875D01*
X68405153Y-95461877D01*
X68398150Y-95462613D01*
X68398149Y-95462613D01*
X68354935Y-95467155D01*
X68241495Y-95479078D01*
X68234824Y-95481349D01*
X68114653Y-95522258D01*
X68043721Y-95525276D01*
X68031781Y-95521679D01*
X67925190Y-95483723D01*
X67925185Y-95483722D01*
X67918555Y-95481361D01*
X67911569Y-95480528D01*
X67911565Y-95480527D01*
X67797071Y-95466875D01*
X67755153Y-95461877D01*
X67748150Y-95462613D01*
X67748149Y-95462613D01*
X67704935Y-95467155D01*
X67591495Y-95479078D01*
X67584824Y-95481349D01*
X67464653Y-95522258D01*
X67393721Y-95525276D01*
X67381781Y-95521679D01*
X67275190Y-95483723D01*
X67275185Y-95483722D01*
X67268555Y-95481361D01*
X67261569Y-95480528D01*
X67261565Y-95480527D01*
X67147071Y-95466875D01*
X67105153Y-95461877D01*
X67098150Y-95462613D01*
X67098149Y-95462613D01*
X67054935Y-95467155D01*
X66941495Y-95479078D01*
X66934827Y-95481348D01*
X66792382Y-95529840D01*
X66792379Y-95529841D01*
X66785715Y-95532110D01*
X66645555Y-95618337D01*
X66527982Y-95733473D01*
X66438838Y-95871797D01*
X66436427Y-95878420D01*
X66436426Y-95878423D01*
X66384966Y-96019809D01*
X66384965Y-96019814D01*
X66382556Y-96026432D01*
X66361931Y-96189694D01*
X58131377Y-96189694D01*
X58119798Y-96086466D01*
X58113998Y-96069809D01*
X58067998Y-95937717D01*
X58065680Y-95931060D01*
X58034437Y-95881060D01*
X57982209Y-95797479D01*
X57978476Y-95791505D01*
X57915955Y-95728546D01*
X57867486Y-95679737D01*
X57867482Y-95679734D01*
X57862522Y-95674739D01*
X57723580Y-95586563D01*
X57674447Y-95569068D01*
X57575189Y-95533723D01*
X57575187Y-95533722D01*
X57568555Y-95531361D01*
X57561569Y-95530528D01*
X57561565Y-95530527D01*
X57447071Y-95516875D01*
X57405153Y-95511877D01*
X57398150Y-95512613D01*
X57398149Y-95512613D01*
X57354935Y-95517155D01*
X57241495Y-95529078D01*
X57234824Y-95531349D01*
X57114653Y-95572258D01*
X57043721Y-95575276D01*
X57031781Y-95571679D01*
X56925190Y-95533723D01*
X56925185Y-95533722D01*
X56918555Y-95531361D01*
X56911569Y-95530528D01*
X56911565Y-95530527D01*
X56797071Y-95516875D01*
X56755153Y-95511877D01*
X56748150Y-95512613D01*
X56748149Y-95512613D01*
X56704935Y-95517155D01*
X56591495Y-95529078D01*
X56584824Y-95531349D01*
X56464653Y-95572258D01*
X56393721Y-95575276D01*
X56381781Y-95571679D01*
X56275190Y-95533723D01*
X56275185Y-95533722D01*
X56268555Y-95531361D01*
X56261569Y-95530528D01*
X56261565Y-95530527D01*
X56147071Y-95516875D01*
X56105153Y-95511877D01*
X56098150Y-95512613D01*
X56098149Y-95512613D01*
X56054935Y-95517155D01*
X55941495Y-95529078D01*
X55934827Y-95531348D01*
X55792382Y-95579840D01*
X55792379Y-95579841D01*
X55785715Y-95582110D01*
X55645555Y-95668337D01*
X55527982Y-95783473D01*
X55438838Y-95921797D01*
X55436427Y-95928420D01*
X55436426Y-95928423D01*
X55384966Y-96069809D01*
X55384965Y-96069814D01*
X55382556Y-96076432D01*
X55361931Y-96239694D01*
X50000000Y-96239694D01*
X50000000Y-93739694D01*
X65911931Y-93739694D01*
X65927989Y-93903468D01*
X65979932Y-94059615D01*
X66065179Y-94200373D01*
X66179491Y-94318747D01*
X66317189Y-94408854D01*
X66471428Y-94466215D01*
X66478409Y-94467146D01*
X66478411Y-94467147D01*
X66627561Y-94487048D01*
X66627565Y-94487048D01*
X66634542Y-94487979D01*
X66641553Y-94487341D01*
X66641557Y-94487341D01*
X66791406Y-94473704D01*
X66791409Y-94473703D01*
X66798424Y-94473065D01*
X66912229Y-94436087D01*
X66983196Y-94434059D01*
X66995083Y-94437822D01*
X67071428Y-94466215D01*
X67078413Y-94467147D01*
X67227561Y-94487048D01*
X67227565Y-94487048D01*
X67234542Y-94487979D01*
X67241553Y-94487341D01*
X67241557Y-94487341D01*
X67391403Y-94473704D01*
X67391404Y-94473704D01*
X67398424Y-94473065D01*
X67512230Y-94436087D01*
X67548230Y-94424390D01*
X67548233Y-94424389D01*
X67554929Y-94422213D01*
X67696279Y-94337951D01*
X67815449Y-94224468D01*
X67831458Y-94200373D01*
X67902614Y-94093275D01*
X67902615Y-94093273D01*
X67906515Y-94087403D01*
X67964951Y-93933568D01*
X67987853Y-93770610D01*
X67988141Y-93750000D01*
X67969798Y-93586466D01*
X67963998Y-93569809D01*
X67917998Y-93437717D01*
X67915680Y-93431060D01*
X67828476Y-93291505D01*
X67770499Y-93233122D01*
X67717486Y-93179737D01*
X67717482Y-93179734D01*
X67712522Y-93174739D01*
X67573580Y-93086563D01*
X67524447Y-93069068D01*
X67425189Y-93033723D01*
X67425187Y-93033722D01*
X67418555Y-93031361D01*
X67411569Y-93030528D01*
X67411565Y-93030527D01*
X67297071Y-93016875D01*
X67255153Y-93011877D01*
X67248150Y-93012613D01*
X67248149Y-93012613D01*
X67098503Y-93028341D01*
X67098499Y-93028342D01*
X67091495Y-93029078D01*
X67084824Y-93031349D01*
X66990216Y-93063556D01*
X66919284Y-93066574D01*
X66907345Y-93062977D01*
X66825193Y-93033724D01*
X66825188Y-93033723D01*
X66818555Y-93031361D01*
X66811569Y-93030528D01*
X66811565Y-93030527D01*
X66697071Y-93016875D01*
X66655153Y-93011877D01*
X66648150Y-93012613D01*
X66648149Y-93012613D01*
X66604935Y-93017155D01*
X66491495Y-93029078D01*
X66484827Y-93031348D01*
X66342382Y-93079840D01*
X66342379Y-93079841D01*
X66335715Y-93082110D01*
X66195555Y-93168337D01*
X66077982Y-93283473D01*
X65988838Y-93421797D01*
X65986427Y-93428420D01*
X65986426Y-93428423D01*
X65934966Y-93569809D01*
X65934965Y-93569814D01*
X65932556Y-93576432D01*
X65911931Y-93739694D01*
X50000000Y-93739694D01*
X50000000Y-93000000D01*
X45938628Y-93000000D01*
X45870507Y-92979998D01*
X45824014Y-92926342D01*
X45813910Y-92856068D01*
X45843404Y-92791488D01*
X45851737Y-92782754D01*
X45960342Y-92679332D01*
X45960345Y-92679328D01*
X45965449Y-92674468D01*
X45981458Y-92650373D01*
X46052614Y-92543275D01*
X46052615Y-92543273D01*
X46056515Y-92537403D01*
X46114951Y-92383568D01*
X46137853Y-92220610D01*
X46138141Y-92200000D01*
X46119798Y-92036466D01*
X46113998Y-92019809D01*
X46067998Y-91887717D01*
X46065680Y-91881060D01*
X45978476Y-91741505D01*
X45897975Y-91660440D01*
X45867486Y-91629737D01*
X45867482Y-91629734D01*
X45862522Y-91624739D01*
X45723580Y-91536563D01*
X45674447Y-91519068D01*
X45575189Y-91483723D01*
X45575187Y-91483722D01*
X45568555Y-91481361D01*
X45561569Y-91480528D01*
X45561565Y-91480527D01*
X45447071Y-91466875D01*
X45405153Y-91461877D01*
X45398150Y-91462613D01*
X45398149Y-91462613D01*
X45354935Y-91467155D01*
X45241495Y-91479078D01*
X45234827Y-91481348D01*
X45092382Y-91529840D01*
X45092379Y-91529841D01*
X45085715Y-91532110D01*
X44945555Y-91618337D01*
X44827982Y-91733473D01*
X44738838Y-91871797D01*
X44737790Y-91874677D01*
X44690654Y-91925644D01*
X44621921Y-91943430D01*
X44554484Y-91921233D01*
X44509752Y-91866101D01*
X44500000Y-91817496D01*
X44500000Y-90189694D01*
X46211931Y-90189694D01*
X46227989Y-90353468D01*
X46279932Y-90509615D01*
X46365179Y-90650373D01*
X46479491Y-90768747D01*
X46617189Y-90858854D01*
X46771428Y-90916215D01*
X46778409Y-90917146D01*
X46778411Y-90917147D01*
X46927561Y-90937048D01*
X46927565Y-90937048D01*
X46934542Y-90937979D01*
X46941553Y-90937341D01*
X46941557Y-90937341D01*
X47091403Y-90923704D01*
X47091404Y-90923704D01*
X47098424Y-90923065D01*
X47127062Y-90913760D01*
X47248230Y-90874390D01*
X47248233Y-90874389D01*
X47254929Y-90872213D01*
X47396279Y-90787951D01*
X47515449Y-90674468D01*
X47531458Y-90650373D01*
X47602614Y-90543275D01*
X47602615Y-90543273D01*
X47606515Y-90537403D01*
X47664951Y-90383568D01*
X47687853Y-90220610D01*
X47688141Y-90200000D01*
X47686985Y-90189694D01*
X72411931Y-90189694D01*
X72427989Y-90353468D01*
X72479932Y-90509615D01*
X72565179Y-90650373D01*
X72679491Y-90768747D01*
X72817189Y-90858854D01*
X72971428Y-90916215D01*
X72978409Y-90917146D01*
X72978411Y-90917147D01*
X73127561Y-90937048D01*
X73127565Y-90937048D01*
X73134542Y-90937979D01*
X73141553Y-90937341D01*
X73141557Y-90937341D01*
X73291403Y-90923704D01*
X73291404Y-90923704D01*
X73298424Y-90923065D01*
X73327062Y-90913760D01*
X73448230Y-90874390D01*
X73448233Y-90874389D01*
X73454929Y-90872213D01*
X73596279Y-90787951D01*
X73715449Y-90674468D01*
X73731458Y-90650373D01*
X73802614Y-90543275D01*
X73802615Y-90543273D01*
X73806515Y-90537403D01*
X73864951Y-90383568D01*
X73887853Y-90220610D01*
X73888141Y-90200000D01*
X73869798Y-90036466D01*
X73863998Y-90019809D01*
X73817998Y-89887717D01*
X73815680Y-89881060D01*
X73728476Y-89741505D01*
X73670499Y-89683122D01*
X73617486Y-89629737D01*
X73617482Y-89629734D01*
X73612522Y-89624739D01*
X73473580Y-89536563D01*
X73424447Y-89519068D01*
X73325189Y-89483723D01*
X73325187Y-89483722D01*
X73318555Y-89481361D01*
X73311569Y-89480528D01*
X73311565Y-89480527D01*
X73197071Y-89466875D01*
X73155153Y-89461877D01*
X73148150Y-89462613D01*
X73148149Y-89462613D01*
X73104935Y-89467155D01*
X72991495Y-89479078D01*
X72984827Y-89481348D01*
X72842382Y-89529840D01*
X72842379Y-89529841D01*
X72835715Y-89532110D01*
X72695555Y-89618337D01*
X72683914Y-89629737D01*
X72609173Y-89702929D01*
X72577982Y-89733473D01*
X72488838Y-89871797D01*
X72486427Y-89878420D01*
X72486426Y-89878423D01*
X72434966Y-90019809D01*
X72434965Y-90019814D01*
X72432556Y-90026432D01*
X72411931Y-90189694D01*
X47686985Y-90189694D01*
X47669798Y-90036466D01*
X47663998Y-90019809D01*
X47617998Y-89887717D01*
X47615680Y-89881060D01*
X47528476Y-89741505D01*
X47470499Y-89683122D01*
X47417486Y-89629737D01*
X47417482Y-89629734D01*
X47412522Y-89624739D01*
X47273580Y-89536563D01*
X47224447Y-89519068D01*
X47125189Y-89483723D01*
X47125187Y-89483722D01*
X47118555Y-89481361D01*
X47111569Y-89480528D01*
X47111565Y-89480527D01*
X46997071Y-89466875D01*
X46955153Y-89461877D01*
X46948150Y-89462613D01*
X46948149Y-89462613D01*
X46904935Y-89467155D01*
X46791495Y-89479078D01*
X46784827Y-89481348D01*
X46642382Y-89529840D01*
X46642379Y-89529841D01*
X46635715Y-89532110D01*
X46495555Y-89618337D01*
X46483914Y-89629737D01*
X46409173Y-89702929D01*
X46377982Y-89733473D01*
X46288838Y-89871797D01*
X46286427Y-89878420D01*
X46286426Y-89878423D01*
X46234966Y-90019809D01*
X46234965Y-90019814D01*
X46232556Y-90026432D01*
X46211931Y-90189694D01*
X44500000Y-90189694D01*
X44500000Y-89389694D01*
X50711931Y-89389694D01*
X50727989Y-89553468D01*
X50779932Y-89709615D01*
X50783581Y-89715640D01*
X50802864Y-89747479D01*
X50865179Y-89850373D01*
X50870070Y-89855438D01*
X50870071Y-89855439D01*
X50936561Y-89924291D01*
X50979491Y-89968747D01*
X51117189Y-90058854D01*
X51271428Y-90116215D01*
X51278409Y-90117146D01*
X51278411Y-90117147D01*
X51427561Y-90137048D01*
X51427565Y-90137048D01*
X51434542Y-90137979D01*
X51441553Y-90137341D01*
X51441557Y-90137341D01*
X51591403Y-90123704D01*
X51591404Y-90123704D01*
X51598424Y-90123065D01*
X51627062Y-90113760D01*
X51748230Y-90074390D01*
X51748233Y-90074389D01*
X51754929Y-90072213D01*
X51896279Y-89987951D01*
X52015449Y-89874468D01*
X52031458Y-89850373D01*
X52102614Y-89743275D01*
X52102615Y-89743273D01*
X52106515Y-89737403D01*
X52164951Y-89583568D01*
X52179317Y-89481348D01*
X52187302Y-89424534D01*
X52187303Y-89424527D01*
X52187853Y-89420610D01*
X52188141Y-89400000D01*
X52186985Y-89389694D01*
X53111931Y-89389694D01*
X53127989Y-89553468D01*
X53179932Y-89709615D01*
X53183581Y-89715640D01*
X53202864Y-89747479D01*
X53265179Y-89850373D01*
X53270070Y-89855438D01*
X53270071Y-89855439D01*
X53336561Y-89924291D01*
X53379491Y-89968747D01*
X53517189Y-90058854D01*
X53671428Y-90116215D01*
X53678409Y-90117146D01*
X53678411Y-90117147D01*
X53827561Y-90137048D01*
X53827565Y-90137048D01*
X53834542Y-90137979D01*
X53841553Y-90137341D01*
X53841557Y-90137341D01*
X53991403Y-90123704D01*
X53991404Y-90123704D01*
X53998424Y-90123065D01*
X54027062Y-90113760D01*
X54148230Y-90074390D01*
X54148233Y-90074389D01*
X54154929Y-90072213D01*
X54296279Y-89987951D01*
X54415449Y-89874468D01*
X54431458Y-89850373D01*
X54502614Y-89743275D01*
X54502615Y-89743273D01*
X54506515Y-89737403D01*
X54564951Y-89583568D01*
X54579317Y-89481348D01*
X54587302Y-89424534D01*
X54587303Y-89424527D01*
X54587853Y-89420610D01*
X54588141Y-89400000D01*
X54586985Y-89389694D01*
X58711931Y-89389694D01*
X58727989Y-89553468D01*
X58779932Y-89709615D01*
X58783581Y-89715640D01*
X58802864Y-89747479D01*
X58865179Y-89850373D01*
X58870070Y-89855438D01*
X58870071Y-89855439D01*
X58936561Y-89924291D01*
X58979491Y-89968747D01*
X59117189Y-90058854D01*
X59271428Y-90116215D01*
X59278409Y-90117146D01*
X59278411Y-90117147D01*
X59427561Y-90137048D01*
X59427565Y-90137048D01*
X59434542Y-90137979D01*
X59441553Y-90137341D01*
X59441557Y-90137341D01*
X59591403Y-90123704D01*
X59591404Y-90123704D01*
X59598424Y-90123065D01*
X59627062Y-90113760D01*
X59748230Y-90074390D01*
X59748233Y-90074389D01*
X59754929Y-90072213D01*
X59896279Y-89987951D01*
X60015449Y-89874468D01*
X60031458Y-89850373D01*
X60102614Y-89743275D01*
X60102615Y-89743273D01*
X60106515Y-89737403D01*
X60164951Y-89583568D01*
X60179317Y-89481348D01*
X60187302Y-89424534D01*
X60187303Y-89424527D01*
X60187853Y-89420610D01*
X60188141Y-89400000D01*
X60186985Y-89389694D01*
X61111931Y-89389694D01*
X61127989Y-89553468D01*
X61179932Y-89709615D01*
X61183581Y-89715640D01*
X61202864Y-89747479D01*
X61265179Y-89850373D01*
X61270070Y-89855438D01*
X61270071Y-89855439D01*
X61336561Y-89924291D01*
X61379491Y-89968747D01*
X61517189Y-90058854D01*
X61671428Y-90116215D01*
X61678409Y-90117146D01*
X61678411Y-90117147D01*
X61827561Y-90137048D01*
X61827565Y-90137048D01*
X61834542Y-90137979D01*
X61841553Y-90137341D01*
X61841557Y-90137341D01*
X61991403Y-90123704D01*
X61991404Y-90123704D01*
X61998424Y-90123065D01*
X62027062Y-90113760D01*
X62148230Y-90074390D01*
X62148233Y-90074389D01*
X62154929Y-90072213D01*
X62182893Y-90055543D01*
X62251648Y-90037843D01*
X62303737Y-90054339D01*
X62305009Y-90051821D01*
X62311291Y-90054994D01*
X62317189Y-90058854D01*
X62471428Y-90116215D01*
X62478409Y-90117146D01*
X62478411Y-90117147D01*
X62627561Y-90137048D01*
X62627565Y-90137048D01*
X62634542Y-90137979D01*
X62641553Y-90137341D01*
X62641557Y-90137341D01*
X62791403Y-90123704D01*
X62791404Y-90123704D01*
X62798424Y-90123065D01*
X62827062Y-90113760D01*
X62948230Y-90074390D01*
X62948233Y-90074389D01*
X62954929Y-90072213D01*
X63096279Y-89987951D01*
X63215449Y-89874468D01*
X63231458Y-89850373D01*
X63302614Y-89743275D01*
X63302615Y-89743273D01*
X63306515Y-89737403D01*
X63364951Y-89583568D01*
X63379317Y-89481348D01*
X63387302Y-89424534D01*
X63387303Y-89424527D01*
X63387853Y-89420610D01*
X63388141Y-89400000D01*
X63386985Y-89389694D01*
X64311931Y-89389694D01*
X64327989Y-89553468D01*
X64379932Y-89709615D01*
X64383581Y-89715640D01*
X64402864Y-89747479D01*
X64465179Y-89850373D01*
X64470070Y-89855438D01*
X64470071Y-89855439D01*
X64536561Y-89924291D01*
X64579491Y-89968747D01*
X64717189Y-90058854D01*
X64871428Y-90116215D01*
X64878409Y-90117146D01*
X64878411Y-90117147D01*
X65027561Y-90137048D01*
X65027565Y-90137048D01*
X65034542Y-90137979D01*
X65041553Y-90137341D01*
X65041557Y-90137341D01*
X65191403Y-90123704D01*
X65191404Y-90123704D01*
X65198424Y-90123065D01*
X65227062Y-90113760D01*
X65348230Y-90074390D01*
X65348233Y-90074389D01*
X65354929Y-90072213D01*
X65382893Y-90055543D01*
X65451648Y-90037843D01*
X65503737Y-90054339D01*
X65505009Y-90051821D01*
X65511291Y-90054994D01*
X65517189Y-90058854D01*
X65671428Y-90116215D01*
X65678409Y-90117146D01*
X65678411Y-90117147D01*
X65827561Y-90137048D01*
X65827565Y-90137048D01*
X65834542Y-90137979D01*
X65841553Y-90137341D01*
X65841557Y-90137341D01*
X65991403Y-90123704D01*
X65991404Y-90123704D01*
X65998424Y-90123065D01*
X66027062Y-90113760D01*
X66148230Y-90074390D01*
X66148233Y-90074389D01*
X66154929Y-90072213D01*
X66296279Y-89987951D01*
X66415449Y-89874468D01*
X66431458Y-89850373D01*
X66502614Y-89743275D01*
X66502615Y-89743273D01*
X66506515Y-89737403D01*
X66564951Y-89583568D01*
X66579317Y-89481348D01*
X66587302Y-89424534D01*
X66587303Y-89424527D01*
X66587853Y-89420610D01*
X66588141Y-89400000D01*
X66586985Y-89389694D01*
X67511931Y-89389694D01*
X67527989Y-89553468D01*
X67579932Y-89709615D01*
X67583581Y-89715640D01*
X67602864Y-89747479D01*
X67665179Y-89850373D01*
X67670070Y-89855438D01*
X67670071Y-89855439D01*
X67736561Y-89924291D01*
X67779491Y-89968747D01*
X67917189Y-90058854D01*
X68071428Y-90116215D01*
X68078409Y-90117146D01*
X68078411Y-90117147D01*
X68227561Y-90137048D01*
X68227565Y-90137048D01*
X68234542Y-90137979D01*
X68241553Y-90137341D01*
X68241557Y-90137341D01*
X68391403Y-90123704D01*
X68391404Y-90123704D01*
X68398424Y-90123065D01*
X68427062Y-90113760D01*
X68548230Y-90074390D01*
X68548233Y-90074389D01*
X68554929Y-90072213D01*
X68696279Y-89987951D01*
X68815449Y-89874468D01*
X68831458Y-89850373D01*
X68902614Y-89743275D01*
X68902615Y-89743273D01*
X68906515Y-89737403D01*
X68964951Y-89583568D01*
X68979317Y-89481348D01*
X68987302Y-89424534D01*
X68987303Y-89424527D01*
X68987853Y-89420610D01*
X68988141Y-89400000D01*
X68969798Y-89236466D01*
X68963998Y-89219809D01*
X68917998Y-89087717D01*
X68915680Y-89081060D01*
X68828476Y-88941505D01*
X68742567Y-88854994D01*
X68717486Y-88829737D01*
X68717482Y-88829734D01*
X68712522Y-88824739D01*
X68573580Y-88736563D01*
X68485275Y-88705119D01*
X68425189Y-88683723D01*
X68425187Y-88683722D01*
X68418555Y-88681361D01*
X68411569Y-88680528D01*
X68411565Y-88680527D01*
X68297071Y-88666875D01*
X68255153Y-88661877D01*
X68248150Y-88662613D01*
X68248149Y-88662613D01*
X68204935Y-88667155D01*
X68091495Y-88679078D01*
X68084827Y-88681348D01*
X67942382Y-88729840D01*
X67942379Y-88729841D01*
X67935715Y-88732110D01*
X67795555Y-88818337D01*
X67744221Y-88868607D01*
X67694654Y-88917147D01*
X67677982Y-88933473D01*
X67588838Y-89071797D01*
X67586427Y-89078420D01*
X67586426Y-89078423D01*
X67534966Y-89219809D01*
X67534965Y-89219814D01*
X67532556Y-89226432D01*
X67511931Y-89389694D01*
X66586985Y-89389694D01*
X66569798Y-89236466D01*
X66563998Y-89219809D01*
X66517998Y-89087717D01*
X66515680Y-89081060D01*
X66428476Y-88941505D01*
X66342567Y-88854994D01*
X66317486Y-88829737D01*
X66317482Y-88829734D01*
X66312522Y-88824739D01*
X66173580Y-88736563D01*
X66085275Y-88705119D01*
X66025189Y-88683723D01*
X66025187Y-88683722D01*
X66018555Y-88681361D01*
X66011569Y-88680528D01*
X66011565Y-88680527D01*
X65897071Y-88666875D01*
X65855153Y-88661877D01*
X65848150Y-88662613D01*
X65848149Y-88662613D01*
X65804935Y-88667155D01*
X65691495Y-88679078D01*
X65684827Y-88681348D01*
X65542382Y-88729840D01*
X65542379Y-88729841D01*
X65535715Y-88732110D01*
X65529713Y-88735802D01*
X65529714Y-88735802D01*
X65516885Y-88743694D01*
X65448384Y-88762353D01*
X65383343Y-88742759D01*
X65379532Y-88740340D01*
X65379530Y-88740339D01*
X65373580Y-88736563D01*
X65285275Y-88705119D01*
X65225189Y-88683723D01*
X65225187Y-88683722D01*
X65218555Y-88681361D01*
X65211569Y-88680528D01*
X65211565Y-88680527D01*
X65097071Y-88666875D01*
X65055153Y-88661877D01*
X65048150Y-88662613D01*
X65048149Y-88662613D01*
X65004935Y-88667155D01*
X64891495Y-88679078D01*
X64884827Y-88681348D01*
X64742382Y-88729840D01*
X64742379Y-88729841D01*
X64735715Y-88732110D01*
X64595555Y-88818337D01*
X64544221Y-88868607D01*
X64494654Y-88917147D01*
X64477982Y-88933473D01*
X64388838Y-89071797D01*
X64386427Y-89078420D01*
X64386426Y-89078423D01*
X64334966Y-89219809D01*
X64334965Y-89219814D01*
X64332556Y-89226432D01*
X64311931Y-89389694D01*
X63386985Y-89389694D01*
X63369798Y-89236466D01*
X63363998Y-89219809D01*
X63317998Y-89087717D01*
X63315680Y-89081060D01*
X63228476Y-88941505D01*
X63142567Y-88854994D01*
X63117486Y-88829737D01*
X63117482Y-88829734D01*
X63112522Y-88824739D01*
X62973580Y-88736563D01*
X62885275Y-88705119D01*
X62825189Y-88683723D01*
X62825187Y-88683722D01*
X62818555Y-88681361D01*
X62811569Y-88680528D01*
X62811565Y-88680527D01*
X62697071Y-88666875D01*
X62655153Y-88661877D01*
X62648150Y-88662613D01*
X62648149Y-88662613D01*
X62604935Y-88667155D01*
X62491495Y-88679078D01*
X62484827Y-88681348D01*
X62342382Y-88729840D01*
X62342379Y-88729841D01*
X62335715Y-88732110D01*
X62329713Y-88735802D01*
X62329714Y-88735802D01*
X62316885Y-88743694D01*
X62248384Y-88762353D01*
X62183343Y-88742759D01*
X62179532Y-88740340D01*
X62179530Y-88740339D01*
X62173580Y-88736563D01*
X62085275Y-88705119D01*
X62025189Y-88683723D01*
X62025187Y-88683722D01*
X62018555Y-88681361D01*
X62011569Y-88680528D01*
X62011565Y-88680527D01*
X61897071Y-88666875D01*
X61855153Y-88661877D01*
X61848150Y-88662613D01*
X61848149Y-88662613D01*
X61804935Y-88667155D01*
X61691495Y-88679078D01*
X61684827Y-88681348D01*
X61542382Y-88729840D01*
X61542379Y-88729841D01*
X61535715Y-88732110D01*
X61395555Y-88818337D01*
X61344221Y-88868607D01*
X61294654Y-88917147D01*
X61277982Y-88933473D01*
X61188838Y-89071797D01*
X61186427Y-89078420D01*
X61186426Y-89078423D01*
X61134966Y-89219809D01*
X61134965Y-89219814D01*
X61132556Y-89226432D01*
X61111931Y-89389694D01*
X60186985Y-89389694D01*
X60169798Y-89236466D01*
X60163998Y-89219809D01*
X60117998Y-89087717D01*
X60115680Y-89081060D01*
X60028476Y-88941505D01*
X59942567Y-88854994D01*
X59917486Y-88829737D01*
X59917482Y-88829734D01*
X59912522Y-88824739D01*
X59773580Y-88736563D01*
X59685275Y-88705119D01*
X59625189Y-88683723D01*
X59625187Y-88683722D01*
X59618555Y-88681361D01*
X59611569Y-88680528D01*
X59611565Y-88680527D01*
X59497071Y-88666875D01*
X59455153Y-88661877D01*
X59448150Y-88662613D01*
X59448149Y-88662613D01*
X59404935Y-88667155D01*
X59291495Y-88679078D01*
X59284827Y-88681348D01*
X59142382Y-88729840D01*
X59142379Y-88729841D01*
X59135715Y-88732110D01*
X58995555Y-88818337D01*
X58944221Y-88868607D01*
X58894654Y-88917147D01*
X58877982Y-88933473D01*
X58788838Y-89071797D01*
X58786427Y-89078420D01*
X58786426Y-89078423D01*
X58734966Y-89219809D01*
X58734965Y-89219814D01*
X58732556Y-89226432D01*
X58711931Y-89389694D01*
X54586985Y-89389694D01*
X54569798Y-89236466D01*
X54563998Y-89219809D01*
X54517998Y-89087717D01*
X54515680Y-89081060D01*
X54428476Y-88941505D01*
X54342567Y-88854994D01*
X54317486Y-88829737D01*
X54317482Y-88829734D01*
X54312522Y-88824739D01*
X54173580Y-88736563D01*
X54085275Y-88705119D01*
X54025189Y-88683723D01*
X54025187Y-88683722D01*
X54018555Y-88681361D01*
X54011569Y-88680528D01*
X54011565Y-88680527D01*
X53897071Y-88666875D01*
X53855153Y-88661877D01*
X53848150Y-88662613D01*
X53848149Y-88662613D01*
X53804935Y-88667155D01*
X53691495Y-88679078D01*
X53684827Y-88681348D01*
X53542382Y-88729840D01*
X53542379Y-88729841D01*
X53535715Y-88732110D01*
X53395555Y-88818337D01*
X53344221Y-88868607D01*
X53294654Y-88917147D01*
X53277982Y-88933473D01*
X53188838Y-89071797D01*
X53186427Y-89078420D01*
X53186426Y-89078423D01*
X53134966Y-89219809D01*
X53134965Y-89219814D01*
X53132556Y-89226432D01*
X53111931Y-89389694D01*
X52186985Y-89389694D01*
X52169798Y-89236466D01*
X52163998Y-89219809D01*
X52117998Y-89087717D01*
X52115680Y-89081060D01*
X52028476Y-88941505D01*
X51942567Y-88854994D01*
X51917486Y-88829737D01*
X51917482Y-88829734D01*
X51912522Y-88824739D01*
X51773580Y-88736563D01*
X51685275Y-88705119D01*
X51625189Y-88683723D01*
X51625187Y-88683722D01*
X51618555Y-88681361D01*
X51611569Y-88680528D01*
X51611565Y-88680527D01*
X51497071Y-88666875D01*
X51455153Y-88661877D01*
X51448150Y-88662613D01*
X51448149Y-88662613D01*
X51404935Y-88667155D01*
X51291495Y-88679078D01*
X51284827Y-88681348D01*
X51142382Y-88729840D01*
X51142379Y-88729841D01*
X51135715Y-88732110D01*
X50995555Y-88818337D01*
X50944221Y-88868607D01*
X50894654Y-88917147D01*
X50877982Y-88933473D01*
X50788838Y-89071797D01*
X50786427Y-89078420D01*
X50786426Y-89078423D01*
X50734966Y-89219809D01*
X50734965Y-89219814D01*
X50732556Y-89226432D01*
X50711931Y-89389694D01*
X44500000Y-89389694D01*
X44500000Y-88581234D01*
X44520002Y-88513113D01*
X44573658Y-88466620D01*
X44643932Y-88456516D01*
X44708512Y-88486010D01*
X44733776Y-88515962D01*
X44793358Y-88614342D01*
X44815179Y-88650373D01*
X44820070Y-88655438D01*
X44820071Y-88655439D01*
X44827571Y-88663205D01*
X44929491Y-88768747D01*
X45067189Y-88858854D01*
X45221428Y-88916215D01*
X45228409Y-88917146D01*
X45228411Y-88917147D01*
X45377561Y-88937048D01*
X45377565Y-88937048D01*
X45384542Y-88937979D01*
X45391553Y-88937341D01*
X45391557Y-88937341D01*
X45541403Y-88923704D01*
X45541404Y-88923704D01*
X45548424Y-88923065D01*
X45577062Y-88913760D01*
X45698230Y-88874390D01*
X45698233Y-88874389D01*
X45704929Y-88872213D01*
X45846279Y-88787951D01*
X45965449Y-88674468D01*
X45972932Y-88663205D01*
X46052614Y-88543275D01*
X46052615Y-88543273D01*
X46056515Y-88537403D01*
X46114951Y-88383568D01*
X46137853Y-88220610D01*
X46138141Y-88200000D01*
X46119798Y-88036466D01*
X46113998Y-88019809D01*
X46084710Y-87935707D01*
X46065680Y-87881060D01*
X46039929Y-87839849D01*
X45982209Y-87747479D01*
X45978476Y-87741505D01*
X45912082Y-87674646D01*
X45867486Y-87629737D01*
X45867482Y-87629734D01*
X45862522Y-87624739D01*
X45723580Y-87536563D01*
X45643961Y-87508212D01*
X45575189Y-87483723D01*
X45575187Y-87483722D01*
X45568555Y-87481361D01*
X45561569Y-87480528D01*
X45561565Y-87480527D01*
X45447071Y-87466875D01*
X45405153Y-87461877D01*
X45398150Y-87462613D01*
X45398149Y-87462613D01*
X45354935Y-87467155D01*
X45241495Y-87479078D01*
X45234827Y-87481348D01*
X45092382Y-87529840D01*
X45092379Y-87529841D01*
X45085715Y-87532110D01*
X44945555Y-87618337D01*
X44933914Y-87629737D01*
X44843691Y-87718090D01*
X44827982Y-87733473D01*
X44738838Y-87871797D01*
X44737790Y-87874677D01*
X44690654Y-87925644D01*
X44621921Y-87943430D01*
X44554484Y-87921233D01*
X44509752Y-87866101D01*
X44500000Y-87817496D01*
X44500000Y-86700000D01*
X46236502Y-86700000D01*
X46256457Y-86928087D01*
X46257881Y-86933400D01*
X46257881Y-86933402D01*
X46307235Y-87117590D01*
X46315716Y-87149243D01*
X46318039Y-87154224D01*
X46318039Y-87154225D01*
X46410151Y-87351762D01*
X46410154Y-87351767D01*
X46412477Y-87356749D01*
X46466853Y-87434406D01*
X46499732Y-87481361D01*
X46543802Y-87544300D01*
X46705700Y-87706198D01*
X46710208Y-87709355D01*
X46710211Y-87709357D01*
X46779966Y-87758200D01*
X46893251Y-87837523D01*
X46898233Y-87839846D01*
X46898238Y-87839849D01*
X47082228Y-87925644D01*
X47100757Y-87934284D01*
X47106065Y-87935706D01*
X47106067Y-87935707D01*
X47316598Y-87992119D01*
X47316600Y-87992119D01*
X47321913Y-87993543D01*
X47421480Y-88002254D01*
X47490149Y-88008262D01*
X47490156Y-88008262D01*
X47492873Y-88008500D01*
X47607127Y-88008500D01*
X47609844Y-88008262D01*
X47609851Y-88008262D01*
X47678520Y-88002254D01*
X47778087Y-87993543D01*
X47783400Y-87992119D01*
X47783402Y-87992119D01*
X47993933Y-87935707D01*
X47993935Y-87935706D01*
X47999243Y-87934284D01*
X48017772Y-87925644D01*
X48201762Y-87839849D01*
X48201767Y-87839846D01*
X48206749Y-87837523D01*
X48320034Y-87758200D01*
X48389789Y-87709357D01*
X48389792Y-87709355D01*
X48394300Y-87706198D01*
X48556198Y-87544300D01*
X48600269Y-87481361D01*
X48633147Y-87434406D01*
X48687523Y-87356749D01*
X48689846Y-87351767D01*
X48689849Y-87351762D01*
X48781961Y-87154225D01*
X48781961Y-87154224D01*
X48784284Y-87149243D01*
X48792766Y-87117590D01*
X48830172Y-86977987D01*
X48867124Y-86917364D01*
X48930984Y-86886343D01*
X49001479Y-86894771D01*
X49056226Y-86939974D01*
X49074371Y-86981075D01*
X49078654Y-86998846D01*
X49078657Y-86998854D01*
X49080062Y-87004685D01*
X49165715Y-87193069D01*
X49285446Y-87361858D01*
X49289769Y-87365996D01*
X49289773Y-87366001D01*
X49430603Y-87500816D01*
X49434933Y-87504961D01*
X49439968Y-87508212D01*
X49603747Y-87613963D01*
X49603750Y-87613964D01*
X49608784Y-87617215D01*
X49800725Y-87694570D01*
X49806606Y-87695718D01*
X49806611Y-87695720D01*
X49999385Y-87733366D01*
X49999388Y-87733366D01*
X50003831Y-87734234D01*
X50009270Y-87734500D01*
X50161845Y-87734500D01*
X50316148Y-87719778D01*
X50375722Y-87702301D01*
X50508968Y-87663211D01*
X50508970Y-87663210D01*
X50514721Y-87661523D01*
X50576438Y-87629737D01*
X50693366Y-87569516D01*
X50693369Y-87569514D01*
X50698697Y-87566770D01*
X50861435Y-87438937D01*
X50997065Y-87282637D01*
X51100693Y-87103510D01*
X51168579Y-86908019D01*
X51198273Y-86703219D01*
X51197780Y-86692575D01*
X71486404Y-86692575D01*
X71487913Y-86709159D01*
X71504039Y-86886343D01*
X71505218Y-86899303D01*
X71506956Y-86905209D01*
X71506957Y-86905213D01*
X71537841Y-87010147D01*
X71563827Y-87098440D01*
X71659999Y-87282400D01*
X71790071Y-87444177D01*
X71794788Y-87448135D01*
X71794790Y-87448137D01*
X71866385Y-87508212D01*
X71949089Y-87577609D01*
X71954481Y-87580573D01*
X71954485Y-87580576D01*
X72101727Y-87661523D01*
X72130995Y-87677613D01*
X72328861Y-87740379D01*
X72334978Y-87741065D01*
X72334982Y-87741066D01*
X72411598Y-87749659D01*
X72490413Y-87758500D01*
X72602237Y-87758500D01*
X72605293Y-87758200D01*
X72605300Y-87758200D01*
X72750466Y-87743966D01*
X72750469Y-87743965D01*
X72756592Y-87743365D01*
X72925638Y-87692328D01*
X72949407Y-87685152D01*
X72949410Y-87685151D01*
X72955315Y-87683368D01*
X72962635Y-87679476D01*
X73133153Y-87588809D01*
X73133155Y-87588808D01*
X73138599Y-87585913D01*
X73204568Y-87532110D01*
X73294689Y-87458610D01*
X73294692Y-87458607D01*
X73299464Y-87454715D01*
X73431783Y-87294770D01*
X73435876Y-87287201D01*
X73527584Y-87117590D01*
X73527586Y-87117585D01*
X73530514Y-87112170D01*
X73591898Y-86913871D01*
X73593429Y-86899303D01*
X73612952Y-86713554D01*
X73612952Y-86713552D01*
X73613596Y-86707425D01*
X73605777Y-86621515D01*
X73595341Y-86506836D01*
X73595340Y-86506833D01*
X73594782Y-86500697D01*
X73592298Y-86492255D01*
X73537912Y-86307469D01*
X73536173Y-86301560D01*
X73440001Y-86117600D01*
X73309929Y-85955823D01*
X73297371Y-85945285D01*
X73155629Y-85826350D01*
X73150911Y-85822391D01*
X73145519Y-85819427D01*
X73145515Y-85819424D01*
X72974402Y-85725354D01*
X72969005Y-85722387D01*
X72771139Y-85659621D01*
X72765022Y-85658935D01*
X72765018Y-85658934D01*
X72688402Y-85650341D01*
X72609587Y-85641500D01*
X72497763Y-85641500D01*
X72494707Y-85641800D01*
X72494700Y-85641800D01*
X72349534Y-85656034D01*
X72349531Y-85656035D01*
X72343408Y-85656635D01*
X72230766Y-85690643D01*
X72150593Y-85714848D01*
X72150590Y-85714849D01*
X72144685Y-85716632D01*
X72139240Y-85719527D01*
X72139238Y-85719528D01*
X71966847Y-85811191D01*
X71966845Y-85811192D01*
X71961401Y-85814087D01*
X71946365Y-85826350D01*
X71805311Y-85941390D01*
X71805308Y-85941393D01*
X71800536Y-85945285D01*
X71668217Y-86105230D01*
X71665288Y-86110647D01*
X71665286Y-86110650D01*
X71572416Y-86282410D01*
X71572414Y-86282415D01*
X71569486Y-86287830D01*
X71508102Y-86486129D01*
X71507458Y-86492254D01*
X71507458Y-86492255D01*
X71505926Y-86506836D01*
X71486404Y-86692575D01*
X51197780Y-86692575D01*
X51188705Y-86496498D01*
X51140220Y-86295315D01*
X51134353Y-86282410D01*
X51057047Y-86112386D01*
X51054567Y-86106931D01*
X50934836Y-85938142D01*
X50930513Y-85934004D01*
X50930509Y-85933999D01*
X50789679Y-85799184D01*
X50785349Y-85795039D01*
X50672831Y-85722387D01*
X50616535Y-85686037D01*
X50616532Y-85686036D01*
X50611498Y-85682785D01*
X50419557Y-85605430D01*
X50413676Y-85604282D01*
X50413671Y-85604280D01*
X50220897Y-85566634D01*
X50220894Y-85566634D01*
X50216451Y-85565766D01*
X50211012Y-85565500D01*
X50058437Y-85565500D01*
X49904134Y-85580222D01*
X49898380Y-85581910D01*
X49711314Y-85636789D01*
X49711312Y-85636790D01*
X49705561Y-85638477D01*
X49700228Y-85641223D01*
X49700227Y-85641224D01*
X49526916Y-85730484D01*
X49526913Y-85730486D01*
X49521585Y-85733230D01*
X49358847Y-85861063D01*
X49223217Y-86017363D01*
X49119589Y-86196490D01*
X49087871Y-86287830D01*
X49056682Y-86377644D01*
X49015440Y-86435434D01*
X48949502Y-86461753D01*
X48879802Y-86448245D01*
X48828470Y-86399199D01*
X48815948Y-86368923D01*
X48785710Y-86256075D01*
X48785706Y-86256064D01*
X48784284Y-86250757D01*
X48756556Y-86191294D01*
X48689849Y-86048238D01*
X48689846Y-86048233D01*
X48687523Y-86043251D01*
X48563126Y-85865594D01*
X48559357Y-85860211D01*
X48559355Y-85860208D01*
X48556198Y-85855700D01*
X48394300Y-85693802D01*
X48389792Y-85690645D01*
X48389789Y-85690643D01*
X48268092Y-85605430D01*
X48206749Y-85562477D01*
X48201767Y-85560154D01*
X48201762Y-85560151D01*
X48004225Y-85468039D01*
X48004224Y-85468039D01*
X47999243Y-85465716D01*
X47993935Y-85464294D01*
X47993933Y-85464293D01*
X47783402Y-85407881D01*
X47783400Y-85407881D01*
X47778087Y-85406457D01*
X47678520Y-85397746D01*
X47609851Y-85391738D01*
X47609844Y-85391738D01*
X47607127Y-85391500D01*
X47492873Y-85391500D01*
X47490156Y-85391738D01*
X47490149Y-85391738D01*
X47421480Y-85397746D01*
X47321913Y-85406457D01*
X47316600Y-85407881D01*
X47316598Y-85407881D01*
X47106067Y-85464293D01*
X47106065Y-85464294D01*
X47100757Y-85465716D01*
X47095776Y-85468039D01*
X47095775Y-85468039D01*
X46898238Y-85560151D01*
X46898233Y-85560154D01*
X46893251Y-85562477D01*
X46831908Y-85605430D01*
X46710211Y-85690643D01*
X46710208Y-85690645D01*
X46705700Y-85693802D01*
X46543802Y-85855700D01*
X46540645Y-85860208D01*
X46540643Y-85860211D01*
X46536874Y-85865594D01*
X46412477Y-86043251D01*
X46410154Y-86048233D01*
X46410151Y-86048238D01*
X46343444Y-86191294D01*
X46315716Y-86250757D01*
X46314294Y-86256065D01*
X46314293Y-86256067D01*
X46262799Y-86448245D01*
X46256457Y-86471913D01*
X46236502Y-86700000D01*
X44500000Y-86700000D01*
X44500000Y-83989694D01*
X48711931Y-83989694D01*
X48727989Y-84153468D01*
X48779932Y-84309615D01*
X48865179Y-84450373D01*
X48979491Y-84568747D01*
X49117189Y-84658854D01*
X49271428Y-84716215D01*
X49278409Y-84717146D01*
X49278411Y-84717147D01*
X49427561Y-84737048D01*
X49427565Y-84737048D01*
X49434542Y-84737979D01*
X49441553Y-84737341D01*
X49441557Y-84737341D01*
X49591403Y-84723704D01*
X49591404Y-84723704D01*
X49598424Y-84723065D01*
X49627062Y-84713760D01*
X49748230Y-84674390D01*
X49748233Y-84674389D01*
X49754929Y-84672213D01*
X49896279Y-84587951D01*
X50015449Y-84474468D01*
X50031458Y-84450373D01*
X50102614Y-84343275D01*
X50102615Y-84343273D01*
X50106515Y-84337403D01*
X50164951Y-84183568D01*
X50187853Y-84020610D01*
X50188141Y-84000000D01*
X50186985Y-83989694D01*
X57511931Y-83989694D01*
X57527989Y-84153468D01*
X57579932Y-84309615D01*
X57665179Y-84450373D01*
X57779491Y-84568747D01*
X57917189Y-84658854D01*
X58071428Y-84716215D01*
X58078409Y-84717146D01*
X58078411Y-84717147D01*
X58227561Y-84737048D01*
X58227565Y-84737048D01*
X58234542Y-84737979D01*
X58241553Y-84737341D01*
X58241557Y-84737341D01*
X58391403Y-84723704D01*
X58391404Y-84723704D01*
X58398424Y-84723065D01*
X58427062Y-84713760D01*
X58548230Y-84674390D01*
X58548233Y-84674389D01*
X58554929Y-84672213D01*
X58696279Y-84587951D01*
X58815449Y-84474468D01*
X58831458Y-84450373D01*
X58902614Y-84343275D01*
X58902615Y-84343273D01*
X58906515Y-84337403D01*
X58964951Y-84183568D01*
X58987853Y-84020610D01*
X58988141Y-84000000D01*
X58986985Y-83989694D01*
X60711931Y-83989694D01*
X60727989Y-84153468D01*
X60779932Y-84309615D01*
X60865179Y-84450373D01*
X60979491Y-84568747D01*
X61117189Y-84658854D01*
X61271428Y-84716215D01*
X61278409Y-84717146D01*
X61278411Y-84717147D01*
X61427561Y-84737048D01*
X61427565Y-84737048D01*
X61434542Y-84737979D01*
X61441553Y-84737341D01*
X61441557Y-84737341D01*
X61591403Y-84723704D01*
X61591404Y-84723704D01*
X61598424Y-84723065D01*
X61627062Y-84713760D01*
X61748230Y-84674390D01*
X61748233Y-84674389D01*
X61754929Y-84672213D01*
X61896279Y-84587951D01*
X62015449Y-84474468D01*
X62031458Y-84450373D01*
X62102614Y-84343275D01*
X62102615Y-84343273D01*
X62106515Y-84337403D01*
X62164951Y-84183568D01*
X62187853Y-84020610D01*
X62188141Y-84000000D01*
X62186985Y-83989694D01*
X63911931Y-83989694D01*
X63927989Y-84153468D01*
X63979932Y-84309615D01*
X64065179Y-84450373D01*
X64179491Y-84568747D01*
X64317189Y-84658854D01*
X64471428Y-84716215D01*
X64478409Y-84717146D01*
X64478411Y-84717147D01*
X64627561Y-84737048D01*
X64627565Y-84737048D01*
X64634542Y-84737979D01*
X64641553Y-84737341D01*
X64641557Y-84737341D01*
X64791403Y-84723704D01*
X64791404Y-84723704D01*
X64798424Y-84723065D01*
X64827062Y-84713760D01*
X64948230Y-84674390D01*
X64948233Y-84674389D01*
X64954929Y-84672213D01*
X65096279Y-84587951D01*
X65215449Y-84474468D01*
X65231458Y-84450373D01*
X65302614Y-84343275D01*
X65302615Y-84343273D01*
X65306515Y-84337403D01*
X65364951Y-84183568D01*
X65387853Y-84020610D01*
X65388141Y-84000000D01*
X65386985Y-83989694D01*
X66311931Y-83989694D01*
X66327989Y-84153468D01*
X66379932Y-84309615D01*
X66465179Y-84450373D01*
X66579491Y-84568747D01*
X66717189Y-84658854D01*
X66871428Y-84716215D01*
X66878409Y-84717146D01*
X66878411Y-84717147D01*
X67027561Y-84737048D01*
X67027565Y-84737048D01*
X67034542Y-84737979D01*
X67041553Y-84737341D01*
X67041557Y-84737341D01*
X67191403Y-84723704D01*
X67191404Y-84723704D01*
X67198424Y-84723065D01*
X67227062Y-84713760D01*
X67348230Y-84674390D01*
X67348233Y-84674389D01*
X67354929Y-84672213D01*
X67496279Y-84587951D01*
X67615449Y-84474468D01*
X67631458Y-84450373D01*
X67702614Y-84343275D01*
X67702615Y-84343273D01*
X67706515Y-84337403D01*
X67764951Y-84183568D01*
X67787853Y-84020610D01*
X67788141Y-84000000D01*
X67786985Y-83989694D01*
X70311931Y-83989694D01*
X70327989Y-84153468D01*
X70379932Y-84309615D01*
X70465179Y-84450373D01*
X70579491Y-84568747D01*
X70717189Y-84658854D01*
X70871428Y-84716215D01*
X70878409Y-84717146D01*
X70878411Y-84717147D01*
X71027561Y-84737048D01*
X71027565Y-84737048D01*
X71034542Y-84737979D01*
X71041553Y-84737341D01*
X71041557Y-84737341D01*
X71191403Y-84723704D01*
X71191404Y-84723704D01*
X71198424Y-84723065D01*
X71227062Y-84713760D01*
X71348230Y-84674390D01*
X71348233Y-84674389D01*
X71354929Y-84672213D01*
X71496279Y-84587951D01*
X71615449Y-84474468D01*
X71631458Y-84450373D01*
X71702614Y-84343275D01*
X71702615Y-84343273D01*
X71706515Y-84337403D01*
X71764951Y-84183568D01*
X71787853Y-84020610D01*
X71788141Y-84000000D01*
X71769798Y-83836466D01*
X71763998Y-83819809D01*
X71717998Y-83687717D01*
X71715680Y-83681060D01*
X71628476Y-83541505D01*
X71570499Y-83483122D01*
X71517486Y-83429737D01*
X71517482Y-83429734D01*
X71512522Y-83424739D01*
X71373580Y-83336563D01*
X71324447Y-83319068D01*
X71225189Y-83283723D01*
X71225187Y-83283722D01*
X71218555Y-83281361D01*
X71211569Y-83280528D01*
X71211565Y-83280527D01*
X71097071Y-83266875D01*
X71055153Y-83261877D01*
X71048150Y-83262613D01*
X71048149Y-83262613D01*
X71004935Y-83267155D01*
X70891495Y-83279078D01*
X70884827Y-83281348D01*
X70742382Y-83329840D01*
X70742379Y-83329841D01*
X70735715Y-83332110D01*
X70595555Y-83418337D01*
X70477982Y-83533473D01*
X70388838Y-83671797D01*
X70386427Y-83678420D01*
X70386426Y-83678423D01*
X70334966Y-83819809D01*
X70334965Y-83819814D01*
X70332556Y-83826432D01*
X70311931Y-83989694D01*
X67786985Y-83989694D01*
X67769798Y-83836466D01*
X67763998Y-83819809D01*
X67717998Y-83687717D01*
X67715680Y-83681060D01*
X67628476Y-83541505D01*
X67570499Y-83483122D01*
X67517486Y-83429737D01*
X67517482Y-83429734D01*
X67512522Y-83424739D01*
X67373580Y-83336563D01*
X67324447Y-83319068D01*
X67225189Y-83283723D01*
X67225187Y-83283722D01*
X67218555Y-83281361D01*
X67211569Y-83280528D01*
X67211565Y-83280527D01*
X67097071Y-83266875D01*
X67055153Y-83261877D01*
X67048150Y-83262613D01*
X67048149Y-83262613D01*
X67004935Y-83267155D01*
X66891495Y-83279078D01*
X66884827Y-83281348D01*
X66742382Y-83329840D01*
X66742379Y-83329841D01*
X66735715Y-83332110D01*
X66595555Y-83418337D01*
X66477982Y-83533473D01*
X66388838Y-83671797D01*
X66386427Y-83678420D01*
X66386426Y-83678423D01*
X66334966Y-83819809D01*
X66334965Y-83819814D01*
X66332556Y-83826432D01*
X66311931Y-83989694D01*
X65386985Y-83989694D01*
X65369798Y-83836466D01*
X65363998Y-83819809D01*
X65317998Y-83687717D01*
X65315680Y-83681060D01*
X65228476Y-83541505D01*
X65170499Y-83483122D01*
X65117486Y-83429737D01*
X65117482Y-83429734D01*
X65112522Y-83424739D01*
X64973580Y-83336563D01*
X64924447Y-83319068D01*
X64825189Y-83283723D01*
X64825187Y-83283722D01*
X64818555Y-83281361D01*
X64811569Y-83280528D01*
X64811565Y-83280527D01*
X64697071Y-83266875D01*
X64655153Y-83261877D01*
X64648150Y-83262613D01*
X64648149Y-83262613D01*
X64604935Y-83267155D01*
X64491495Y-83279078D01*
X64484827Y-83281348D01*
X64342382Y-83329840D01*
X64342379Y-83329841D01*
X64335715Y-83332110D01*
X64195555Y-83418337D01*
X64077982Y-83533473D01*
X63988838Y-83671797D01*
X63986427Y-83678420D01*
X63986426Y-83678423D01*
X63934966Y-83819809D01*
X63934965Y-83819814D01*
X63932556Y-83826432D01*
X63911931Y-83989694D01*
X62186985Y-83989694D01*
X62169798Y-83836466D01*
X62163998Y-83819809D01*
X62117998Y-83687717D01*
X62115680Y-83681060D01*
X62028476Y-83541505D01*
X61970499Y-83483122D01*
X61917486Y-83429737D01*
X61917482Y-83429734D01*
X61912522Y-83424739D01*
X61773580Y-83336563D01*
X61724447Y-83319068D01*
X61625189Y-83283723D01*
X61625187Y-83283722D01*
X61618555Y-83281361D01*
X61611569Y-83280528D01*
X61611565Y-83280527D01*
X61497071Y-83266875D01*
X61455153Y-83261877D01*
X61448150Y-83262613D01*
X61448149Y-83262613D01*
X61404935Y-83267155D01*
X61291495Y-83279078D01*
X61284827Y-83281348D01*
X61142382Y-83329840D01*
X61142379Y-83329841D01*
X61135715Y-83332110D01*
X60995555Y-83418337D01*
X60877982Y-83533473D01*
X60788838Y-83671797D01*
X60786427Y-83678420D01*
X60786426Y-83678423D01*
X60734966Y-83819809D01*
X60734965Y-83819814D01*
X60732556Y-83826432D01*
X60711931Y-83989694D01*
X58986985Y-83989694D01*
X58969798Y-83836466D01*
X58963998Y-83819809D01*
X58917998Y-83687717D01*
X58915680Y-83681060D01*
X58828476Y-83541505D01*
X58770499Y-83483122D01*
X58717486Y-83429737D01*
X58717482Y-83429734D01*
X58712522Y-83424739D01*
X58573580Y-83336563D01*
X58524447Y-83319068D01*
X58425189Y-83283723D01*
X58425187Y-83283722D01*
X58418555Y-83281361D01*
X58411569Y-83280528D01*
X58411565Y-83280527D01*
X58297071Y-83266875D01*
X58255153Y-83261877D01*
X58248150Y-83262613D01*
X58248149Y-83262613D01*
X58204935Y-83267155D01*
X58091495Y-83279078D01*
X58084827Y-83281348D01*
X57942382Y-83329840D01*
X57942379Y-83329841D01*
X57935715Y-83332110D01*
X57795555Y-83418337D01*
X57677982Y-83533473D01*
X57588838Y-83671797D01*
X57586427Y-83678420D01*
X57586426Y-83678423D01*
X57534966Y-83819809D01*
X57534965Y-83819814D01*
X57532556Y-83826432D01*
X57511931Y-83989694D01*
X50186985Y-83989694D01*
X50169798Y-83836466D01*
X50163998Y-83819809D01*
X50117998Y-83687717D01*
X50115680Y-83681060D01*
X50028476Y-83541505D01*
X49970499Y-83483122D01*
X49917486Y-83429737D01*
X49917482Y-83429734D01*
X49912522Y-83424739D01*
X49773580Y-83336563D01*
X49724447Y-83319068D01*
X49625189Y-83283723D01*
X49625187Y-83283722D01*
X49618555Y-83281361D01*
X49611569Y-83280528D01*
X49611565Y-83280527D01*
X49497071Y-83266875D01*
X49455153Y-83261877D01*
X49448150Y-83262613D01*
X49448149Y-83262613D01*
X49404935Y-83267155D01*
X49291495Y-83279078D01*
X49284827Y-83281348D01*
X49142382Y-83329840D01*
X49142379Y-83329841D01*
X49135715Y-83332110D01*
X48995555Y-83418337D01*
X48877982Y-83533473D01*
X48788838Y-83671797D01*
X48786427Y-83678420D01*
X48786426Y-83678423D01*
X48734966Y-83819809D01*
X48734965Y-83819814D01*
X48732556Y-83826432D01*
X48711931Y-83989694D01*
X44500000Y-83989694D01*
X44500000Y-80689694D01*
X53411931Y-80689694D01*
X53427989Y-80853468D01*
X53479932Y-81009615D01*
X53483581Y-81015640D01*
X53545935Y-81118597D01*
X53565179Y-81150373D01*
X53679491Y-81268747D01*
X53817189Y-81358854D01*
X53971428Y-81416215D01*
X53978409Y-81417146D01*
X53978411Y-81417147D01*
X54127561Y-81437048D01*
X54127565Y-81437048D01*
X54134542Y-81437979D01*
X54141553Y-81437341D01*
X54141557Y-81437341D01*
X54291403Y-81423704D01*
X54291404Y-81423704D01*
X54298424Y-81423065D01*
X54406407Y-81387979D01*
X54448230Y-81374390D01*
X54448233Y-81374389D01*
X54454929Y-81372213D01*
X54596279Y-81287951D01*
X54715449Y-81174468D01*
X54731458Y-81150373D01*
X54802614Y-81043275D01*
X54802615Y-81043273D01*
X54806515Y-81037403D01*
X54864951Y-80883568D01*
X54887853Y-80720610D01*
X54888141Y-80700000D01*
X54881377Y-80639694D01*
X57561931Y-80639694D01*
X57577989Y-80803468D01*
X57629932Y-80959615D01*
X57633581Y-80965640D01*
X57677043Y-81037403D01*
X57715179Y-81100373D01*
X57829491Y-81218747D01*
X57967189Y-81308854D01*
X58121428Y-81366215D01*
X58128409Y-81367146D01*
X58128411Y-81367147D01*
X58277561Y-81387048D01*
X58277565Y-81387048D01*
X58284542Y-81387979D01*
X58291553Y-81387341D01*
X58291557Y-81387341D01*
X58441403Y-81373704D01*
X58441404Y-81373704D01*
X58448424Y-81373065D01*
X58492161Y-81358854D01*
X58598230Y-81324390D01*
X58598233Y-81324389D01*
X58604929Y-81322213D01*
X58746279Y-81237951D01*
X58865449Y-81124468D01*
X58881458Y-81100373D01*
X58952614Y-80993275D01*
X58952615Y-80993273D01*
X58956515Y-80987403D01*
X59014951Y-80833568D01*
X59033723Y-80700000D01*
X59037302Y-80674534D01*
X59037303Y-80674527D01*
X59037853Y-80670610D01*
X59038141Y-80650000D01*
X59019798Y-80486466D01*
X59013998Y-80469809D01*
X58983092Y-80381060D01*
X58965680Y-80331060D01*
X58906597Y-80236507D01*
X58882209Y-80197479D01*
X58878476Y-80191505D01*
X58805817Y-80118337D01*
X58767486Y-80079737D01*
X58767482Y-80079734D01*
X58762522Y-80074739D01*
X58623580Y-79986563D01*
X58532026Y-79953962D01*
X58491957Y-79939694D01*
X59361931Y-79939694D01*
X59377989Y-80103468D01*
X59429932Y-80259615D01*
X59433581Y-80265640D01*
X59503483Y-80381060D01*
X59515179Y-80400373D01*
X59629491Y-80518747D01*
X59767189Y-80608854D01*
X59921428Y-80666215D01*
X59928409Y-80667146D01*
X59928411Y-80667147D01*
X60077561Y-80687048D01*
X60077565Y-80687048D01*
X60084542Y-80687979D01*
X60091553Y-80687341D01*
X60091557Y-80687341D01*
X60241403Y-80673704D01*
X60241404Y-80673704D01*
X60248424Y-80673065D01*
X60277062Y-80663760D01*
X60398230Y-80624390D01*
X60398233Y-80624389D01*
X60404929Y-80622213D01*
X60410980Y-80618606D01*
X60410984Y-80618604D01*
X60485222Y-80574349D01*
X60553977Y-80556648D01*
X60618732Y-80577145D01*
X60635067Y-80587834D01*
X60661291Y-80604995D01*
X60661293Y-80604996D01*
X60667189Y-80608854D01*
X60821428Y-80666215D01*
X60828409Y-80667146D01*
X60828411Y-80667147D01*
X60977561Y-80687048D01*
X60977565Y-80687048D01*
X60984542Y-80687979D01*
X60991553Y-80687341D01*
X60991557Y-80687341D01*
X61141403Y-80673704D01*
X61141404Y-80673704D01*
X61148424Y-80673065D01*
X61177062Y-80663760D01*
X61298230Y-80624390D01*
X61298233Y-80624389D01*
X61304929Y-80622213D01*
X61310980Y-80618606D01*
X61310984Y-80618604D01*
X61385222Y-80574349D01*
X61453977Y-80556648D01*
X61518732Y-80577145D01*
X61535067Y-80587834D01*
X61561291Y-80604995D01*
X61561293Y-80604996D01*
X61567189Y-80608854D01*
X61721428Y-80666215D01*
X61728409Y-80667146D01*
X61728411Y-80667147D01*
X61877561Y-80687048D01*
X61877565Y-80687048D01*
X61884542Y-80687979D01*
X61891553Y-80687341D01*
X61891557Y-80687341D01*
X62041403Y-80673704D01*
X62041404Y-80673704D01*
X62048424Y-80673065D01*
X62077062Y-80663760D01*
X62198230Y-80624390D01*
X62198233Y-80624389D01*
X62204929Y-80622213D01*
X62346279Y-80537951D01*
X62465449Y-80424468D01*
X62481458Y-80400373D01*
X62552614Y-80293275D01*
X62552615Y-80293273D01*
X62556515Y-80287403D01*
X62614951Y-80133568D01*
X62628691Y-80035801D01*
X62637302Y-79974534D01*
X62637303Y-79974527D01*
X62637853Y-79970610D01*
X62638141Y-79950000D01*
X62636985Y-79939694D01*
X69861931Y-79939694D01*
X69877989Y-80103468D01*
X69929932Y-80259615D01*
X69933581Y-80265640D01*
X70003483Y-80381060D01*
X70015179Y-80400373D01*
X70129491Y-80518747D01*
X70267189Y-80608854D01*
X70421428Y-80666215D01*
X70428409Y-80667146D01*
X70428411Y-80667147D01*
X70577561Y-80687048D01*
X70577565Y-80687048D01*
X70584542Y-80687979D01*
X70591553Y-80687341D01*
X70591557Y-80687341D01*
X70741403Y-80673704D01*
X70741404Y-80673704D01*
X70748424Y-80673065D01*
X70777062Y-80663760D01*
X70898230Y-80624390D01*
X70898233Y-80624389D01*
X70904929Y-80622213D01*
X70910980Y-80618606D01*
X70910984Y-80618604D01*
X70985222Y-80574349D01*
X71053977Y-80556648D01*
X71118732Y-80577145D01*
X71135067Y-80587834D01*
X71161291Y-80604995D01*
X71161293Y-80604996D01*
X71167189Y-80608854D01*
X71321428Y-80666215D01*
X71328409Y-80667146D01*
X71328411Y-80667147D01*
X71477561Y-80687048D01*
X71477565Y-80687048D01*
X71484542Y-80687979D01*
X71491553Y-80687341D01*
X71491557Y-80687341D01*
X71641403Y-80673704D01*
X71641404Y-80673704D01*
X71648424Y-80673065D01*
X71677062Y-80663760D01*
X71798230Y-80624390D01*
X71798233Y-80624389D01*
X71804929Y-80622213D01*
X71810980Y-80618606D01*
X71810984Y-80618604D01*
X71885222Y-80574349D01*
X71953977Y-80556648D01*
X72018732Y-80577145D01*
X72035067Y-80587834D01*
X72061291Y-80604995D01*
X72061293Y-80604996D01*
X72067189Y-80608854D01*
X72221428Y-80666215D01*
X72228409Y-80667146D01*
X72228411Y-80667147D01*
X72377561Y-80687048D01*
X72377565Y-80687048D01*
X72384542Y-80687979D01*
X72391553Y-80687341D01*
X72391557Y-80687341D01*
X72541403Y-80673704D01*
X72541404Y-80673704D01*
X72548424Y-80673065D01*
X72577062Y-80663760D01*
X72698230Y-80624390D01*
X72698233Y-80624389D01*
X72704929Y-80622213D01*
X72846279Y-80537951D01*
X72965449Y-80424468D01*
X72981458Y-80400373D01*
X73052614Y-80293275D01*
X73052615Y-80293273D01*
X73056515Y-80287403D01*
X73114951Y-80133568D01*
X73128691Y-80035801D01*
X73137302Y-79974534D01*
X73137303Y-79974527D01*
X73137853Y-79970610D01*
X73138141Y-79950000D01*
X73119798Y-79786466D01*
X73113998Y-79769809D01*
X73067998Y-79637717D01*
X73065680Y-79631060D01*
X72978476Y-79491505D01*
X72900236Y-79412717D01*
X72867486Y-79379737D01*
X72867482Y-79379734D01*
X72862522Y-79374739D01*
X72723580Y-79286563D01*
X72674447Y-79269068D01*
X72575189Y-79233723D01*
X72575187Y-79233722D01*
X72568555Y-79231361D01*
X72561569Y-79230528D01*
X72561565Y-79230527D01*
X72447071Y-79216875D01*
X72405153Y-79211877D01*
X72398150Y-79212613D01*
X72398149Y-79212613D01*
X72354935Y-79217155D01*
X72241495Y-79229078D01*
X72234827Y-79231348D01*
X72092382Y-79279840D01*
X72092379Y-79279841D01*
X72085715Y-79282110D01*
X72043012Y-79308381D01*
X72016107Y-79324933D01*
X71947606Y-79343591D01*
X71882572Y-79324000D01*
X71823580Y-79286563D01*
X71774447Y-79269068D01*
X71675189Y-79233723D01*
X71675187Y-79233722D01*
X71668555Y-79231361D01*
X71661569Y-79230528D01*
X71661565Y-79230527D01*
X71547071Y-79216875D01*
X71505153Y-79211877D01*
X71498150Y-79212613D01*
X71498149Y-79212613D01*
X71454935Y-79217155D01*
X71341495Y-79229078D01*
X71334827Y-79231348D01*
X71192382Y-79279840D01*
X71192379Y-79279841D01*
X71185715Y-79282110D01*
X71143012Y-79308381D01*
X71116107Y-79324933D01*
X71047606Y-79343591D01*
X70982572Y-79324000D01*
X70923580Y-79286563D01*
X70874447Y-79269068D01*
X70775189Y-79233723D01*
X70775187Y-79233722D01*
X70768555Y-79231361D01*
X70761569Y-79230528D01*
X70761565Y-79230527D01*
X70647071Y-79216875D01*
X70605153Y-79211877D01*
X70598150Y-79212613D01*
X70598149Y-79212613D01*
X70554935Y-79217155D01*
X70441495Y-79229078D01*
X70434827Y-79231348D01*
X70292382Y-79279840D01*
X70292379Y-79279841D01*
X70285715Y-79282110D01*
X70145555Y-79368337D01*
X70027982Y-79483473D01*
X69938838Y-79621797D01*
X69936427Y-79628420D01*
X69936426Y-79628423D01*
X69884966Y-79769809D01*
X69884965Y-79769814D01*
X69882556Y-79776432D01*
X69861931Y-79939694D01*
X62636985Y-79939694D01*
X62619798Y-79786466D01*
X62613998Y-79769809D01*
X62567998Y-79637717D01*
X62565680Y-79631060D01*
X62478476Y-79491505D01*
X62400236Y-79412717D01*
X62367486Y-79379737D01*
X62367482Y-79379734D01*
X62362522Y-79374739D01*
X62223580Y-79286563D01*
X62174447Y-79269068D01*
X62075189Y-79233723D01*
X62075187Y-79233722D01*
X62068555Y-79231361D01*
X62061569Y-79230528D01*
X62061565Y-79230527D01*
X61947071Y-79216875D01*
X61905153Y-79211877D01*
X61898150Y-79212613D01*
X61898149Y-79212613D01*
X61854935Y-79217155D01*
X61741495Y-79229078D01*
X61734827Y-79231348D01*
X61592382Y-79279840D01*
X61592379Y-79279841D01*
X61585715Y-79282110D01*
X61543012Y-79308381D01*
X61516107Y-79324933D01*
X61447606Y-79343591D01*
X61382572Y-79324000D01*
X61323580Y-79286563D01*
X61274447Y-79269068D01*
X61175189Y-79233723D01*
X61175187Y-79233722D01*
X61168555Y-79231361D01*
X61161569Y-79230528D01*
X61161565Y-79230527D01*
X61047071Y-79216875D01*
X61005153Y-79211877D01*
X60998150Y-79212613D01*
X60998149Y-79212613D01*
X60954935Y-79217155D01*
X60841495Y-79229078D01*
X60834827Y-79231348D01*
X60692382Y-79279840D01*
X60692379Y-79279841D01*
X60685715Y-79282110D01*
X60643012Y-79308381D01*
X60616107Y-79324933D01*
X60547606Y-79343591D01*
X60482572Y-79324000D01*
X60423580Y-79286563D01*
X60374447Y-79269068D01*
X60275189Y-79233723D01*
X60275187Y-79233722D01*
X60268555Y-79231361D01*
X60261569Y-79230528D01*
X60261565Y-79230527D01*
X60147071Y-79216875D01*
X60105153Y-79211877D01*
X60098150Y-79212613D01*
X60098149Y-79212613D01*
X60054935Y-79217155D01*
X59941495Y-79229078D01*
X59934827Y-79231348D01*
X59792382Y-79279840D01*
X59792379Y-79279841D01*
X59785715Y-79282110D01*
X59645555Y-79368337D01*
X59527982Y-79483473D01*
X59438838Y-79621797D01*
X59436427Y-79628420D01*
X59436426Y-79628423D01*
X59384966Y-79769809D01*
X59384965Y-79769814D01*
X59382556Y-79776432D01*
X59361931Y-79939694D01*
X58491957Y-79939694D01*
X58475189Y-79933723D01*
X58475187Y-79933722D01*
X58468555Y-79931361D01*
X58461569Y-79930528D01*
X58461565Y-79930527D01*
X58347071Y-79916875D01*
X58305153Y-79911877D01*
X58298150Y-79912613D01*
X58298149Y-79912613D01*
X58254935Y-79917155D01*
X58141495Y-79929078D01*
X58127850Y-79933723D01*
X57992382Y-79979840D01*
X57992379Y-79979841D01*
X57985715Y-79982110D01*
X57845555Y-80068337D01*
X57727982Y-80183473D01*
X57638838Y-80321797D01*
X57636427Y-80328420D01*
X57636426Y-80328423D01*
X57584966Y-80469809D01*
X57584965Y-80469814D01*
X57582556Y-80476432D01*
X57561931Y-80639694D01*
X54881377Y-80639694D01*
X54869798Y-80536466D01*
X54863998Y-80519809D01*
X54828752Y-80418597D01*
X54815680Y-80381060D01*
X54784437Y-80331060D01*
X54732209Y-80247479D01*
X54728476Y-80241505D01*
X54621290Y-80133568D01*
X54617486Y-80129737D01*
X54617482Y-80129734D01*
X54612522Y-80124739D01*
X54473580Y-80036563D01*
X54424447Y-80019068D01*
X54325189Y-79983723D01*
X54325187Y-79983722D01*
X54318555Y-79981361D01*
X54311569Y-79980528D01*
X54311565Y-79980527D01*
X54195173Y-79966649D01*
X54155153Y-79961877D01*
X54148150Y-79962613D01*
X54148149Y-79962613D01*
X54109750Y-79966649D01*
X53991495Y-79979078D01*
X53984827Y-79981348D01*
X53842382Y-80029840D01*
X53842379Y-80029841D01*
X53835715Y-80032110D01*
X53695555Y-80118337D01*
X53577982Y-80233473D01*
X53488838Y-80371797D01*
X53486427Y-80378420D01*
X53486426Y-80378423D01*
X53434966Y-80519809D01*
X53434965Y-80519814D01*
X53432556Y-80526432D01*
X53411931Y-80689694D01*
X44500000Y-80689694D01*
X44500000Y-79939694D01*
X47311931Y-79939694D01*
X47327989Y-80103468D01*
X47379932Y-80259615D01*
X47383581Y-80265640D01*
X47453483Y-80381060D01*
X47465179Y-80400373D01*
X47579491Y-80518747D01*
X47717189Y-80608854D01*
X47871428Y-80666215D01*
X47878409Y-80667146D01*
X47878411Y-80667147D01*
X48027561Y-80687048D01*
X48027565Y-80687048D01*
X48034542Y-80687979D01*
X48041553Y-80687341D01*
X48041557Y-80687341D01*
X48191403Y-80673704D01*
X48191404Y-80673704D01*
X48198424Y-80673065D01*
X48227062Y-80663760D01*
X48348230Y-80624390D01*
X48348233Y-80624389D01*
X48354929Y-80622213D01*
X48360980Y-80618606D01*
X48360982Y-80618605D01*
X48487553Y-80543154D01*
X48556308Y-80525454D01*
X48621063Y-80545951D01*
X48717189Y-80608854D01*
X48871428Y-80666215D01*
X48878409Y-80667146D01*
X48878411Y-80667147D01*
X49027561Y-80687048D01*
X49027565Y-80687048D01*
X49034542Y-80687979D01*
X49041553Y-80687341D01*
X49041557Y-80687341D01*
X49191403Y-80673704D01*
X49191404Y-80673704D01*
X49198424Y-80673065D01*
X49227062Y-80663760D01*
X49348230Y-80624390D01*
X49348233Y-80624389D01*
X49354929Y-80622213D01*
X49409057Y-80589946D01*
X49477812Y-80572246D01*
X49542569Y-80592744D01*
X49561291Y-80604996D01*
X49561301Y-80605001D01*
X49567189Y-80608854D01*
X49573785Y-80611307D01*
X49573787Y-80611308D01*
X49593414Y-80618607D01*
X49721428Y-80666215D01*
X49728409Y-80667146D01*
X49728411Y-80667147D01*
X49877561Y-80687048D01*
X49877565Y-80687048D01*
X49884542Y-80687979D01*
X49891553Y-80687341D01*
X49891557Y-80687341D01*
X50041403Y-80673704D01*
X50041404Y-80673704D01*
X50048424Y-80673065D01*
X50077062Y-80663760D01*
X50198230Y-80624390D01*
X50198233Y-80624389D01*
X50204929Y-80622213D01*
X50346279Y-80537951D01*
X50465449Y-80424468D01*
X50481458Y-80400373D01*
X50552614Y-80293275D01*
X50552615Y-80293273D01*
X50556515Y-80287403D01*
X50614951Y-80133568D01*
X50628691Y-80035801D01*
X50637302Y-79974534D01*
X50637303Y-79974527D01*
X50637853Y-79970610D01*
X50638141Y-79950000D01*
X50619798Y-79786466D01*
X50613998Y-79769809D01*
X50567998Y-79637717D01*
X50565680Y-79631060D01*
X50478476Y-79491505D01*
X50400236Y-79412717D01*
X50367486Y-79379737D01*
X50367482Y-79379734D01*
X50362522Y-79374739D01*
X50223580Y-79286563D01*
X50174447Y-79269068D01*
X50075189Y-79233723D01*
X50075187Y-79233722D01*
X50068555Y-79231361D01*
X50061569Y-79230528D01*
X50061565Y-79230527D01*
X49947071Y-79216875D01*
X49905153Y-79211877D01*
X49898150Y-79212613D01*
X49898149Y-79212613D01*
X49854935Y-79217155D01*
X49741495Y-79229078D01*
X49734827Y-79231348D01*
X49592382Y-79279840D01*
X49592379Y-79279841D01*
X49585715Y-79282110D01*
X49572334Y-79290342D01*
X49541497Y-79309313D01*
X49472996Y-79327972D01*
X49407959Y-79308381D01*
X49373580Y-79286563D01*
X49324447Y-79269068D01*
X49225189Y-79233723D01*
X49225187Y-79233722D01*
X49218555Y-79231361D01*
X49211569Y-79230528D01*
X49211565Y-79230527D01*
X49097071Y-79216875D01*
X49055153Y-79211877D01*
X49048150Y-79212613D01*
X49048149Y-79212613D01*
X49004935Y-79217155D01*
X48891495Y-79229078D01*
X48884827Y-79231348D01*
X48742382Y-79279840D01*
X48742379Y-79279841D01*
X48735715Y-79282110D01*
X48729715Y-79285801D01*
X48729709Y-79285804D01*
X48615331Y-79356170D01*
X48546830Y-79374829D01*
X48481795Y-79355238D01*
X48379536Y-79290342D01*
X48379530Y-79290339D01*
X48373580Y-79286563D01*
X48324447Y-79269068D01*
X48225189Y-79233723D01*
X48225187Y-79233722D01*
X48218555Y-79231361D01*
X48211569Y-79230528D01*
X48211565Y-79230527D01*
X48097071Y-79216875D01*
X48055153Y-79211877D01*
X48048150Y-79212613D01*
X48048149Y-79212613D01*
X48004935Y-79217155D01*
X47891495Y-79229078D01*
X47884827Y-79231348D01*
X47742382Y-79279840D01*
X47742379Y-79279841D01*
X47735715Y-79282110D01*
X47595555Y-79368337D01*
X47477982Y-79483473D01*
X47388838Y-79621797D01*
X47386427Y-79628420D01*
X47386426Y-79628423D01*
X47334966Y-79769809D01*
X47334965Y-79769814D01*
X47332556Y-79776432D01*
X47311931Y-79939694D01*
X44500000Y-79939694D01*
X44500000Y-64729454D01*
X44520002Y-64661333D01*
X44573658Y-64614840D01*
X44643932Y-64604736D01*
X44708512Y-64634230D01*
X44733202Y-64663245D01*
X44851146Y-64854212D01*
X44902266Y-64936983D01*
X45134080Y-65239089D01*
X45395237Y-65516222D01*
X45683063Y-65765545D01*
X45685673Y-65767380D01*
X45685679Y-65767384D01*
X45719932Y-65791457D01*
X45994611Y-65984504D01*
X46326691Y-66170859D01*
X46329605Y-66172126D01*
X46329609Y-66172128D01*
X46472884Y-66234426D01*
X46675904Y-66322701D01*
X46718744Y-66336373D01*
X47035629Y-66437504D01*
X47035637Y-66437506D01*
X47038673Y-66438475D01*
X47241044Y-66481121D01*
X47408166Y-66516340D01*
X47408171Y-66516341D01*
X47411285Y-66516997D01*
X47789925Y-66557462D01*
X47793112Y-66557479D01*
X47793118Y-66557479D01*
X47965791Y-66558383D01*
X48170716Y-66559456D01*
X48314092Y-66545650D01*
X48546594Y-66523263D01*
X48546599Y-66523262D01*
X48549759Y-66522958D01*
X48552879Y-66522335D01*
X48552883Y-66522334D01*
X48920045Y-66448968D01*
X48920044Y-66448968D01*
X48923173Y-66448343D01*
X48926209Y-66447409D01*
X48926217Y-66447407D01*
X49284090Y-66337310D01*
X49284094Y-66337309D01*
X49287135Y-66336373D01*
X49290070Y-66335133D01*
X49290076Y-66335131D01*
X49445860Y-66269325D01*
X49637918Y-66188197D01*
X49971932Y-66005330D01*
X50285756Y-65789644D01*
X50288195Y-65787576D01*
X50288201Y-65787571D01*
X50573736Y-65545420D01*
X50576177Y-65543350D01*
X50578383Y-65541058D01*
X50578389Y-65541052D01*
X50838014Y-65271260D01*
X50840221Y-65268967D01*
X51075186Y-64969305D01*
X51278665Y-64647433D01*
X51280085Y-64644585D01*
X51280090Y-64644576D01*
X51447155Y-64309494D01*
X51448575Y-64306646D01*
X51583177Y-63950432D01*
X51681092Y-63582440D01*
X51686780Y-63546934D01*
X51740813Y-63209588D01*
X51741318Y-63206437D01*
X51743763Y-63164045D01*
X51763140Y-62827968D01*
X51763238Y-62826273D01*
X51763330Y-62800000D01*
X51744064Y-62419692D01*
X51686465Y-62043277D01*
X51591121Y-61674611D01*
X51586487Y-61662082D01*
X51500242Y-61428932D01*
X51459010Y-61317467D01*
X51400000Y-61197012D01*
X51292889Y-60978370D01*
X51292885Y-60978362D01*
X51291483Y-60975501D01*
X51090255Y-60652217D01*
X50857388Y-60350922D01*
X50595266Y-60074702D01*
X50306572Y-59826386D01*
X49994261Y-59608515D01*
X49661532Y-59423321D01*
X49658612Y-59422063D01*
X49658607Y-59422061D01*
X49314726Y-59273962D01*
X49314716Y-59273958D01*
X49311792Y-59272699D01*
X48948620Y-59158191D01*
X48683149Y-59103214D01*
X48578861Y-59081617D01*
X48578858Y-59081617D01*
X48575736Y-59080970D01*
X48297836Y-59052253D01*
X48200113Y-59042154D01*
X48200110Y-59042154D01*
X48196957Y-59041828D01*
X48193790Y-59041822D01*
X48193781Y-59041822D01*
X48006199Y-59041495D01*
X47816162Y-59041163D01*
X47437249Y-59078983D01*
X47434114Y-59079621D01*
X47434113Y-59079621D01*
X47067219Y-59154267D01*
X47064098Y-59154902D01*
X46700529Y-59268141D01*
X46350265Y-59417541D01*
X46347477Y-59419080D01*
X46347475Y-59419081D01*
X46248181Y-59473894D01*
X46016891Y-59601573D01*
X46014270Y-59603388D01*
X46014265Y-59603391D01*
X45706446Y-59816536D01*
X45703822Y-59818353D01*
X45414263Y-60065660D01*
X45151178Y-60340963D01*
X44917261Y-60641443D01*
X44915565Y-60644147D01*
X44915562Y-60644151D01*
X44732737Y-60935598D01*
X44679594Y-60982676D01*
X44609435Y-60993548D01*
X44544535Y-60964764D01*
X44505500Y-60905461D01*
X44500000Y-60868642D01*
X44500000Y-40660411D01*
X44520002Y-40592290D01*
X44573658Y-40545797D01*
X44643932Y-40535693D01*
X44708512Y-40565187D01*
X44733202Y-40594202D01*
X44830892Y-40752375D01*
X44852266Y-40786983D01*
X45084080Y-41089089D01*
X45345237Y-41366222D01*
X45633063Y-41615545D01*
X45635673Y-41617380D01*
X45635679Y-41617384D01*
X45669932Y-41641457D01*
X45944611Y-41834504D01*
X46276691Y-42020859D01*
X46279605Y-42022126D01*
X46279609Y-42022128D01*
X46422884Y-42084426D01*
X46625904Y-42172701D01*
X46668744Y-42186373D01*
X46985629Y-42287504D01*
X46985637Y-42287506D01*
X46988673Y-42288475D01*
X47191044Y-42331121D01*
X47358166Y-42366340D01*
X47358171Y-42366341D01*
X47361285Y-42366997D01*
X47739925Y-42407462D01*
X47743112Y-42407479D01*
X47743118Y-42407479D01*
X47915791Y-42408383D01*
X48120716Y-42409456D01*
X48264092Y-42395650D01*
X48496594Y-42373263D01*
X48496599Y-42373262D01*
X48499759Y-42372958D01*
X48502879Y-42372335D01*
X48502883Y-42372334D01*
X48870045Y-42298968D01*
X48870044Y-42298968D01*
X48873173Y-42298343D01*
X48876209Y-42297409D01*
X48876217Y-42297407D01*
X49234090Y-42187310D01*
X49234094Y-42187309D01*
X49237135Y-42186373D01*
X49240070Y-42185133D01*
X49240076Y-42185131D01*
X49395860Y-42119325D01*
X49587918Y-42038197D01*
X49921932Y-41855330D01*
X50235756Y-41639644D01*
X50238195Y-41637576D01*
X50238201Y-41637571D01*
X50523736Y-41395420D01*
X50526177Y-41393350D01*
X50528383Y-41391058D01*
X50528389Y-41391052D01*
X50788014Y-41121260D01*
X50790221Y-41118967D01*
X51025186Y-40819305D01*
X51067498Y-40752375D01*
X51185833Y-40565187D01*
X51228665Y-40497433D01*
X51230085Y-40494585D01*
X51230090Y-40494576D01*
X51397155Y-40159494D01*
X51398575Y-40156646D01*
X51533177Y-39800432D01*
X51631092Y-39432440D01*
X51636780Y-39396934D01*
X51690813Y-39059588D01*
X51691318Y-39056437D01*
X51693763Y-39014045D01*
X51713140Y-38677968D01*
X51713238Y-38676273D01*
X51713330Y-38650000D01*
X51694064Y-38269692D01*
X51636465Y-37893277D01*
X51541121Y-37524611D01*
X51536487Y-37512082D01*
X51495182Y-37400420D01*
X51409010Y-37167467D01*
X51401699Y-37152543D01*
X51242889Y-36828370D01*
X51242885Y-36828362D01*
X51241483Y-36825501D01*
X51040255Y-36502217D01*
X50807388Y-36200922D01*
X50545266Y-35924702D01*
X50256572Y-35676386D01*
X49944261Y-35458515D01*
X49611532Y-35273321D01*
X49608612Y-35272063D01*
X49608607Y-35272061D01*
X49264726Y-35123962D01*
X49264716Y-35123958D01*
X49261792Y-35122699D01*
X48898620Y-35008191D01*
X48619429Y-34950373D01*
X48528861Y-34931617D01*
X48528858Y-34931617D01*
X48525736Y-34930970D01*
X48247836Y-34902253D01*
X48150113Y-34892154D01*
X48150110Y-34892154D01*
X48146957Y-34891828D01*
X48143790Y-34891822D01*
X48143781Y-34891822D01*
X47956199Y-34891495D01*
X47766162Y-34891163D01*
X47387249Y-34928983D01*
X47384114Y-34929621D01*
X47384113Y-34929621D01*
X47192541Y-34968597D01*
X47014098Y-35004902D01*
X46650529Y-35118141D01*
X46300265Y-35267541D01*
X46297477Y-35269080D01*
X46297475Y-35269081D01*
X46198181Y-35323894D01*
X45966891Y-35451573D01*
X45964270Y-35453388D01*
X45964265Y-35453391D01*
X45656446Y-35666536D01*
X45653822Y-35668353D01*
X45364263Y-35915660D01*
X45101178Y-36190963D01*
X45099221Y-36193476D01*
X45099220Y-36193478D01*
X44877221Y-36478649D01*
X44867261Y-36491443D01*
X44865565Y-36494147D01*
X44865562Y-36494151D01*
X44732737Y-36705892D01*
X44679594Y-36752970D01*
X44609435Y-36763842D01*
X44544535Y-36735058D01*
X44505500Y-36675756D01*
X44500000Y-36638936D01*
X44500000Y-34626000D01*
X44520002Y-34557879D01*
X44573658Y-34511386D01*
X44626000Y-34500000D01*
X50000000Y-34500000D01*
X50000000Y-33489694D01*
X61661931Y-33489694D01*
X61677989Y-33653468D01*
X61729932Y-33809615D01*
X61733581Y-33815640D01*
X61797369Y-33920965D01*
X61815179Y-33950373D01*
X61929491Y-34068747D01*
X62067189Y-34158854D01*
X62221428Y-34216215D01*
X62228409Y-34217146D01*
X62228411Y-34217147D01*
X62383185Y-34237798D01*
X62448062Y-34266634D01*
X62479312Y-34307751D01*
X62479932Y-34309615D01*
X62483579Y-34315636D01*
X62483579Y-34315637D01*
X62500433Y-34343465D01*
X62565179Y-34450373D01*
X62679491Y-34568747D01*
X62817189Y-34658854D01*
X62971428Y-34716215D01*
X62978409Y-34717146D01*
X62978411Y-34717147D01*
X63133185Y-34737798D01*
X63198062Y-34766634D01*
X63229312Y-34807751D01*
X63229932Y-34809615D01*
X63233579Y-34815636D01*
X63233579Y-34815637D01*
X63302225Y-34928983D01*
X63315179Y-34950373D01*
X63429491Y-35068747D01*
X63567189Y-35158854D01*
X63721428Y-35216215D01*
X63728409Y-35217146D01*
X63728411Y-35217147D01*
X63877561Y-35237048D01*
X63877565Y-35237048D01*
X63884542Y-35237979D01*
X63891553Y-35237341D01*
X63891557Y-35237341D01*
X64041403Y-35223704D01*
X64041404Y-35223704D01*
X64048424Y-35223065D01*
X64077062Y-35213760D01*
X64198230Y-35174390D01*
X64198233Y-35174389D01*
X64204929Y-35172213D01*
X64346279Y-35087951D01*
X64465449Y-34974468D01*
X64481458Y-34950373D01*
X64552614Y-34843275D01*
X64552615Y-34843273D01*
X64556515Y-34837403D01*
X64614951Y-34683568D01*
X64631800Y-34563679D01*
X64637302Y-34524534D01*
X64637303Y-34524527D01*
X64637853Y-34520610D01*
X64638141Y-34500000D01*
X64619798Y-34336466D01*
X64565680Y-34181060D01*
X64478476Y-34041505D01*
X64381997Y-33944350D01*
X64367486Y-33929737D01*
X64367482Y-33929734D01*
X64362522Y-33924739D01*
X64223580Y-33836563D01*
X64174447Y-33819068D01*
X64075189Y-33783723D01*
X64075187Y-33783722D01*
X64068555Y-33781361D01*
X64061567Y-33780528D01*
X64061564Y-33780527D01*
X63919184Y-33763550D01*
X63853910Y-33735623D01*
X63820470Y-33692876D01*
X63817998Y-33687716D01*
X63815680Y-33681060D01*
X63728476Y-33541505D01*
X63670080Y-33482700D01*
X63617486Y-33429737D01*
X63617482Y-33429734D01*
X63612522Y-33424739D01*
X63473580Y-33336563D01*
X63424447Y-33319068D01*
X63325189Y-33283723D01*
X63325187Y-33283722D01*
X63318555Y-33281361D01*
X63311567Y-33280528D01*
X63311564Y-33280527D01*
X63169184Y-33263550D01*
X63103910Y-33235623D01*
X63070470Y-33192876D01*
X63067998Y-33187716D01*
X63065680Y-33181060D01*
X62978476Y-33041505D01*
X62920499Y-32983122D01*
X62867486Y-32929737D01*
X62867482Y-32929734D01*
X62862522Y-32924739D01*
X62723580Y-32836563D01*
X62674447Y-32819068D01*
X62575189Y-32783723D01*
X62575187Y-32783722D01*
X62568555Y-32781361D01*
X62561569Y-32780528D01*
X62561565Y-32780527D01*
X62447071Y-32766875D01*
X62405153Y-32761877D01*
X62398150Y-32762613D01*
X62398149Y-32762613D01*
X62354935Y-32767155D01*
X62241495Y-32779078D01*
X62234827Y-32781348D01*
X62092382Y-32829840D01*
X62092379Y-32829841D01*
X62085715Y-32832110D01*
X61945555Y-32918337D01*
X61827982Y-33033473D01*
X61738838Y-33171797D01*
X61736427Y-33178420D01*
X61736426Y-33178423D01*
X61684966Y-33319809D01*
X61684965Y-33319814D01*
X61682556Y-33326432D01*
X61661931Y-33489694D01*
X50000000Y-33489694D01*
X50000000Y-29126000D01*
X50020002Y-29057879D01*
X50073658Y-29011386D01*
X50126000Y-29000000D01*
X61569329Y-29000000D01*
X61637450Y-29020002D01*
G37*
%TD.AperFunction*%
%TD*%
M02*
