%TF.GenerationSoftware,KiCad,Pcbnew,7.0.11-2.fc39*%
%TF.CreationDate,2024-03-16T22:06:28+01:00*%
%TF.ProjectId,mini-pcie-breakout,6d696e69-2d70-4636-9965-2d627265616b,rev?*%
%TF.SameCoordinates,Original*%
%TF.FileFunction,Copper,L1,Top*%
%TF.FilePolarity,Positive*%
%FSLAX46Y46*%
G04 Gerber Fmt 4.6, Leading zero omitted, Abs format (unit mm)*
G04 Created by KiCad (PCBNEW 7.0.11-2.fc39) date 2024-03-16 22:06:28*
%MOMM*%
%LPD*%
G01*
G04 APERTURE LIST*
G04 Aperture macros list*
%AMRoundRect*
0 Rectangle with rounded corners*
0 $1 Rounding radius*
0 $2 $3 $4 $5 $6 $7 $8 $9 X,Y pos of 4 corners*
0 Add a 4 corners polygon primitive as box body*
4,1,4,$2,$3,$4,$5,$6,$7,$8,$9,$2,$3,0*
0 Add four circle primitives for the rounded corners*
1,1,$1+$1,$2,$3*
1,1,$1+$1,$4,$5*
1,1,$1+$1,$6,$7*
1,1,$1+$1,$8,$9*
0 Add four rect primitives between the rounded corners*
20,1,$1+$1,$2,$3,$4,$5,0*
20,1,$1+$1,$4,$5,$6,$7,0*
20,1,$1+$1,$6,$7,$8,$9,0*
20,1,$1+$1,$8,$9,$2,$3,0*%
G04 Aperture macros list end*
%TA.AperFunction,SMDPad,CuDef*%
%ADD10R,2.000000X2.000000*%
%TD*%
%TA.AperFunction,SMDPad,CuDef*%
%ADD11RoundRect,0.125000X-0.125000X-0.875000X0.125000X-0.875000X0.125000X0.875000X-0.125000X0.875000X0*%
%TD*%
%TA.AperFunction,SMDPad,CuDef*%
%ADD12RoundRect,0.140000X-0.140000X-0.170000X0.140000X-0.170000X0.140000X0.170000X-0.140000X0.170000X0*%
%TD*%
%TA.AperFunction,SMDPad,CuDef*%
%ADD13RoundRect,0.140000X-0.170000X0.140000X-0.170000X-0.140000X0.170000X-0.140000X0.170000X0.140000X0*%
%TD*%
%TA.AperFunction,SMDPad,CuDef*%
%ADD14R,2.300000X3.200000*%
%TD*%
%TA.AperFunction,SMDPad,CuDef*%
%ADD15R,0.600000X2.000000*%
%TD*%
%TA.AperFunction,SMDPad,CuDef*%
%ADD16RoundRect,0.135000X-0.135000X-0.185000X0.135000X-0.185000X0.135000X0.185000X-0.135000X0.185000X0*%
%TD*%
%TA.AperFunction,SMDPad,CuDef*%
%ADD17R,2.000000X1.500000*%
%TD*%
%TA.AperFunction,SMDPad,CuDef*%
%ADD18R,2.000000X3.800000*%
%TD*%
%TA.AperFunction,SMDPad,CuDef*%
%ADD19RoundRect,0.140000X0.140000X0.170000X-0.140000X0.170000X-0.140000X-0.170000X0.140000X-0.170000X0*%
%TD*%
%TA.AperFunction,ComponentPad*%
%ADD20C,6.500000*%
%TD*%
%TA.AperFunction,ViaPad*%
%ADD21C,0.450000*%
%TD*%
%TA.AperFunction,Conductor*%
%ADD22C,0.500000*%
%TD*%
%TA.AperFunction,Conductor*%
%ADD23C,0.127000*%
%TD*%
%TA.AperFunction,Conductor*%
%ADD24C,1.000000*%
%TD*%
%TA.AperFunction,Conductor*%
%ADD25C,0.250000*%
%TD*%
%TA.AperFunction,Conductor*%
%ADD26C,0.300000*%
%TD*%
G04 APERTURE END LIST*
D10*
%TO.P,TP2,1,1*%
%TO.N,GND*%
X56750000Y-98000000D03*
%TD*%
D11*
%TO.P,J4,1,Pin_1*%
%TO.N,/CLK-*%
X52150000Y-98000000D03*
%TO.P,J4,2,Pin_2*%
%TO.N,/CLK+*%
X53150000Y-98000000D03*
%TD*%
D12*
%TO.P,C5,1*%
%TO.N,+3V3*%
X48070000Y-80700000D03*
%TO.P,C5,2*%
%TO.N,GND*%
X49030000Y-80700000D03*
%TD*%
D11*
%TO.P,J3,1,Pin_1*%
%TO.N,/TX-*%
X63350000Y-98000000D03*
%TO.P,J3,2,Pin_2*%
%TO.N,/TX+*%
X64350000Y-98000000D03*
%TD*%
D12*
%TO.P,C2,1*%
%TO.N,+1V5*%
X69670000Y-80700000D03*
%TO.P,C2,2*%
%TO.N,GND*%
X70630000Y-80700000D03*
%TD*%
D13*
%TO.P,C8,1*%
%TO.N,+3V3*%
X65250000Y-31290000D03*
%TO.P,C8,2*%
%TO.N,GND*%
X65250000Y-32250000D03*
%TD*%
D14*
%TO.P,J1,MP,MP*%
%TO.N,GND*%
X74700000Y-90200000D03*
X45400000Y-90200000D03*
D15*
%TO.P,J1,52,+3V3AUX*%
%TO.N,+3V3*%
X71850000Y-82600000D03*
%TO.P,J1,51,Reserved*%
%TO.N,unconnected-(J1-Reserved-Pad51)*%
X71450000Y-90800000D03*
%TO.P,J1,50,GND*%
%TO.N,GND*%
X71050000Y-82600000D03*
%TO.P,J1,49,Reserved*%
%TO.N,unconnected-(J1-Reserved-Pad49)*%
X70650000Y-90800000D03*
%TO.P,J1,48,+1V5*%
%TO.N,+1V5*%
X70250000Y-82600000D03*
%TO.P,J1,47,Reserved*%
%TO.N,unconnected-(J1-Reserved-Pad47)*%
X69850000Y-90800000D03*
%TO.P,J1,46,~{LED_WPAN}*%
%TO.N,unconnected-(J1-~{LED_WPAN}-Pad46)*%
X69450000Y-82600000D03*
%TO.P,J1,45,Reserved*%
%TO.N,unconnected-(J1-Reserved-Pad45)*%
X69050000Y-90800000D03*
%TO.P,J1,44,~{LED_WLAN}*%
%TO.N,unconnected-(J1-~{LED_WLAN}-Pad44)*%
X68650000Y-82600000D03*
%TO.P,J1,43,GND*%
%TO.N,GND*%
X68250000Y-90800000D03*
%TO.P,J1,42,~{LED_WWAN}*%
%TO.N,unconnected-(J1-~{LED_WWAN}-Pad42)*%
X67850000Y-82600000D03*
%TO.P,J1,41,+3V3AUX*%
%TO.N,+3V3*%
X67450000Y-90800000D03*
%TO.P,J1,40,GND*%
%TO.N,GND*%
X67050000Y-82600000D03*
%TO.P,J1,39,+3V3AUX*%
%TO.N,+3V3*%
X66650000Y-90800000D03*
%TO.P,J1,38,USB_D+*%
%TO.N,unconnected-(J1-USB_D+-Pad38)*%
X66250000Y-82600000D03*
%TO.P,J1,37,GND*%
%TO.N,GND*%
X65850000Y-90800000D03*
%TO.P,J1,36,USB_D-*%
%TO.N,unconnected-(J1-USB_D--Pad36)*%
X65450000Y-82600000D03*
%TO.P,J1,35,GND*%
%TO.N,GND*%
X65050000Y-90800000D03*
%TO.P,J1,34,GND*%
X64650000Y-82600000D03*
%TO.P,J1,33,PETp0*%
%TO.N,/TX+*%
X64250000Y-90800000D03*
%TO.P,J1,32,SMB_DATA*%
%TO.N,unconnected-(J1-SMB_DATA-Pad32)*%
X63850000Y-82600000D03*
%TO.P,J1,31,PETn0*%
%TO.N,/TX-*%
X63450000Y-90800000D03*
%TO.P,J1,30,SMB_CLK*%
%TO.N,unconnected-(J1-SMB_CLK-Pad30)*%
X63050000Y-82600000D03*
%TO.P,J1,29,GND*%
%TO.N,GND*%
X62650000Y-90800000D03*
%TO.P,J1,28,+1V5*%
%TO.N,+1V5*%
X62250000Y-82600000D03*
%TO.P,J1,27,GND*%
%TO.N,GND*%
X61850000Y-90800000D03*
%TO.P,J1,26,GND*%
X61450000Y-82600000D03*
%TO.P,J1,25,PERp0*%
%TO.N,/RX+*%
X61050000Y-90800000D03*
%TO.P,J1,24,+3V3AUX*%
%TO.N,+3V3*%
X60650000Y-82600000D03*
%TO.P,J1,23,PERn0*%
%TO.N,/RX-*%
X60250000Y-90800000D03*
%TO.P,J1,22,~{PERST}*%
%TO.N,Net-(J1-~{PERST})*%
X59850000Y-82600000D03*
%TO.P,J1,21,GND*%
%TO.N,GND*%
X59450000Y-90800000D03*
%TO.P,J1,20,~{W_DISABLE}*%
%TO.N,unconnected-(J1-~{W_DISABLE}-Pad20)*%
X59050000Y-82600000D03*
%TO.P,J1,19,UIM_C4*%
%TO.N,unconnected-(J1-UIM_C4-Pad19)*%
X58650000Y-90800000D03*
%TO.P,J1,18,GND*%
%TO.N,GND*%
X58250000Y-82600000D03*
%TO.P,J1,17,UIM_C8*%
%TO.N,unconnected-(J1-UIM_C8-Pad17)*%
X57850000Y-90800000D03*
%TO.P,J1,16,UIM_VPP*%
%TO.N,unconnected-(J1-UIM_VPP-Pad16)*%
X54250000Y-82600000D03*
%TO.P,J1,15,GND*%
%TO.N,GND*%
X53850000Y-90800000D03*
%TO.P,J1,14,~{UIM_RESET}*%
%TO.N,unconnected-(J1-~{UIM_RESET}-Pad14)*%
X53450000Y-82600000D03*
%TO.P,J1,13,REFCLK+*%
%TO.N,/CLK+*%
X53050000Y-90800000D03*
%TO.P,J1,12,UIM_CLK*%
%TO.N,unconnected-(J1-UIM_CLK-Pad12)*%
X52650000Y-82600000D03*
%TO.P,J1,11,REFCLK-*%
%TO.N,/CLK-*%
X52250000Y-90800000D03*
%TO.P,J1,10,UIM_DATA*%
%TO.N,unconnected-(J1-UIM_DATA-Pad10)*%
X51850000Y-82600000D03*
%TO.P,J1,9,GND*%
%TO.N,GND*%
X51450000Y-90800000D03*
%TO.P,J1,8,UIM_PWR*%
%TO.N,unconnected-(J1-UIM_PWR-Pad8)*%
X51050000Y-82600000D03*
%TO.P,J1,7,~{CLKREQ}*%
%TO.N,unconnected-(J1-~{CLKREQ}-Pad7)*%
X50650000Y-90800000D03*
%TO.P,J1,6,+1V5*%
%TO.N,+1V5*%
X50250000Y-82600000D03*
%TO.P,J1,5,COEX2*%
%TO.N,unconnected-(J1-COEX2-Pad5)*%
X49850000Y-90800000D03*
%TO.P,J1,4,GND*%
%TO.N,GND*%
X49450000Y-82600000D03*
%TO.P,J1,3,COEX1*%
%TO.N,unconnected-(J1-COEX1-Pad3)*%
X49050000Y-90800000D03*
%TO.P,J1,2,+3V3AUX*%
%TO.N,+3V3*%
X48650000Y-82600000D03*
%TO.P,J1,1,~{WAKE}*%
%TO.N,unconnected-(J1-~{WAKE}-Pad1)*%
X48250000Y-90800000D03*
%TD*%
D10*
%TO.P,TP1,1,1*%
%TO.N,+3V3*%
X67750000Y-98000000D03*
%TD*%
D12*
%TO.P,C10,1*%
%TO.N,Net-(J1-~{PERST})*%
X56670000Y-80700000D03*
%TO.P,C10,2*%
%TO.N,GND*%
X57630000Y-80700000D03*
%TD*%
D16*
%TO.P,R1,1*%
%TO.N,+3V3*%
X54800000Y-80710000D03*
%TO.P,R1,2*%
%TO.N,Net-(J1-~{PERST})*%
X55820000Y-80710000D03*
%TD*%
D17*
%TO.P,U1,1,GND*%
%TO.N,GND*%
X63150000Y-34000000D03*
D18*
%TO.P,U1,2,VO*%
%TO.N,+1V5*%
X56850000Y-31700000D03*
D17*
X63150000Y-31700000D03*
%TO.P,U1,3,VI*%
%TO.N,+3V3*%
X63150000Y-29400000D03*
%TD*%
D12*
%TO.P,C1,1*%
%TO.N,+3V3*%
X60070000Y-80700000D03*
%TO.P,C1,2*%
%TO.N,GND*%
X61030000Y-80700000D03*
%TD*%
%TO.P,C9,1*%
%TO.N,+1V5*%
X56389999Y-34500000D03*
%TO.P,C9,2*%
%TO.N,GND*%
X57349999Y-34500000D03*
%TD*%
%TO.P,C4,1*%
%TO.N,+3V3*%
X66970000Y-93150000D03*
%TO.P,C4,2*%
%TO.N,GND*%
X67930000Y-93150000D03*
%TD*%
D11*
%TO.P,J2,1,Pin_1*%
%TO.N,/RX-*%
X60150000Y-98000000D03*
%TO.P,J2,2,Pin_2*%
%TO.N,/RX+*%
X61150000Y-98000000D03*
%TD*%
D19*
%TO.P,C6,1*%
%TO.N,+1V5*%
X62830000Y-80700000D03*
%TO.P,C6,2*%
%TO.N,GND*%
X61870000Y-80700000D03*
%TD*%
D20*
%TO.P,H3,1,1*%
%TO.N,GND*%
X72100000Y-62800000D03*
%TD*%
D19*
%TO.P,C3,1*%
%TO.N,+3V3*%
X72430000Y-80700000D03*
%TO.P,C3,2*%
%TO.N,GND*%
X71470000Y-80700000D03*
%TD*%
%TO.P,C7,1*%
%TO.N,+1V5*%
X50880000Y-80700000D03*
%TO.P,C7,2*%
%TO.N,GND*%
X49920000Y-80700000D03*
%TD*%
D20*
%TO.P,H4,1,1*%
%TO.N,GND*%
X48000000Y-62800000D03*
%TD*%
%TO.P,H2,1,1*%
%TO.N,GND*%
X47950000Y-38650000D03*
%TD*%
%TO.P,H1,1,1*%
%TO.N,GND*%
X72150000Y-38650000D03*
%TD*%
D21*
%TO.N,+3V3*%
X63900000Y-29900000D03*
X54150000Y-80700000D03*
X63150000Y-29400000D03*
X67450000Y-96700000D03*
X67750000Y-96200000D03*
X68400000Y-96200000D03*
X66650000Y-93750000D03*
X72400000Y-79950000D03*
X67100000Y-96200000D03*
X67250000Y-93750000D03*
X68100000Y-96700000D03*
X48050000Y-79950000D03*
X62400000Y-28900000D03*
X60100000Y-79950000D03*
%TO.N,GND*%
X70600000Y-79950000D03*
X49900000Y-79950000D03*
X45400000Y-88200000D03*
X63150000Y-34000000D03*
X62650000Y-89400000D03*
X65050000Y-89400000D03*
X63900000Y-34500000D03*
X57100000Y-96750000D03*
X45400000Y-92200000D03*
X62400000Y-33500000D03*
X56450000Y-96750000D03*
X64650000Y-84000000D03*
X58300000Y-80650000D03*
X49450000Y-84000000D03*
X51450000Y-89400000D03*
X68250000Y-89400000D03*
X56100000Y-96250000D03*
X71500000Y-79950000D03*
X56750000Y-96250000D03*
X59450000Y-89400000D03*
X57400000Y-96250000D03*
X53850000Y-89400000D03*
X65850000Y-89400000D03*
X71050000Y-84000000D03*
X61900000Y-79950000D03*
X49050000Y-79950000D03*
X61000000Y-79950000D03*
X74700000Y-88200000D03*
X67050000Y-84000000D03*
X74700000Y-92200000D03*
X58250000Y-84000000D03*
X46950000Y-90200000D03*
X73150000Y-90200000D03*
X61450000Y-84000000D03*
X61850000Y-89400000D03*
%TO.N,+1V5*%
X69700000Y-79950000D03*
X56100000Y-30050000D03*
X57600000Y-32650000D03*
X57600000Y-33350000D03*
X62800000Y-79950000D03*
X50900000Y-79950000D03*
X57599999Y-31700000D03*
X56100000Y-30750000D03*
X56099999Y-31700000D03*
X56100000Y-33350000D03*
X56100000Y-32650000D03*
X57600000Y-30750000D03*
X57600000Y-30050000D03*
%TD*%
D22*
%TO.N,+3V3*%
X67450000Y-96700000D02*
X67450000Y-97500000D01*
X72430000Y-79980000D02*
X72400000Y-79950000D01*
X67750000Y-96200000D02*
X68100000Y-96200000D01*
X68400000Y-96200000D02*
X68400000Y-97550000D01*
X48650000Y-82600000D02*
X48650000Y-81400000D01*
X67250000Y-93750000D02*
X66650000Y-93750000D01*
X60070000Y-80700000D02*
X60070000Y-79980000D01*
X48070000Y-79970000D02*
X48050000Y-79950000D01*
X68100000Y-96200000D02*
X68400000Y-96200000D01*
X60650000Y-82600000D02*
X60650000Y-81400000D01*
X67750000Y-97950000D02*
X67750000Y-96200000D01*
X67450000Y-92550000D02*
X67250000Y-92750000D01*
X66970000Y-93150000D02*
X66970000Y-93470000D01*
X66970000Y-93430000D02*
X66650000Y-93750000D01*
X48070000Y-80700000D02*
X48070000Y-79970000D01*
X68100000Y-96700000D02*
X68100000Y-98050000D01*
X67450000Y-96200000D02*
X67450000Y-96700000D01*
X66970000Y-93150000D02*
X66970000Y-93430000D01*
X63350000Y-29400000D02*
X63150000Y-29400000D01*
X63600000Y-29650000D02*
X63350000Y-29400000D01*
X72430000Y-80700000D02*
X72430000Y-79980000D01*
X60070000Y-79980000D02*
X60100000Y-79950000D01*
X66970000Y-93470000D02*
X67250000Y-93750000D01*
X67750000Y-97950000D02*
X67750000Y-97900000D01*
X67450000Y-96200000D02*
X67100000Y-96200000D01*
X66970000Y-93130000D02*
X67250000Y-92850000D01*
X60050000Y-80800000D02*
X60050000Y-80700000D01*
X66970000Y-93150000D02*
X66970000Y-93130000D01*
X67250000Y-92750000D02*
X67250000Y-92850000D01*
X67750000Y-97900000D02*
X67750000Y-97850000D01*
X68100000Y-96200000D02*
X68100000Y-96700000D01*
X67100000Y-96200000D02*
X67100000Y-97750000D01*
X48050000Y-80800000D02*
X48050000Y-80700000D01*
X48650000Y-81400000D02*
X48050000Y-80800000D01*
D23*
X54800000Y-80710000D02*
X54160000Y-80710000D01*
D22*
X60650000Y-81400000D02*
X60050000Y-80800000D01*
X67750000Y-96200000D02*
X67450000Y-96200000D01*
X65240000Y-31290000D02*
X63600000Y-29650000D01*
X66650000Y-92850000D02*
X66950000Y-93150000D01*
X71850000Y-81400000D02*
X72450000Y-80800000D01*
X71850000Y-82600000D02*
X71850000Y-81400000D01*
D23*
X54160000Y-80710000D02*
X54150000Y-80700000D01*
D22*
X65250000Y-31290000D02*
X65240000Y-31290000D01*
X67450000Y-90800000D02*
X67450000Y-92550000D01*
X72450000Y-80800000D02*
X72450000Y-80700000D01*
X66650000Y-90800000D02*
X66650000Y-92850000D01*
%TO.N,GND*%
X45400000Y-90200000D02*
X45400000Y-88200000D01*
X45400000Y-90200000D02*
X46950000Y-90200000D01*
X45400000Y-90200000D02*
X45400000Y-92200000D01*
X67050000Y-82600000D02*
X67050000Y-84000000D01*
X70630000Y-79980000D02*
X70600000Y-79950000D01*
X56100000Y-96250000D02*
X56100000Y-97800000D01*
X49450000Y-82600000D02*
X49450000Y-80700000D01*
X62650000Y-90800000D02*
X62650000Y-89400000D01*
X61030000Y-80700000D02*
X61030000Y-79980000D01*
X57400000Y-96250000D02*
X57400000Y-97600000D01*
X53850000Y-90800000D02*
X53850000Y-89400000D01*
X51450000Y-90800000D02*
X51450000Y-89400000D01*
X49030000Y-80700000D02*
X49950000Y-80700000D01*
X58250000Y-82600000D02*
X58250000Y-84000000D01*
X56450000Y-96250000D02*
X56100000Y-96250000D01*
X56750000Y-96250000D02*
X57100000Y-96250000D01*
X68250000Y-90800000D02*
X68250000Y-92850000D01*
X63500000Y-34000000D02*
X63150000Y-34000000D01*
X63150000Y-34000000D02*
X63100000Y-34000000D01*
X74700000Y-90200000D02*
X73150000Y-90200000D01*
D23*
X58250000Y-80700000D02*
X58300000Y-80650000D01*
D22*
X56750000Y-98000000D02*
X56750000Y-96250000D01*
X56750000Y-96250000D02*
X56450000Y-96250000D01*
X68250000Y-92850000D02*
X67950000Y-93150000D01*
X49920000Y-79970000D02*
X49900000Y-79950000D01*
X56450000Y-96250000D02*
X56450000Y-96750000D01*
X74700000Y-90200000D02*
X74700000Y-92200000D01*
X57100000Y-96750000D02*
X57100000Y-98100000D01*
X61870000Y-79980000D02*
X61900000Y-79950000D01*
X71470000Y-80700000D02*
X71470000Y-79980000D01*
X65050000Y-90800000D02*
X65050000Y-89400000D01*
X56450000Y-96750000D02*
X56450000Y-97550000D01*
X64650000Y-82600000D02*
X64650000Y-84000000D01*
X61450000Y-82600000D02*
X61450000Y-84000000D01*
X71050000Y-82600000D02*
X71050000Y-84000000D01*
X68250000Y-90800000D02*
X68250000Y-89400000D01*
X62600000Y-34500000D02*
X63100000Y-34000000D01*
X49450000Y-82600000D02*
X49450000Y-84000000D01*
X71050000Y-82600000D02*
X71050000Y-80700000D01*
X49030000Y-79970000D02*
X49050000Y-79950000D01*
X70630000Y-80700000D02*
X71500000Y-80700000D01*
D23*
X57630000Y-80700000D02*
X58250000Y-80700000D01*
D22*
X49920000Y-80700000D02*
X49920000Y-79970000D01*
X70630000Y-80700000D02*
X70630000Y-79980000D01*
X74700000Y-90200000D02*
X74700000Y-88200000D01*
X56750000Y-97950000D02*
X56750000Y-97900000D01*
X65850000Y-90800000D02*
X65850000Y-89400000D01*
X56750000Y-98000000D02*
X56750000Y-97950000D01*
X57100000Y-96250000D02*
X57400000Y-96250000D01*
X57349999Y-34500000D02*
X62600000Y-34500000D01*
X65250000Y-32250000D02*
X63500000Y-34000000D01*
X61030000Y-79980000D02*
X61000000Y-79950000D01*
X57100000Y-96250000D02*
X57100000Y-96750000D01*
X61850000Y-90800000D02*
X61850000Y-89400000D01*
X61870000Y-80700000D02*
X61870000Y-79980000D01*
X59450000Y-90800000D02*
X59450000Y-89400000D01*
X61030000Y-80700000D02*
X61850000Y-80700000D01*
X61450000Y-82600000D02*
X61450000Y-80700000D01*
X49030000Y-80700000D02*
X49030000Y-79970000D01*
X71470000Y-79980000D02*
X71500000Y-79950000D01*
%TO.N,+1V5*%
X62830000Y-79980000D02*
X62800000Y-79950000D01*
X50880000Y-80700000D02*
X50880000Y-79970000D01*
X69670000Y-79980000D02*
X69700000Y-79950000D01*
X50880000Y-80700000D02*
X50880000Y-80820000D01*
X50880000Y-80820000D02*
X50250000Y-81450000D01*
X70250000Y-81400000D02*
X69650000Y-80800000D01*
X70250000Y-82600000D02*
X70250000Y-81400000D01*
D24*
X63150000Y-31700000D02*
X56850000Y-31700000D01*
D22*
X50250000Y-81450000D02*
X50250000Y-82600000D01*
X69670000Y-80700000D02*
X69670000Y-79980000D01*
X69650000Y-80800000D02*
X69650000Y-80700000D01*
X62800000Y-80850000D02*
X62800000Y-80700000D01*
X62250000Y-81400000D02*
X62800000Y-80850000D01*
X56389999Y-31710001D02*
X56400000Y-31700000D01*
X50880000Y-79970000D02*
X50900000Y-79950000D01*
X62830000Y-80700000D02*
X62830000Y-79980000D01*
X56389999Y-34500000D02*
X56389999Y-31710001D01*
X62250000Y-82600000D02*
X62250000Y-81400000D01*
D25*
%TO.N,/CLK-*%
X52250000Y-97900000D02*
X52200000Y-97950000D01*
D26*
X52250000Y-90800000D02*
X52250000Y-97900000D01*
%TO.N,/CLK+*%
X53050000Y-90800000D02*
X53050000Y-98050000D01*
D25*
%TO.N,/RX-*%
X60250000Y-97900000D02*
X60200000Y-97950000D01*
D26*
X60250000Y-90800000D02*
X60250000Y-97900000D01*
%TO.N,/RX+*%
X61050000Y-90800000D02*
X61050000Y-98000000D01*
D25*
X61050000Y-98000000D02*
X61100000Y-98050000D01*
D26*
%TO.N,/TX-*%
X63450000Y-90800000D02*
X63450000Y-97850000D01*
D25*
X63450000Y-97850000D02*
X63350000Y-97950000D01*
D26*
%TO.N,/TX+*%
X64250000Y-90800000D02*
X64250000Y-97850000D01*
D25*
X64250000Y-97850000D02*
X64300000Y-97900000D01*
D23*
%TO.N,Net-(J1-~{PERST})*%
X59150000Y-84900000D02*
X57150000Y-84900000D01*
X59850000Y-82600000D02*
X59850000Y-84200000D01*
X57150000Y-84900000D02*
X55800000Y-83550000D01*
X56690000Y-80710000D02*
X56700000Y-80700000D01*
X55820000Y-80710000D02*
X56690000Y-80710000D01*
X55800000Y-83550000D02*
X55800000Y-80700000D01*
X59850000Y-84200000D02*
X59150000Y-84900000D01*
%TD*%
M02*
