%TF.GenerationSoftware,KiCad,Pcbnew,7.0.11-2.fc39*%
%TF.CreationDate,2024-03-16T22:06:29+01:00*%
%TF.ProjectId,mini-pcie-breakout,6d696e69-2d70-4636-9965-2d627265616b,rev?*%
%TF.SameCoordinates,Original*%
%TF.FileFunction,Paste,Top*%
%TF.FilePolarity,Positive*%
%FSLAX46Y46*%
G04 Gerber Fmt 4.6, Leading zero omitted, Abs format (unit mm)*
G04 Created by KiCad (PCBNEW 7.0.11-2.fc39) date 2024-03-16 22:06:29*
%MOMM*%
%LPD*%
G01*
G04 APERTURE LIST*
G04 Aperture macros list*
%AMRoundRect*
0 Rectangle with rounded corners*
0 $1 Rounding radius*
0 $2 $3 $4 $5 $6 $7 $8 $9 X,Y pos of 4 corners*
0 Add a 4 corners polygon primitive as box body*
4,1,4,$2,$3,$4,$5,$6,$7,$8,$9,$2,$3,0*
0 Add four circle primitives for the rounded corners*
1,1,$1+$1,$2,$3*
1,1,$1+$1,$4,$5*
1,1,$1+$1,$6,$7*
1,1,$1+$1,$8,$9*
0 Add four rect primitives between the rounded corners*
20,1,$1+$1,$2,$3,$4,$5,0*
20,1,$1+$1,$4,$5,$6,$7,0*
20,1,$1+$1,$6,$7,$8,$9,0*
20,1,$1+$1,$8,$9,$2,$3,0*%
G04 Aperture macros list end*
%ADD10C,0.750000*%
%ADD11RoundRect,0.100000X-0.100000X-0.700000X0.100000X-0.700000X0.100000X0.700000X-0.100000X0.700000X0*%
%ADD12RoundRect,0.112000X-0.112000X-0.136000X0.112000X-0.136000X0.112000X0.136000X-0.112000X0.136000X0*%
%ADD13RoundRect,0.112000X-0.136000X0.112000X-0.136000X-0.112000X0.136000X-0.112000X0.136000X0.112000X0*%
%ADD14R,1.840000X2.560000*%
%ADD15R,0.480000X1.600000*%
%ADD16RoundRect,0.108000X-0.108000X-0.148000X0.108000X-0.148000X0.108000X0.148000X-0.108000X0.148000X0*%
%ADD17R,1.600000X1.200000*%
%ADD18R,1.600000X3.040000*%
%ADD19RoundRect,0.112000X0.112000X0.136000X-0.112000X0.136000X-0.112000X-0.136000X0.112000X-0.136000X0*%
G04 APERTURE END LIST*
D10*
X50640725Y-38650000D02*
G75*
G03*
X45259275Y-38650000I-2690725J0D01*
G01*
X45259275Y-38650000D02*
G75*
G03*
X50640725Y-38650000I2690725J0D01*
G01*
X74840725Y-38650000D02*
G75*
G03*
X69459275Y-38650000I-2690725J0D01*
G01*
X69459275Y-38650000D02*
G75*
G03*
X74840725Y-38650000I2690725J0D01*
G01*
D11*
%TO.C,J4*%
X52150000Y-98000000D03*
X53150000Y-98000000D03*
%TD*%
D12*
%TO.C,C5*%
X48070000Y-80700000D03*
X49030000Y-80700000D03*
%TD*%
D11*
%TO.C,J3*%
X63350000Y-98000000D03*
X64350000Y-98000000D03*
%TD*%
D12*
%TO.C,C2*%
X69670000Y-80700000D03*
X70630000Y-80700000D03*
%TD*%
D13*
%TO.C,C8*%
X65250000Y-31290000D03*
X65250000Y-32250000D03*
%TD*%
D14*
%TO.C,J1*%
X74700000Y-90200000D03*
X45400000Y-90200000D03*
D15*
X71850000Y-82600000D03*
X71450000Y-90800000D03*
X71050000Y-82600000D03*
X70650000Y-90800000D03*
X70250000Y-82600000D03*
X69850000Y-90800000D03*
X69450000Y-82600000D03*
X69050000Y-90800000D03*
X68650000Y-82600000D03*
X68250000Y-90800000D03*
X67850000Y-82600000D03*
X67450000Y-90800000D03*
X67050000Y-82600000D03*
X66650000Y-90800000D03*
X66250000Y-82600000D03*
X65850000Y-90800000D03*
X65450000Y-82600000D03*
X65050000Y-90800000D03*
X64650000Y-82600000D03*
X64250000Y-90800000D03*
X63850000Y-82600000D03*
X63450000Y-90800000D03*
X63050000Y-82600000D03*
X62650000Y-90800000D03*
X62250000Y-82600000D03*
X61850000Y-90800000D03*
X61450000Y-82600000D03*
X61050000Y-90800000D03*
X60650000Y-82600000D03*
X60250000Y-90800000D03*
X59850000Y-82600000D03*
X59450000Y-90800000D03*
X59050000Y-82600000D03*
X58650000Y-90800000D03*
X58250000Y-82600000D03*
X57850000Y-90800000D03*
X54250000Y-82600000D03*
X53850000Y-90800000D03*
X53450000Y-82600000D03*
X53050000Y-90800000D03*
X52650000Y-82600000D03*
X52250000Y-90800000D03*
X51850000Y-82600000D03*
X51450000Y-90800000D03*
X51050000Y-82600000D03*
X50650000Y-90800000D03*
X50250000Y-82600000D03*
X49850000Y-90800000D03*
X49450000Y-82600000D03*
X49050000Y-90800000D03*
X48650000Y-82600000D03*
X48250000Y-90800000D03*
%TD*%
D12*
%TO.C,C10*%
X56670000Y-80700000D03*
X57630000Y-80700000D03*
%TD*%
D16*
%TO.C,R1*%
X54800000Y-80710000D03*
X55820000Y-80710000D03*
%TD*%
D17*
%TO.C,U1*%
X63150000Y-34000000D03*
D18*
X56850000Y-31700000D03*
D17*
X63150000Y-31700000D03*
X63150000Y-29400000D03*
%TD*%
D12*
%TO.C,C1*%
X60070000Y-80700000D03*
X61030000Y-80700000D03*
%TD*%
%TO.C,C9*%
X56389999Y-34500000D03*
X57349999Y-34500000D03*
%TD*%
%TO.C,C4*%
X66970000Y-93150000D03*
X67930000Y-93150000D03*
%TD*%
D11*
%TO.C,J2*%
X60150000Y-98000000D03*
X61150000Y-98000000D03*
%TD*%
D19*
%TO.C,C6*%
X62830000Y-80700000D03*
X61870000Y-80700000D03*
%TD*%
%TO.C,C3*%
X72430000Y-80700000D03*
X71470000Y-80700000D03*
%TD*%
%TO.C,C7*%
X50880000Y-80700000D03*
X49920000Y-80700000D03*
%TD*%
M02*
